EBGaramondVF-GradeMax.ufo
<glyph name="exclam" format="1">
  <advance width="250"/>
  <unicode hex="0021"/>
  <outline>
    <contour>
      <point x="140" y="172"/>
      <point x="150" y="194"/>
      <point x="155" y="225" type="curve" smooth="yes"/>
      <point x="180" y="377"/>
      <point x="205" y="473"/>
      <point x="205" y="557" type="curve" smooth="yes"/>
      <point x="205" y="606"/>
      <point x="174" y="649"/>
      <point x="128" y="649" type="curve" smooth="yes"/>
      <point x="81" y="649"/>
      <point x="46" y="603"/>
      <point x="47" y="555" type="curve" smooth="yes"/>
      <point x="49" y="471"/>
      <point x="66" y="379"/>
      <point x="90" y="225" type="curve" smooth="yes"/>
      <point x="96" y="186"/>
      <point x="105" y="172"/>
      <point x="123" y="172" type="curve" smooth="yes"/>
    </contour>
    <contour>
      <point x="162" y="-14"/>
      <point x="196" y="20"/>
      <point x="196" y="61" type="curve" smooth="yes"/>
      <point x="196" y="102"/>
      <point x="162" y="136"/>
      <point x="121" y="136" type="curve" smooth="yes"/>
      <point x="80" y="136"/>
      <point x="46" y="102"/>
      <point x="46" y="61" type="curve" smooth="yes"/>
      <point x="46" y="20"/>
      <point x="80" y="-14"/>
      <point x="121" y="-14" type="curve" smooth="yes"/>
    </contour>
  </outline>
</glyph>
<glyph name="numbersign" format="1">
  <advance width="468"/>
  <unicode hex="0023"/>
  <outline>
    <contour>
      <point x="83" y="-96"/>
      <point x="94" y="-93"/>
      <point x="99" y="-72" type="curve" smooth="yes"/>
      <point x="138" y="88" type="line"/>
      <point x="252" y="92" type="line"/>
      <point x="215" y="-56" type="line"/>
      <point x="215" y="-61" type="line" smooth="yes"/>
      <point x="215" y="-70"/>
      <point x="221" y="-80"/>
      <point x="231" y="-80" type="curve" smooth="yes"/>
      <point x="252" y="-80"/>
      <point x="263" y="-77"/>
      <point x="268" y="-56" type="curve" smooth="yes"/>
      <point x="305" y="95" type="line"/>
      <point x="383" y="98" type="line" smooth="yes"/>
      <point x="403" y="99"/>
      <point x="425" y="135"/>
      <point x="425" y="170" type="curve" smooth="yes"/>
      <point x="425" y="183"/>
      <point x="415" y="193"/>
      <point x="398" y="192" type="curve" smooth="yes"/>
      <point x="328" y="189" type="line"/>
      <point x="354" y="296" type="line"/>
      <point x="422" y="299" type="line" smooth="yes"/>
      <point x="442" y="300"/>
      <point x="464" y="336"/>
      <point x="464" y="371" type="curve" smooth="yes"/>
      <point x="464" y="384"/>
      <point x="454" y="394"/>
      <point x="437" y="393" type="curve" smooth="yes"/>
      <point x="378" y="390" type="line"/>
      <point x="413" y="534" type="line"/>
      <point x="413" y="537"/>
      <point x="415" y="538"/>
      <point x="415" y="542" type="curve" smooth="yes"/>
      <point x="415" y="551"/>
      <point x="410" y="561"/>
      <point x="402" y="561" type="curve" smooth="yes"/>
      <point x="379" y="561"/>
      <point x="365" y="556"/>
      <point x="361" y="534" type="curve"/>
      <point x="325" y="387" type="line"/>
      <point x="211" y="383" type="line"/>
      <point x="245" y="523" type="line"/>
      <point x="245" y="526"/>
      <point x="247" y="527"/>
      <point x="247" y="531" type="curve" smooth="yes"/>
      <point x="247" y="540"/>
      <point x="242" y="550"/>
      <point x="234" y="550" type="curve" smooth="yes"/>
      <point x="211" y="550"/>
      <point x="197" y="545"/>
      <point x="193" y="523" type="curve"/>
      <point x="158" y="380" type="line"/>
      <point x="83" y="377" type="line" smooth="yes"/>
      <point x="63" y="376"/>
      <point x="44" y="360"/>
      <point x="44" y="304" type="curve" smooth="yes"/>
      <point x="44" y="295"/>
      <point x="52" y="282"/>
      <point x="67" y="283" type="curve" smooth="yes"/>
      <point x="134" y="286" type="line"/>
      <point x="108" y="180" type="line"/>
      <point x="44" y="177" type="line" smooth="yes"/>
      <point x="24" y="176"/>
      <point x="5" y="160"/>
      <point x="5" y="104" type="curve" smooth="yes"/>
      <point x="5" y="95"/>
      <point x="13" y="82"/>
      <point x="28" y="83" type="curve" smooth="yes"/>
      <point x="85" y="85" type="line"/>
      <point x="46" y="-72" type="line"/>
      <point x="46" y="-77" type="line" smooth="yes"/>
      <point x="46" y="-86"/>
      <point x="52" y="-96"/>
      <point x="62" y="-96" type="curve" smooth="yes"/>
    </contour>
    <contour>
      <point x="188" y="289" type="line"/>
      <point x="301" y="293" type="line"/>
      <point x="275" y="186" type="line"/>
      <point x="161" y="182" type="line"/>
    </contour>
  </outline>
</glyph>
<glyph name="ampersand" format="1">
  <advance width="756"/>
  <unicode hex="0026"/>
  <outline>
    <contour>
      <point x="261" y="-16"/>
      <point x="313" y="2"/>
      <point x="362" y="75" type="curve" smooth="yes"/>
      <point x="366" y="81" type="line"/>
      <point x="384" y="60" type="line" smooth="yes"/>
      <point x="432" y="4"/>
      <point x="490" y="-15"/>
      <point x="565" y="-15" type="curve" smooth="yes"/>
      <point x="658" y="-15"/>
      <point x="728" y="53"/>
      <point x="728" y="94" type="curve" smooth="yes"/>
      <point x="728" y="108"/>
      <point x="721" y="117"/>
      <point x="706" y="117" type="curve" smooth="yes"/>
      <point x="699" y="117"/>
      <point x="692" y="112"/>
      <point x="684" y="111" type="curve" smooth="yes"/>
      <point x="661" y="102"/>
      <point x="635" y="97"/>
      <point x="617" y="97" type="curve" smooth="yes"/>
      <point x="583" y="97"/>
      <point x="552" y="134"/>
      <point x="515" y="178" type="curve"/>
      <point x="505" y="192" type="line"/>
      <point x="537" y="222"/>
      <point x="586" y="258"/>
      <point x="627" y="304" type="curve" smooth="yes"/>
      <point x="647" y="326"/>
      <point x="674" y="349"/>
      <point x="714" y="357" type="curve" smooth="yes"/>
      <point x="734" y="361"/>
      <point x="743" y="383"/>
      <point x="743" y="395" type="curve" smooth="yes"/>
      <point x="743" y="401"/>
      <point x="736" y="412"/>
      <point x="726" y="412" type="curve" smooth="yes"/>
      <point x="693" y="412"/>
      <point x="639" y="389"/>
      <point x="600" y="389" type="curve" smooth="yes"/>
      <point x="565" y="389"/>
      <point x="533" y="397"/>
      <point x="507" y="397" type="curve" smooth="yes"/>
      <point x="491" y="397"/>
      <point x="474" y="392"/>
      <point x="474" y="378" type="curve" smooth="yes"/>
      <point x="474" y="366"/>
      <point x="483" y="358"/>
      <point x="494" y="353" type="curve" smooth="yes"/>
      <point x="506" y="347"/>
      <point x="518" y="336"/>
      <point x="518" y="315" type="curve" smooth="yes"/>
      <point x="518" y="291"/>
      <point x="514" y="273"/>
      <point x="480" y="239" type="curve" smooth="yes"/>
      <point x="468" y="227" type="line"/>
      <point x="449" y="247" type="line"/>
      <point x="419" y="280"/>
      <point x="384" y="321"/>
      <point x="354" y="354" type="curve"/>
      <point x="334" y="377" type="line"/>
      <point x="356" y="386" type="line" smooth="yes"/>
      <point x="416" y="410"/>
      <point x="446" y="431"/>
      <point x="446" y="494" type="curve" smooth="yes"/>
      <point x="446" y="557"/>
      <point x="383" y="600"/>
      <point x="298" y="600" type="curve" smooth="yes"/>
      <point x="169" y="600"/>
      <point x="98" y="540"/>
      <point x="98" y="465" type="curve" smooth="yes"/>
      <point x="98" y="402"/>
      <point x="143" y="357"/>
      <point x="159" y="330" type="curve" smooth="yes"/>
      <point x="163" y="323" type="line"/>
      <point x="131" y="310" type="line" smooth="yes"/>
      <point x="62" y="282"/>
      <point x="9" y="204"/>
      <point x="9" y="131" type="curve" smooth="yes"/>
      <point x="9" y="31"/>
      <point x="112" y="-16"/>
      <point x="193" y="-16" type="curve" smooth="yes"/>
    </contour>
    <contour>
      <point x="197" y="85"/>
      <point x="162" y="125"/>
      <point x="162" y="192" type="curve" smooth="yes"/>
      <point x="162" y="223"/>
      <point x="171" y="260"/>
      <point x="182" y="282" type="curve" smooth="yes"/>
      <point x="187" y="292" type="line"/>
      <point x="197" y="279" type="line"/>
      <point x="248" y="216"/>
      <point x="280" y="174"/>
      <point x="325" y="115" type="curve"/>
      <point x="340" y="101" type="line"/>
      <point x="333" y="96" type="line" smooth="yes"/>
      <point x="308" y="74"/>
      <point x="275" y="74"/>
      <point x="250" y="74" type="curve" smooth="yes"/>
    </contour>
    <contour>
      <point x="300" y="416" type="line" smooth="yes"/>
      <point x="294" y="427"/>
      <point x="280" y="454"/>
      <point x="280" y="511" type="curve" smooth="yes"/>
      <point x="280" y="541"/>
      <point x="290" y="562"/>
      <point x="304" y="562" type="curve" smooth="yes"/>
      <point x="325" y="562"/>
      <point x="333" y="526"/>
      <point x="332" y="488" type="curve" smooth="yes"/>
      <point x="332" y="456"/>
      <point x="328" y="421"/>
      <point x="319" y="406" type="curve" smooth="yes"/>
      <point x="313" y="396" type="line"/>
    </contour>
  </outline>
</glyph>
<glyph name="quotesingle" format="1">
  <advance width="200"/>
  <unicode hex="0027"/>
  <outline>
    <contour>
      <point x="54" y="334" type="curve" smooth="yes"/>
      <point x="63" y="334"/>
      <point x="80" y="354"/>
      <point x="90" y="371" type="curve" smooth="yes"/>
      <point x="117" y="424"/>
      <point x="176" y="552"/>
      <point x="176" y="629" type="curve" smooth="yes"/>
      <point x="176" y="654"/>
      <point x="167" y="676"/>
      <point x="150" y="676" type="curve" smooth="yes"/>
      <point x="121" y="676"/>
      <point x="101" y="664"/>
      <point x="70" y="645" type="curve"/>
      <point x="56" y="635"/>
      <point x="36" y="615"/>
      <point x="36" y="593" type="curve" smooth="yes"/>
      <point x="36" y="592"/>
      <point x="42" y="506"/>
      <point x="42" y="452" type="curve" smooth="yes"/>
      <point x="42" y="426"/>
      <point x="42" y="399"/>
      <point x="41" y="368" type="curve"/>
      <point x="41" y="355"/>
      <point x="46" y="334"/>
    </contour>
  </outline>
</glyph>
<glyph name="parenleft" format="1">
  <advance width="315"/>
  <unicode hex="0028"/>
  <outline>
    <contour>
      <point x="232" y="-214" type="curve" smooth="yes"/>
      <point x="257" y="-214"/>
      <point x="284" y="-206"/>
      <point x="284" y="-193" type="curve" smooth="yes"/>
      <point x="284" y="-188"/>
      <point x="273" y="-170"/>
      <point x="260" y="-147" type="curve" smooth="yes"/>
      <point x="235" y="-102"/>
      <point x="178" y="95"/>
      <point x="178" y="256" type="curve" smooth="yes"/>
      <point x="178" y="409"/>
      <point x="235" y="594"/>
      <point x="260" y="636" type="curve" smooth="yes"/>
      <point x="273" y="659"/>
      <point x="284" y="677"/>
      <point x="284" y="682" type="curve" smooth="yes"/>
      <point x="284" y="695"/>
      <point x="257" y="703"/>
      <point x="232" y="703" type="curve" smooth="yes"/>
      <point x="221" y="703"/>
      <point x="205" y="701"/>
      <point x="185" y="681" type="curve" smooth="yes"/>
      <point x="132" y="629"/>
      <point x="40" y="406"/>
      <point x="40" y="245" type="curve" smooth="yes"/>
      <point x="40" y="83"/>
      <point x="132" y="-140"/>
      <point x="185" y="-192" type="curve" smooth="yes"/>
      <point x="205" y="-212"/>
      <point x="221" y="-214"/>
    </contour>
  </outline>
</glyph>
<glyph name="comma" format="1">
  <advance width="230"/>
  <unicode hex="002C"/>
  <outline>
    <contour>
      <point x="31" y="-147" type="curve" smooth="yes"/>
      <point x="94" y="-147"/>
      <point x="209" y="-66"/>
      <point x="209" y="58" type="curve" smooth="yes"/>
      <point x="209" y="126"/>
      <point x="165" y="177"/>
      <point x="107" y="177" type="curve" smooth="yes"/>
      <point x="65" y="177"/>
      <point x="28" y="144"/>
      <point x="28" y="98" type="curve" smooth="yes"/>
      <point x="28" y="51"/>
      <point x="56" y="29"/>
      <point x="80" y="15" type="curve" smooth="yes"/>
      <point x="99" y="2"/>
      <point x="115" y="-7"/>
      <point x="115" y="-30" type="curve" smooth="yes"/>
      <point x="115" y="-66"/>
      <point x="79" y="-107"/>
      <point x="26" y="-117" type="curve" smooth="yes"/>
      <point x="16" y="-119"/>
      <point x="9" y="-126"/>
      <point x="9" y="-132" type="curve" smooth="yes"/>
      <point x="9" y="-140"/>
      <point x="16" y="-147"/>
    </contour>
  </outline>
</glyph>
<glyph name="hyphen" format="1">
  <advance width="274"/>
  <unicode hex="002D"/>
  <outline>
    <contour>
      <point x="93" y="166"/>
      <point x="174" y="177"/>
      <point x="234" y="185" type="curve" smooth="yes"/>
      <point x="250" y="187"/>
      <point x="255" y="244"/>
      <point x="255" y="269" type="curve" smooth="yes"/>
      <point x="255" y="273"/>
      <point x="251" y="275"/>
      <point x="247" y="275" type="curve"/>
      <point x="183" y="268"/>
      <point x="99" y="259"/>
      <point x="35" y="250" type="curve"/>
      <point x="25" y="249"/>
      <point x="19" y="188"/>
      <point x="19" y="166" type="curve" smooth="yes"/>
      <point x="19" y="162"/>
      <point x="20" y="160"/>
      <point x="25" y="160" type="curve"/>
    </contour>
  </outline>
</glyph>
<glyph name="zero" format="1">
  <advance width="480"/>
  <unicode hex="0030"/>
  <outline>
    <contour>
      <point x="234" y="-14" type="curve" smooth="yes"/>
      <point x="400" y="-14"/>
      <point x="470" y="166"/>
      <point x="470" y="316" type="curve" smooth="yes"/>
      <point x="470" y="461"/>
      <point x="398" y="630"/>
      <point x="246" y="630" type="curve" smooth="yes"/>
      <point x="80" y="630"/>
      <point x="10" y="454"/>
      <point x="10" y="302" type="curve" smooth="yes"/>
      <point x="10" y="154"/>
      <point x="82" y="-14"/>
    </contour>
    <contour>
      <point x="245" y="47" type="curve" smooth="yes"/>
      <point x="199" y="47"/>
      <point x="185" y="166"/>
      <point x="185" y="319" type="curve" smooth="yes"/>
      <point x="185" y="471"/>
      <point x="191" y="567"/>
      <point x="234" y="567" type="curve" smooth="yes"/>
      <point x="281" y="567"/>
      <point x="296" y="452"/>
      <point x="296" y="299" type="curve" smooth="yes"/>
      <point x="296" y="146"/>
      <point x="289" y="47"/>
    </contour>
  </outline>
</glyph>
<glyph name="two" format="1">
  <advance width="480"/>
  <unicode hex="0032"/>
  <outline>
    <contour>
      <point x="422" y="-3" type="curve" smooth="yes"/>
      <point x="429" y="-3"/>
      <point x="439" y="2"/>
      <point x="443" y="35" type="curve" smooth="yes"/>
      <point x="452" y="114"/>
      <point x="471" y="179"/>
      <point x="471" y="201" type="curve" smooth="yes"/>
      <point x="471" y="206"/>
      <point x="470" y="213"/>
      <point x="463" y="213" type="curve" smooth="yes"/>
      <point x="452" y="213"/>
      <point x="443" y="198"/>
      <point x="436" y="190" type="curve" smooth="yes"/>
      <point x="410" y="149"/>
      <point x="396" y="142"/>
      <point x="336" y="139" type="curve" smooth="yes"/>
      <point x="315" y="136"/>
      <point x="292" y="136"/>
      <point x="270" y="136" type="curve" smooth="yes"/>
      <point x="249" y="136"/>
      <point x="222" y="137"/>
      <point x="209" y="140" type="curve" smooth="yes"/>
      <point x="204" y="141"/>
      <point x="201" y="143"/>
      <point x="201" y="149" type="curve" smooth="yes"/>
      <point x="201" y="156"/>
      <point x="289" y="238"/>
      <point x="334" y="292" type="curve" smooth="yes"/>
      <point x="376" y="343"/>
      <point x="411" y="411"/>
      <point x="411" y="465" type="curve" smooth="yes"/>
      <point x="411" y="562"/>
      <point x="351" y="630"/>
      <point x="251" y="630" type="curve" smooth="yes"/>
      <point x="138" y="630"/>
      <point x="61" y="548"/>
      <point x="55" y="494" type="curve" smooth="yes"/>
      <point x="48" y="435"/>
      <point x="70" y="429"/>
      <point x="83" y="429" type="curve" smooth="yes"/>
      <point x="96" y="429"/>
      <point x="113" y="446"/>
      <point x="122" y="464" type="curve" smooth="yes"/>
      <point x="144" y="507"/>
      <point x="166" y="532"/>
      <point x="192" y="532" type="curve" smooth="yes"/>
      <point x="219" y="532"/>
      <point x="242" y="502"/>
      <point x="242" y="452" type="curve" smooth="yes"/>
      <point x="242" y="364"/>
      <point x="211" y="274"/>
      <point x="160" y="205" type="curve" smooth="yes"/>
      <point x="36" y="38" type="line" smooth="yes"/>
      <point x="32" y="32"/>
      <point x="30" y="31"/>
      <point x="30" y="25" type="curve" smooth="yes"/>
      <point x="30" y="19"/>
      <point x="47" y="-2"/>
      <point x="52" y="-2" type="curve" smooth="yes"/>
      <point x="72" y="-2"/>
      <point x="234" y="3"/>
      <point x="284" y="3" type="curve" smooth="yes"/>
      <point x="334" y="3"/>
      <point x="402" y="-3"/>
    </contour>
  </outline>
</glyph>
<glyph name="three" format="1">
  <advance width="480"/>
  <unicode hex="0033"/>
  <outline>
    <contour>
      <point x="168" y="-38" type="curve" smooth="yes"/>
      <point x="314" y="-38"/>
      <point x="442" y="53"/>
      <point x="442" y="203" type="curve" smooth="yes"/>
      <point x="442" y="288"/>
      <point x="371" y="360"/>
      <point x="280" y="360" type="curve" smooth="yes"/>
      <point x="275" y="360"/>
      <point x="275" y="364"/>
      <point x="279" y="366" type="curve" smooth="yes"/>
      <point x="373" y="413"/>
      <point x="414" y="454"/>
      <point x="414" y="516" type="curve" smooth="yes"/>
      <point x="414" y="584"/>
      <point x="342" y="630"/>
      <point x="266" y="630" type="curve" smooth="yes"/>
      <point x="111" y="630"/>
      <point x="55" y="553"/>
      <point x="55" y="507" type="curve" smooth="yes"/>
      <point x="55" y="497"/>
      <point x="70" y="470"/>
      <point x="75" y="470" type="curve" smooth="yes"/>
      <point x="89" y="470"/>
      <point x="101" y="546"/>
      <point x="180" y="546" type="curve" smooth="yes"/>
      <point x="231" y="546"/>
      <point x="259" y="521"/>
      <point x="259" y="466" type="curve" smooth="yes"/>
      <point x="259" y="395"/>
      <point x="189" y="358"/>
      <point x="168" y="349" type="curve" smooth="yes"/>
      <point x="140" y="337"/>
      <point x="133" y="319"/>
      <point x="133" y="298" type="curve" smooth="yes"/>
      <point x="133" y="284"/>
      <point x="151" y="275"/>
      <point x="155" y="279" type="curve" smooth="yes"/>
      <point x="174" y="298"/>
      <point x="194" y="294"/>
      <point x="198" y="294" type="curve" smooth="yes"/>
      <point x="240" y="294"/>
      <point x="264" y="250"/>
      <point x="264" y="156" type="curve" smooth="yes"/>
      <point x="264" y="73"/>
      <point x="222" y="0"/>
      <point x="181" y="0" type="curve" smooth="yes"/>
      <point x="144" y="0"/>
      <point x="130" y="24"/>
      <point x="114" y="39" type="curve" smooth="yes"/>
      <point x="102" y="50"/>
      <point x="94" y="66"/>
      <point x="70" y="66" type="curve" smooth="yes"/>
      <point x="42" y="66"/>
      <point x="27" y="19"/>
      <point x="27" y="5" type="curve" smooth="yes"/>
      <point x="27" y="-10"/>
      <point x="75" y="-38"/>
    </contour>
  </outline>
</glyph>
<glyph name="four" format="1">
  <advance width="480"/>
  <unicode hex="0034"/>
  <outline>
    <contour>
      <point x="122" y="-3" type="curve" smooth="yes"/>
      <point x="180" y="-3"/>
      <point x="222" y="2"/>
      <point x="276" y="2" type="curve" smooth="yes"/>
      <point x="329" y="2"/>
      <point x="411" y="-3"/>
      <point x="435" y="-3" type="curve" smooth="yes"/>
      <point x="453" y="-3"/>
      <point x="457" y="9"/>
      <point x="457" y="16" type="curve" smooth="yes"/>
      <point x="457" y="28"/>
      <point x="452" y="35"/>
      <point x="443" y="38" type="curve" smooth="yes"/>
      <point x="392" y="55"/>
      <point x="378" y="62"/>
      <point x="378" y="113" type="curve" smooth="yes"/>
      <point x="378" y="178" type="line" smooth="yes"/>
      <point x="378" y="179"/>
      <point x="386" y="183"/>
      <point x="391" y="184" type="curve"/>
      <point x="399" y="185"/>
      <point x="400" y="186"/>
      <point x="412" y="186" type="curve" smooth="yes"/>
      <point x="428" y="186"/>
      <point x="446" y="185"/>
      <point x="461" y="185" type="curve" smooth="yes"/>
      <point x="465" y="185"/>
      <point x="482" y="247"/>
      <point x="482" y="263" type="curve" smooth="yes"/>
      <point x="482" y="267"/>
      <point x="477" y="271"/>
      <point x="471" y="271" type="curve"/>
      <point x="449" y="270"/>
      <point x="431" y="269"/>
      <point x="412" y="269" type="curve" smooth="yes"/>
      <point x="400" y="269"/>
      <point x="397" y="269"/>
      <point x="382" y="270" type="curve"/>
      <point x="379" y="270"/>
      <point x="377" y="273"/>
      <point x="377" y="276" type="curve" smooth="yes"/>
      <point x="377" y="315" type="line" smooth="yes"/>
      <point x="377" y="357"/>
      <point x="377" y="379"/>
      <point x="362" y="379" type="curve" smooth="yes"/>
      <point x="353" y="379"/>
      <point x="256" y="377"/>
      <point x="236" y="366" type="curve"/>
      <point x="228" y="362"/>
      <point x="227" y="358"/>
      <point x="227" y="344" type="curve" smooth="yes"/>
      <point x="227" y="279" type="line" smooth="yes"/>
      <point x="227" y="275"/>
      <point x="220" y="271"/>
      <point x="215" y="271" type="curve" smooth="yes"/>
      <point x="145" y="271" type="line" smooth="yes"/>
      <point x="141" y="271"/>
      <point x="143" y="277"/>
      <point x="145" y="280" type="curve" smooth="yes"/>
      <point x="374" y="608" type="line" smooth="yes"/>
      <point x="390" y="631"/>
      <point x="388" y="642"/>
      <point x="366" y="642" type="curve" smooth="yes"/>
      <point x="264" y="642" type="line" smooth="yes"/>
      <point x="238" y="642"/>
      <point x="221" y="636"/>
      <point x="210" y="614" type="curve" smooth="yes"/>
      <point x="28" y="235" type="line" smooth="yes"/>
      <point x="18" y="215"/>
      <point x="10" y="201"/>
      <point x="10" y="188" type="curve"/>
      <point x="9" y="187"/>
      <point x="9" y="186"/>
      <point x="9" y="185" type="curve" smooth="yes"/>
      <point x="9" y="181"/>
      <point x="14" y="175"/>
      <point x="19" y="175" type="curve" smooth="yes"/>
      <point x="51" y="175"/>
      <point x="138" y="177"/>
      <point x="192" y="177" type="curve" smooth="yes"/>
      <point x="198" y="177"/>
      <point x="204" y="170"/>
      <point x="204" y="157" type="curve" smooth="yes"/>
      <point x="204" y="123" type="line" smooth="yes"/>
      <point x="204" y="64"/>
      <point x="178" y="58"/>
      <point x="122" y="36" type="curve" smooth="yes"/>
      <point x="117" y="34"/>
      <point x="109" y="27"/>
      <point x="109" y="17" type="curve" smooth="yes"/>
      <point x="109" y="5"/>
      <point x="115" y="-3"/>
    </contour>
  </outline>
</glyph>
<glyph name="five" format="1">
  <advance width="480"/>
  <unicode hex="0035"/>
  <outline>
    <contour>
      <point x="109" y="-38" type="curve" smooth="yes"/>
      <point x="184" y="-38"/>
      <point x="253" y="-19"/>
      <point x="309" y="13" type="curve" smooth="yes"/>
      <point x="388" y="57"/>
      <point x="438" y="109"/>
      <point x="438" y="187" type="curve" smooth="yes"/>
      <point x="438" y="266"/>
      <point x="405" y="322"/>
      <point x="338" y="364" type="curve" smooth="yes"/>
      <point x="294" y="391"/>
      <point x="234" y="413"/>
      <point x="159" y="433" type="curve" smooth="yes"/>
      <point x="151" y="435"/>
      <point x="149" y="440"/>
      <point x="150" y="447" type="curve" smooth="yes"/>
      <point x="152" y="458"/>
      <point x="160" y="466"/>
      <point x="167" y="467" type="curve" smooth="yes"/>
      <point x="197" y="471"/>
      <point x="295" y="479"/>
      <point x="347" y="485" type="curve"/>
      <point x="364" y="488"/>
      <point x="374" y="503"/>
      <point x="384" y="532" type="curve" smooth="yes"/>
      <point x="389" y="547"/>
      <point x="400" y="585"/>
      <point x="406" y="601" type="curve" smooth="yes"/>
      <point x="411" y="615"/>
      <point x="405" y="628"/>
      <point x="395" y="627" type="curve" smooth="yes"/>
      <point x="317" y="619"/>
      <point x="227" y="608"/>
      <point x="166" y="592" type="curve" smooth="yes"/>
      <point x="145" y="587"/>
      <point x="132" y="576"/>
      <point x="125" y="556" type="curve" smooth="yes"/>
      <point x="111" y="512"/>
      <point x="67" y="373"/>
      <point x="67" y="278" type="curve" smooth="yes"/>
      <point x="67" y="264"/>
      <point x="72" y="255"/>
      <point x="85" y="244" type="curve"/>
      <point x="222" y="212"/>
      <point x="270" y="186"/>
      <point x="270" y="131" type="curve" smooth="yes"/>
      <point x="270" y="66"/>
      <point x="218" y="10"/>
      <point x="108" y="10" type="curve" smooth="yes"/>
      <point x="96" y="10"/>
      <point x="72" y="0"/>
      <point x="72" y="-16" type="curve" smooth="yes"/>
      <point x="72" y="-30"/>
      <point x="94" y="-38"/>
    </contour>
  </outline>
</glyph>
<glyph name="six" format="1">
  <advance width="480"/>
  <unicode hex="0036"/>
  <outline>
    <contour>
      <point x="244" y="-16" type="curve" smooth="yes"/>
      <point x="361" y="-16"/>
      <point x="467" y="66"/>
      <point x="467" y="196" type="curve" smooth="yes"/>
      <point x="467" y="282"/>
      <point x="413" y="343"/>
      <point x="352" y="343" type="curve" smooth="yes"/>
      <point x="326" y="343"/>
      <point x="293" y="332"/>
      <point x="267" y="313" type="curve" smooth="yes"/>
      <point x="252" y="302"/>
      <point x="240" y="289"/>
      <point x="231" y="275" type="curve" smooth="yes"/>
      <point x="216" y="252"/>
      <point x="225" y="225"/>
      <point x="236" y="229" type="curve" smooth="yes"/>
      <point x="253" y="235"/>
      <point x="262" y="241"/>
      <point x="281" y="241" type="curve" smooth="yes"/>
      <point x="311" y="241"/>
      <point x="324" y="195"/>
      <point x="324" y="147" type="curve" smooth="yes"/>
      <point x="324" y="81"/>
      <point x="302" y="50"/>
      <point x="275" y="51" type="curve" smooth="yes"/>
      <point x="242" y="52"/>
      <point x="203" y="105"/>
      <point x="203" y="234" type="curve" smooth="yes"/>
      <point x="203" y="316"/>
      <point x="233" y="403"/>
      <point x="283" y="477" type="curve" smooth="yes"/>
      <point x="321" y="533"/>
      <point x="370" y="581"/>
      <point x="427" y="614" type="curve" smooth="yes"/>
      <point x="434" y="618"/>
      <point x="455" y="625"/>
      <point x="455" y="644" type="curve" smooth="yes"/>
      <point x="455" y="651"/>
      <point x="448" y="661"/>
      <point x="424" y="655" type="curve" smooth="yes"/>
      <point x="337" y="633"/>
      <point x="254" y="592"/>
      <point x="186" y="537" type="curve" smooth="yes"/>
      <point x="88" y="459"/>
      <point x="21" y="351"/>
      <point x="21" y="229" type="curve" smooth="yes"/>
      <point x="21" y="72"/>
      <point x="132" y="-16"/>
    </contour>
  </outline>
</glyph>
<glyph name="seven" format="1">
  <advance width="480"/>
  <unicode hex="0037"/>
  <outline>
    <contour>
      <point x="108" y="-32" type="curve" smooth="yes"/>
      <point x="117" y="-32"/>
      <point x="135" y="-20"/>
      <point x="144" y="-3" type="curve" smooth="yes"/>
      <point x="437" y="530" type="line" smooth="yes"/>
      <point x="446" y="547"/>
      <point x="469" y="592"/>
      <point x="469" y="608" type="curve" smooth="yes"/>
      <point x="469" y="613"/>
      <point x="466" y="621"/>
      <point x="463" y="621" type="curve" smooth="yes"/>
      <point x="444" y="618"/>
      <point x="331" y="616"/>
      <point x="233" y="616" type="curve" smooth="yes"/>
      <point x="186" y="616"/>
      <point x="164" y="617"/>
      <point x="134" y="617" type="curve" smooth="yes"/>
      <point x="92" y="617"/>
      <point x="53" y="626"/>
      <point x="50" y="626" type="curve" smooth="yes"/>
      <point x="47" y="626"/>
      <point x="41" y="624"/>
      <point x="40" y="615" type="curve" smooth="yes"/>
      <point x="37" y="590"/>
      <point x="31" y="541"/>
      <point x="24" y="492" type="curve" smooth="yes"/>
      <point x="23" y="484"/>
      <point x="20" y="467"/>
      <point x="20" y="455" type="curve" smooth="yes"/>
      <point x="20" y="447"/>
      <point x="21" y="432"/>
      <point x="27" y="432" type="curve" smooth="yes"/>
      <point x="37" y="432"/>
      <point x="46" y="440"/>
      <point x="51" y="453" type="curve" smooth="yes"/>
      <point x="63" y="482"/>
      <point x="96" y="484"/>
      <point x="128" y="484" type="curve" smooth="yes"/>
      <point x="384" y="484" type="line"/>
      <point x="397" y="594" type="line"/>
      <point x="88" y="42" type="line" smooth="yes"/>
      <point x="82" y="31"/>
      <point x="75" y="17"/>
      <point x="75" y="-2" type="curve" smooth="yes"/>
      <point x="75" y="-18"/>
      <point x="86" y="-32"/>
    </contour>
  </outline>
</glyph>
<glyph name="eight" format="1">
  <advance width="480"/>
  <unicode hex="0038"/>
  <outline>
    <contour>
      <point x="335" y="-14"/>
      <point x="463" y="60"/>
      <point x="463" y="183" type="curve" smooth="yes"/>
      <point x="463" y="241"/>
      <point x="442" y="301"/>
      <point x="389" y="344" type="curve" smooth="yes"/>
      <point x="382" y="350"/>
      <point x="383" y="353"/>
      <point x="388" y="359" type="curve" smooth="yes"/>
      <point x="400" y="373"/>
      <point x="408" y="381"/>
      <point x="419" y="395" type="curve" smooth="yes"/>
      <point x="441" y="421"/>
      <point x="450" y="450"/>
      <point x="450" y="478" type="curve" smooth="yes"/>
      <point x="451" y="557"/>
      <point x="373" y="630"/>
      <point x="251" y="630" type="curve" smooth="yes"/>
      <point x="108" y="630"/>
      <point x="28" y="551"/>
      <point x="29" y="442" type="curve" smooth="yes"/>
      <point x="30" y="399"/>
      <point x="46" y="350"/>
      <point x="92" y="315" type="curve" smooth="yes"/>
      <point x="99" y="310"/>
      <point x="98" y="307"/>
      <point x="93" y="302" type="curve" smooth="yes"/>
      <point x="64" y="274"/>
      <point x="17" y="229"/>
      <point x="17" y="141" type="curve" smooth="yes"/>
      <point x="17" y="49"/>
      <point x="130" y="-14"/>
      <point x="229" y="-14" type="curve" smooth="yes"/>
    </contour>
    <contour>
      <point x="197" y="48"/>
      <point x="171" y="92"/>
      <point x="171" y="134" type="curve" smooth="yes"/>
      <point x="171" y="173"/>
      <point x="184" y="189"/>
      <point x="212" y="211" type="curve" smooth="yes"/>
      <point x="215" y="213"/>
      <point x="218" y="214"/>
      <point x="220" y="214" type="curve" smooth="yes"/>
      <point x="224" y="214"/>
      <point x="228" y="212"/>
      <point x="233" y="208" type="curve"/>
      <point x="271" y="184"/>
      <point x="309" y="151"/>
      <point x="309" y="114" type="curve" smooth="yes"/>
      <point x="309" y="78"/>
      <point x="281" y="48"/>
      <point x="243" y="48" type="curve" smooth="yes"/>
    </contour>
    <contour>
      <point x="258" y="444"/>
      <point x="255" y="445"/>
      <point x="253" y="446" type="curve" smooth="yes"/>
      <point x="211" y="473"/>
      <point x="183" y="488"/>
      <point x="183" y="520" type="curve" smooth="yes"/>
      <point x="183" y="547"/>
      <point x="211" y="568"/>
      <point x="238" y="568" type="curve" smooth="yes"/>
      <point x="273" y="568"/>
      <point x="294" y="546"/>
      <point x="294" y="517" type="curve" smooth="yes"/>
      <point x="294" y="487"/>
      <point x="288" y="465"/>
      <point x="263" y="447" type="curve" smooth="yes"/>
    </contour>
  </outline>
</glyph>
<glyph name="less" format="1">
  <advance width="560"/>
  <unicode hex="003C"/>
  <outline>
    <contour>
      <point x="494" y="-12"/>
      <point x="507" y="-13"/>
      <point x="507" y="0" type="curve" smooth="yes"/>
      <point x="507" y="34"/>
      <point x="499" y="58"/>
      <point x="473" y="71" type="curve" smooth="yes"/>
      <point x="163" y="229" type="line"/>
      <point x="160" y="230"/>
      <point x="159" y="233"/>
      <point x="162" y="234" type="curve"/>
      <point x="478" y="394" type="line" smooth="yes"/>
      <point x="498" y="404"/>
      <point x="505" y="454"/>
      <point x="505" y="466" type="curve" smooth="yes"/>
      <point x="505" y="472"/>
      <point x="502" y="476"/>
      <point x="496" y="476" type="curve" smooth="yes"/>
      <point x="495" y="476"/>
      <point x="491" y="475"/>
      <point x="488" y="473" type="curve" smooth="yes"/>
      <point x="86" y="271" type="line" smooth="yes"/>
      <point x="66" y="261"/>
      <point x="53" y="224"/>
      <point x="53" y="215" type="curve" smooth="yes"/>
      <point x="53" y="209"/>
      <point x="77" y="196"/>
      <point x="94" y="188" type="curve" smooth="yes"/>
      <point x="487" y="-9" type="line" smooth="yes"/>
    </contour>
  </outline>
</glyph>
<glyph name="equal" format="1">
  <advance width="566"/>
  <unicode hex="003D"/>
  <outline>
    <contour>
      <point x="487" y="305" type="line"/>
      <point x="506" y="305"/>
      <point x="518" y="346"/>
      <point x="518" y="363" type="curve" smooth="yes"/>
      <point x="518" y="369"/>
      <point x="512" y="373"/>
      <point x="505" y="373" type="curve"/>
      <point x="73" y="373" type="line"/>
      <point x="55" y="373"/>
      <point x="49" y="326"/>
      <point x="49" y="317" type="curve" smooth="yes"/>
      <point x="49" y="311"/>
      <point x="56" y="305"/>
      <point x="63" y="305" type="curve"/>
    </contour>
    <contour>
      <point x="487" y="134" type="line"/>
      <point x="506" y="134"/>
      <point x="518" y="175"/>
      <point x="518" y="192" type="curve" smooth="yes"/>
      <point x="518" y="198"/>
      <point x="512" y="202"/>
      <point x="505" y="202" type="curve"/>
      <point x="73" y="202" type="line"/>
      <point x="55" y="202"/>
      <point x="49" y="155"/>
      <point x="49" y="146" type="curve" smooth="yes"/>
      <point x="49" y="140"/>
      <point x="56" y="134"/>
      <point x="63" y="134" type="curve"/>
    </contour>
  </outline>
</glyph>
<glyph name="question" format="1">
  <advance width="376"/>
  <unicode hex="003F"/>
  <outline>
    <contour>
      <point x="151" y="171"/>
      <point x="159" y="179"/>
      <point x="161" y="195" type="curve" smooth="yes"/>
      <point x="166" y="235"/>
      <point x="174" y="248"/>
      <point x="203" y="263" type="curve" smooth="yes"/>
      <point x="236" y="280"/>
      <point x="266" y="300"/>
      <point x="294" y="314" type="curve" smooth="yes"/>
      <point x="319" y="326"/>
      <point x="344" y="357"/>
      <point x="344" y="412" type="curve" smooth="yes"/>
      <point x="344" y="472"/>
      <point x="316" y="534"/>
      <point x="271" y="582" type="curve" smooth="yes"/>
      <point x="226" y="630"/>
      <point x="173" y="661"/>
      <point x="116" y="661" type="curve" smooth="yes"/>
      <point x="76" y="661"/>
      <point x="41" y="634"/>
      <point x="41" y="609" type="curve" smooth="yes"/>
      <point x="41" y="573"/>
      <point x="74" y="517"/>
      <point x="104" y="517" type="curve" smooth="yes"/>
      <point x="118" y="517"/>
      <point x="129" y="520"/>
      <point x="139" y="524" type="curve" smooth="yes"/>
      <point x="148" y="528"/>
      <point x="162" y="536"/>
      <point x="194" y="536" type="curve" smooth="yes"/>
      <point x="229" y="536"/>
      <point x="264" y="520"/>
      <point x="264" y="486" type="curve" smooth="yes"/>
      <point x="264" y="449"/>
      <point x="241" y="428"/>
      <point x="199" y="409" type="curve" smooth="yes"/>
      <point x="117" y="372"/>
      <point x="78" y="340"/>
      <point x="78" y="291" type="curve" smooth="yes"/>
      <point x="78" y="254"/>
      <point x="91" y="223"/>
      <point x="103" y="202" type="curve" smooth="yes"/>
      <point x="115" y="182"/>
      <point x="128" y="171"/>
      <point x="138" y="171" type="curve" smooth="yes"/>
    </contour>
    <contour>
      <point x="175" y="-14"/>
      <point x="209" y="20"/>
      <point x="209" y="61" type="curve" smooth="yes"/>
      <point x="209" y="102"/>
      <point x="175" y="136"/>
      <point x="134" y="136" type="curve" smooth="yes"/>
      <point x="93" y="136"/>
      <point x="59" y="102"/>
      <point x="59" y="61" type="curve" smooth="yes"/>
      <point x="59" y="20"/>
      <point x="93" y="-14"/>
      <point x="134" y="-14" type="curve" smooth="yes"/>
    </contour>
  </outline>
</glyph>
<glyph name="at" format="1">
  <advance width="749"/>
  <unicode hex="0040"/>
  <outline>
    <contour>
      <point x="382" y="-158" type="curve" smooth="yes"/>
      <point x="502" y="-158"/>
      <point x="669" y="-63"/>
      <point x="669" y="-29" type="curve" smooth="yes"/>
      <point x="669" y="-17"/>
      <point x="660" y="-10"/>
      <point x="642" y="-10" type="curve" smooth="yes"/>
      <point x="632" y="-10"/>
      <point x="617" y="-20"/>
      <point x="605" y="-28" type="curve" smooth="yes"/>
      <point x="549" y="-65"/>
      <point x="456" y="-96"/>
      <point x="394" y="-96" type="curve" smooth="yes"/>
      <point x="227" y="-96"/>
      <point x="84" y="31"/>
      <point x="84" y="196" type="curve" smooth="yes"/>
      <point x="84" y="371"/>
      <point x="229" y="481"/>
      <point x="395" y="481" type="curve" smooth="yes"/>
      <point x="558" y="481"/>
      <point x="663" y="379"/>
      <point x="663" y="226" type="curve" smooth="yes"/>
      <point x="663" y="144"/>
      <point x="601" y="94"/>
      <point x="531" y="94" type="curve" smooth="yes"/>
      <point x="517" y="94"/>
      <point x="513" y="108"/>
      <point x="513" y="123" type="curve" smooth="yes"/>
      <point x="513" y="132"/>
      <point x="515" y="140"/>
      <point x="516" y="148" type="curve"/>
      <point x="540" y="285" type="line" smooth="yes"/>
      <point x="544" y="306"/>
      <point x="556" y="355"/>
      <point x="568" y="386" type="curve"/>
      <point x="568" y="394"/>
      <point x="538" y="397"/>
      <point x="533" y="397" type="curve" smooth="yes"/>
      <point x="520" y="397"/>
      <point x="515" y="370"/>
      <point x="503" y="370" type="curve" smooth="yes"/>
      <point x="498" y="370"/>
      <point x="485" y="376"/>
      <point x="474" y="379" type="curve" smooth="yes"/>
      <point x="458" y="383"/>
      <point x="426" y="390"/>
      <point x="401" y="390" type="curve" smooth="yes"/>
      <point x="267" y="390"/>
      <point x="157" y="296"/>
      <point x="157" y="148" type="curve" smooth="yes"/>
      <point x="157" y="64"/>
      <point x="221" y="17"/>
      <point x="303" y="17" type="curve" smooth="yes"/>
      <point x="379" y="17"/>
      <point x="432" y="64"/>
      <point x="444" y="64" type="curve" smooth="yes"/>
      <point x="456" y="64"/>
      <point x="467" y="22"/>
      <point x="527" y="22" type="curve" smooth="yes"/>
      <point x="631" y="22"/>
      <point x="738" y="116"/>
      <point x="738" y="244" type="curve" smooth="yes"/>
      <point x="738" y="417"/>
      <point x="586" y="543"/>
      <point x="409" y="543" type="curve" smooth="yes"/>
      <point x="196" y="543"/>
      <point x="10" y="420"/>
      <point x="10" y="185" type="curve" smooth="yes"/>
      <point x="10" y="-18"/>
      <point x="184" y="-158"/>
    </contour>
    <contour>
      <point x="344" y="75" type="curve" smooth="yes"/>
      <point x="308" y="75"/>
      <point x="266" y="106"/>
      <point x="266" y="181" type="curve" smooth="yes"/>
      <point x="266" y="282"/>
      <point x="318" y="342"/>
      <point x="374" y="342" type="curve" smooth="yes"/>
      <point x="414" y="342"/>
      <point x="447" y="314"/>
      <point x="447" y="276" type="curve" smooth="yes"/>
      <point x="447" y="271"/>
      <point x="447" y="266"/>
      <point x="446" y="264" type="curve"/>
      <point x="424" y="147" type="line" smooth="yes"/>
      <point x="418" y="117"/>
      <point x="412" y="104"/>
      <point x="400" y="95" type="curve" smooth="yes"/>
      <point x="382" y="82"/>
      <point x="366" y="75"/>
    </contour>
  </outline>
</glyph>
<glyph name="A" format="1">
  <advance width="692"/>
  <unicode hex="0041"/>
  <outline>
    <contour>
      <point x="28" y="-5" type="curve" smooth="yes"/>
      <point x="63" y="-5"/>
      <point x="107" y="1"/>
      <point x="153" y="1" type="curve" smooth="yes"/>
      <point x="192" y="1"/>
      <point x="230" y="-1"/>
      <point x="248" y="-1" type="curve" smooth="yes"/>
      <point x="265" y="-1"/>
      <point x="277" y="4"/>
      <point x="277" y="18" type="curve" smooth="yes"/>
      <point x="277" y="33"/>
      <point x="267" y="45"/>
      <point x="244" y="51" type="curve" smooth="yes"/>
      <point x="218" y="58"/>
      <point x="188" y="72"/>
      <point x="188" y="90" type="curve" smooth="yes"/>
      <point x="188" y="113"/>
      <point x="214" y="185"/>
      <point x="223" y="211" type="curve" smooth="yes"/>
      <point x="228" y="225"/>
      <point x="234" y="229"/>
      <point x="240" y="229" type="curve" smooth="yes"/>
      <point x="343" y="229" type="line" smooth="yes"/>
      <point x="361" y="229"/>
      <point x="368" y="228"/>
      <point x="372" y="218" type="curve" smooth="yes"/>
      <point x="392" y="169"/>
      <point x="419" y="105"/>
      <point x="419" y="76" type="curve" smooth="yes"/>
      <point x="419" y="65"/>
      <point x="415" y="56"/>
      <point x="399" y="53" type="curve" smooth="yes"/>
      <point x="377" y="49"/>
      <point x="358" y="36"/>
      <point x="358" y="20" type="curve" smooth="yes"/>
      <point x="358" y="7"/>
      <point x="373" y="0"/>
      <point x="394" y="0" type="curve" smooth="yes"/>
      <point x="421" y="0"/>
      <point x="460" y="1"/>
      <point x="505" y="1" type="curve" smooth="yes"/>
      <point x="556" y="1"/>
      <point x="622" y="-5"/>
      <point x="654" y="-5" type="curve" smooth="yes"/>
      <point x="673" y="-5"/>
      <point x="687" y="-2"/>
      <point x="687" y="10" type="curve" smooth="yes"/>
      <point x="687" y="23"/>
      <point x="677" y="38"/>
      <point x="654" y="44" type="curve"/>
      <point x="631" y="51"/>
      <point x="626" y="54"/>
      <point x="598" y="128" type="curve" smooth="yes"/>
      <point x="562" y="222"/>
      <point x="472" y="456"/>
      <point x="420" y="662" type="curve" smooth="yes"/>
      <point x="418" y="670"/>
      <point x="413" y="678"/>
      <point x="407" y="684" type="curve"/>
      <point x="406" y="686"/>
      <point x="400" y="686"/>
      <point x="399" y="685" type="curve"/>
      <point x="392" y="679"/>
      <point x="386" y="659"/>
      <point x="365" y="651" type="curve" smooth="yes"/>
      <point x="344" y="643"/>
      <point x="333" y="640"/>
      <point x="312" y="636" type="curve"/>
      <point x="309" y="615"/>
      <point x="300" y="597"/>
      <point x="288" y="578" type="curve" smooth="yes"/>
      <point x="220" y="393"/>
      <point x="185" y="300"/>
      <point x="110" y="129" type="curve" smooth="yes"/>
      <point x="90" y="83"/>
      <point x="62" y="67"/>
      <point x="39" y="58" type="curve" smooth="yes"/>
      <point x="9" y="45"/>
      <point x="-2" y="33"/>
      <point x="-2" y="18" type="curve" smooth="yes"/>
      <point x="-2" y="4"/>
      <point x="11" y="-5"/>
    </contour>
    <contour>
      <point x="260" y="282" type="line" smooth="yes"/>
      <point x="254" y="282"/>
      <point x="250" y="282"/>
      <point x="250" y="285" type="curve" smooth="yes"/>
      <point x="250" y="286"/>
      <point x="250" y="288"/>
      <point x="251" y="289" type="curve"/>
      <point x="294" y="424" type="line" smooth="yes"/>
      <point x="296" y="429"/>
      <point x="297" y="432"/>
      <point x="298" y="432" type="curve" smooth="yes"/>
      <point x="300" y="432"/>
      <point x="301" y="429"/>
      <point x="303" y="423" type="curve" smooth="yes"/>
      <point x="348" y="289" type="line"/>
      <point x="349" y="287"/>
      <point x="349" y="285"/>
      <point x="349" y="284" type="curve" smooth="yes"/>
      <point x="349" y="282"/>
      <point x="347" y="282"/>
      <point x="342" y="282" type="curve" smooth="yes"/>
    </contour>
  </outline>
</glyph>
<glyph name="B" format="1">
  <advance width="587"/>
  <unicode hex="0042"/>
  <outline>
    <contour>
      <point x="34" y="-5" type="curve" smooth="yes"/>
      <point x="92" y="-5"/>
      <point x="112" y="0"/>
      <point x="166" y="0" type="curve" smooth="yes"/>
      <point x="209" y="0"/>
      <point x="260" y="-4"/>
      <point x="279" y="-4" type="curve" smooth="yes"/>
      <point x="363" y="-4"/>
      <point x="420" y="9"/>
      <point x="466" y="30" type="curve" smooth="yes"/>
      <point x="511" y="51"/>
      <point x="580" y="84"/>
      <point x="580" y="194" type="curve" smooth="yes"/>
      <point x="580" y="310"/>
      <point x="460" y="349"/>
      <point x="394" y="359" type="curve" smooth="yes"/>
      <point x="388" y="360"/>
      <point x="389" y="368"/>
      <point x="394" y="369" type="curve" smooth="yes"/>
      <point x="431" y="373"/>
      <point x="474" y="391"/>
      <point x="498" y="412" type="curve" smooth="yes"/>
      <point x="515" y="427"/>
      <point x="535" y="463"/>
      <point x="535" y="508" type="curve" smooth="yes"/>
      <point x="535" y="617"/>
      <point x="451" y="657"/>
      <point x="280" y="657" type="curve" smooth="yes"/>
      <point x="217" y="657"/>
      <point x="190" y="652"/>
      <point x="149" y="652" type="curve" smooth="yes"/>
      <point x="108" y="652"/>
      <point x="99" y="653"/>
      <point x="45" y="653" type="curve" smooth="yes"/>
      <point x="28" y="653"/>
      <point x="12" y="645"/>
      <point x="12" y="633" type="curve" smooth="yes"/>
      <point x="12" y="620"/>
      <point x="20" y="612"/>
      <point x="36" y="609" type="curve" smooth="yes"/>
      <point x="75" y="602"/>
      <point x="83" y="590"/>
      <point x="83" y="507" type="curve" smooth="yes"/>
      <point x="83" y="127" type="line" smooth="yes"/>
      <point x="83" y="62"/>
      <point x="69" y="49"/>
      <point x="28" y="36" type="curve" smooth="yes"/>
      <point x="12" y="31"/>
      <point x="5" y="23"/>
      <point x="5" y="12" type="curve" smooth="yes"/>
      <point x="5" y="2"/>
      <point x="17" y="-5"/>
    </contour>
    <contour>
      <point x="323" y="64" type="curve" smooth="yes"/>
      <point x="300" y="64"/>
      <point x="288" y="76"/>
      <point x="288" y="124" type="curve" smooth="yes"/>
      <point x="288" y="294" type="line" smooth="yes"/>
      <point x="288" y="305"/>
      <point x="294" y="324"/>
      <point x="312" y="324" type="curve" smooth="yes"/>
      <point x="338" y="324"/>
      <point x="354" y="311"/>
      <point x="361" y="303" type="curve" smooth="yes"/>
      <point x="371" y="291"/>
      <point x="393" y="258"/>
      <point x="393" y="193" type="curve" smooth="yes"/>
      <point x="393" y="119"/>
      <point x="360" y="64"/>
    </contour>
    <contour>
      <point x="306" y="386" type="curve" smooth="yes"/>
      <point x="299" y="386"/>
      <point x="287" y="388"/>
      <point x="287" y="417" type="curve" smooth="yes"/>
      <point x="287" y="562" type="line" smooth="yes"/>
      <point x="287" y="585"/>
      <point x="292" y="597"/>
      <point x="315" y="597" type="curve" smooth="yes"/>
      <point x="365" y="597"/>
      <point x="375" y="536"/>
      <point x="375" y="489" type="curve" smooth="yes"/>
      <point x="375" y="441"/>
      <point x="363" y="417"/>
      <point x="357" y="411" type="curve" smooth="yes"/>
      <point x="339" y="392"/>
      <point x="321" y="386"/>
    </contour>
  </outline>
</glyph>
<glyph name="C" format="1">
  <advance width="710"/>
  <unicode hex="0043"/>
  <outline>
    <contour>
      <point x="417" y="-15" type="curve" smooth="yes"/>
      <point x="486" y="-15"/>
      <point x="565" y="5"/>
      <point x="618" y="21" type="curve" smooth="yes"/>
      <point x="641" y="28"/>
      <point x="644" y="29"/>
      <point x="653" y="48" type="curve" smooth="yes"/>
      <point x="670" y="86"/>
      <point x="681" y="163"/>
      <point x="681" y="179" type="curve" smooth="yes"/>
      <point x="681" y="209"/>
      <point x="644" y="214"/>
      <point x="629" y="178" type="curve" smooth="yes"/>
      <point x="589" y="84"/>
      <point x="538" y="50"/>
      <point x="438" y="50" type="curve" smooth="yes"/>
      <point x="318" y="50"/>
      <point x="256" y="185"/>
      <point x="256" y="344" type="curve" smooth="yes"/>
      <point x="256" y="497"/>
      <point x="311" y="598"/>
      <point x="432" y="598" type="curve" smooth="yes"/>
      <point x="488" y="598"/>
      <point x="530" y="586"/>
      <point x="562" y="559" type="curve" smooth="yes"/>
      <point x="596" y="531"/>
      <point x="610" y="500"/>
      <point x="623" y="446" type="curve" smooth="yes"/>
      <point x="632" y="407"/>
      <point x="676" y="418"/>
      <point x="674" y="448" type="curve" smooth="yes"/>
      <point x="669" y="524"/>
      <point x="667" y="557"/>
      <point x="664" y="603" type="curve" smooth="yes"/>
      <point x="662" y="621"/>
      <point x="655" y="632"/>
      <point x="634" y="637" type="curve" smooth="yes"/>
      <point x="561" y="654"/>
      <point x="533" y="663"/>
      <point x="451" y="663" type="curve" smooth="yes"/>
      <point x="233" y="663"/>
      <point x="33" y="517"/>
      <point x="33" y="323" type="curve" smooth="yes"/>
      <point x="33" y="119"/>
      <point x="218" y="-15"/>
    </contour>
  </outline>
</glyph>
<glyph name="D" format="1">
  <advance width="754"/>
  <unicode hex="0044"/>
  <outline>
    <contour>
      <point x="361" y="-7" type="curve" smooth="yes"/>
      <point x="552" y="-7"/>
      <point x="709" y="150"/>
      <point x="709" y="342" type="curve" smooth="yes"/>
      <point x="709" y="517"/>
      <point x="601" y="659"/>
      <point x="330" y="659" type="curve" smooth="yes"/>
      <point x="303" y="659"/>
      <point x="212" y="651"/>
      <point x="169" y="651" type="curve" smooth="yes"/>
      <point x="121" y="651"/>
      <point x="119" y="653"/>
      <point x="68" y="653" type="curve" smooth="yes"/>
      <point x="51" y="653"/>
      <point x="39" y="647"/>
      <point x="39" y="634" type="curve" smooth="yes"/>
      <point x="39" y="618"/>
      <point x="46" y="614"/>
      <point x="61" y="608" type="curve" smooth="yes"/>
      <point x="94" y="595"/>
      <point x="107" y="583"/>
      <point x="107" y="534" type="curve" smooth="yes"/>
      <point x="107" y="109" type="line" smooth="yes"/>
      <point x="107" y="64"/>
      <point x="95" y="48"/>
      <point x="61" y="39" type="curve" smooth="yes"/>
      <point x="45" y="35"/>
      <point x="39" y="32"/>
      <point x="39" y="15" type="curve" smooth="yes"/>
      <point x="39" y="0"/>
      <point x="51" y="-5"/>
      <point x="68" y="-5" type="curve" smooth="yes"/>
      <point x="121" y="-5"/>
      <point x="123" y="0"/>
      <point x="163" y="0" type="curve" smooth="yes"/>
      <point x="242" y="0"/>
      <point x="341" y="-7"/>
    </contour>
    <contour>
      <point x="352" y="60" type="curve" smooth="yes"/>
      <point x="311" y="60"/>
      <point x="291" y="88"/>
      <point x="291" y="143" type="curve" smooth="yes"/>
      <point x="291" y="542" type="line" smooth="yes"/>
      <point x="291" y="595"/>
      <point x="316" y="596"/>
      <point x="352" y="596" type="curve" smooth="yes"/>
      <point x="435" y="596"/>
      <point x="508" y="497"/>
      <point x="508" y="325" type="curve" smooth="yes"/>
      <point x="508" y="170"/>
      <point x="450" y="60"/>
    </contour>
  </outline>
</glyph>
<glyph name="E" format="1">
  <advance width="564"/>
  <unicode hex="0045"/>
  <outline>
    <contour>
      <point x="56" y="-5" type="curve" smooth="yes"/>
      <point x="110" y="-5"/>
      <point x="136" y="1"/>
      <point x="181" y="1" type="curve" smooth="yes"/>
      <point x="281" y="1"/>
      <point x="366" y="-5"/>
      <point x="494" y="-5" type="curve" smooth="yes"/>
      <point x="502" y="-5"/>
      <point x="504" y="3"/>
      <point x="508" y="12" type="curve" smooth="yes"/>
      <point x="520" y="39"/>
      <point x="540" y="112"/>
      <point x="540" y="152" type="curve" smooth="yes"/>
      <point x="540" y="162"/>
      <point x="534" y="171"/>
      <point x="522" y="172" type="curve" smooth="yes"/>
      <point x="511" y="173"/>
      <point x="502" y="164"/>
      <point x="498" y="153" type="curve" smooth="yes"/>
      <point x="490" y="130"/>
      <point x="477" y="109"/>
      <point x="458" y="94" type="curve" smooth="yes"/>
      <point x="438" y="78"/>
      <point x="414" y="65"/>
      <point x="376" y="65" type="curve" smooth="yes"/>
      <point x="360" y="65" type="line" smooth="yes"/>
      <point x="315" y="65"/>
      <point x="294" y="83"/>
      <point x="294" y="122" type="curve" smooth="yes"/>
      <point x="294" y="276" type="line" smooth="yes"/>
      <point x="294" y="299"/>
      <point x="305" y="302"/>
      <point x="328" y="302" type="curve" smooth="yes"/>
      <point x="347" y="302" type="line" smooth="yes"/>
      <point x="365" y="302"/>
      <point x="373" y="288"/>
      <point x="378" y="265" type="curve" smooth="yes"/>
      <point x="385" y="235"/>
      <point x="400" y="225"/>
      <point x="415" y="225" type="curve" smooth="yes"/>
      <point x="428" y="225"/>
      <point x="429" y="233"/>
      <point x="429" y="242" type="curve" smooth="yes"/>
      <point x="429" y="250"/>
      <point x="427" y="317"/>
      <point x="427" y="337" type="curve" smooth="yes"/>
      <point x="427" y="353"/>
      <point x="430" y="416"/>
      <point x="430" y="425" type="curve" smooth="yes"/>
      <point x="430" y="435"/>
      <point x="417" y="441"/>
      <point x="410" y="441" type="curve" smooth="yes"/>
      <point x="397" y="441"/>
      <point x="385" y="435"/>
      <point x="379" y="412" type="curve" smooth="yes"/>
      <point x="371" y="382"/>
      <point x="365" y="370"/>
      <point x="328" y="370" type="curve" smooth="yes"/>
      <point x="312" y="370" type="line" smooth="yes"/>
      <point x="302" y="370"/>
      <point x="294" y="380"/>
      <point x="294" y="392" type="curve" smooth="yes"/>
      <point x="294" y="550" type="line" smooth="yes"/>
      <point x="294" y="578"/>
      <point x="311" y="582"/>
      <point x="330" y="582" type="curve" smooth="yes"/>
      <point x="381" y="582" type="line" smooth="yes"/>
      <point x="406" y="582"/>
      <point x="427" y="576"/>
      <point x="442" y="555" type="curve" smooth="yes"/>
      <point x="449" y="545"/>
      <point x="459" y="522"/>
      <point x="468" y="500" type="curve" smooth="yes"/>
      <point x="471" y="493"/>
      <point x="475" y="486"/>
      <point x="485" y="486" type="curve" smooth="yes"/>
      <point x="494" y="486"/>
      <point x="505" y="493"/>
      <point x="505" y="505" type="curve" smooth="yes"/>
      <point x="505" y="532"/>
      <point x="497" y="606"/>
      <point x="490" y="644" type="curve"/>
      <point x="489" y="651"/>
      <point x="479" y="653"/>
      <point x="472" y="653" type="curve" smooth="yes"/>
      <point x="467" y="653"/>
      <point x="432" y="652"/>
      <point x="387" y="651" type="curve" smooth="yes"/>
      <point x="345" y="651"/>
      <point x="294" y="650"/>
      <point x="250" y="650" type="curve" smooth="yes"/>
      <point x="180" y="650"/>
      <point x="132" y="653"/>
      <point x="57" y="653" type="curve" smooth="yes"/>
      <point x="40" y="653"/>
      <point x="27" y="643"/>
      <point x="27" y="631" type="curve" smooth="yes"/>
      <point x="27" y="617"/>
      <point x="36" y="611"/>
      <point x="61" y="605" type="curve" smooth="yes"/>
      <point x="79" y="600"/>
      <point x="90" y="587"/>
      <point x="90" y="549" type="curve" smooth="yes"/>
      <point x="90" y="99" type="line" smooth="yes"/>
      <point x="90" y="60"/>
      <point x="80" y="45"/>
      <point x="60" y="42" type="curve" smooth="yes"/>
      <point x="36" y="39"/>
      <point x="27" y="27"/>
      <point x="27" y="13" type="curve" smooth="yes"/>
      <point x="27" y="0"/>
      <point x="39" y="-5"/>
    </contour>
  </outline>
</glyph>
<glyph name="F" format="1">
  <advance width="519"/>
  <unicode hex="0046"/>
  <outline>
    <contour>
      <point x="56" y="-5" type="curve" smooth="yes"/>
      <point x="110" y="-5"/>
      <point x="143" y="2"/>
      <point x="192" y="2" type="curve" smooth="yes"/>
      <point x="230" y="2"/>
      <point x="313" y="-5"/>
      <point x="367" y="-5" type="curve" smooth="yes"/>
      <point x="384" y="-5"/>
      <point x="396" y="0"/>
      <point x="396" y="12" type="curve" smooth="yes"/>
      <point x="396" y="26"/>
      <point x="387" y="35"/>
      <point x="363" y="40" type="curve" smooth="yes"/>
      <point x="315" y="49"/>
      <point x="299" y="68"/>
      <point x="297" y="108" type="curve" smooth="yes"/>
      <point x="294" y="167"/>
      <point x="294" y="215"/>
      <point x="294" y="276" type="curve" smooth="yes"/>
      <point x="294" y="293"/>
      <point x="301" y="299"/>
      <point x="311" y="301" type="curve" smooth="yes"/>
      <point x="317" y="302"/>
      <point x="321" y="303"/>
      <point x="327" y="303" type="curve" smooth="yes"/>
      <point x="333" y="303"/>
      <point x="338" y="303"/>
      <point x="343" y="302" type="curve" smooth="yes"/>
      <point x="355" y="299"/>
      <point x="372" y="293"/>
      <point x="379" y="262" type="curve" smooth="yes"/>
      <point x="385" y="241"/>
      <point x="399" y="225"/>
      <point x="420" y="225" type="curve" smooth="yes"/>
      <point x="433" y="225"/>
      <point x="435" y="238"/>
      <point x="435" y="252" type="curve" smooth="yes"/>
      <point x="433" y="281"/>
      <point x="432" y="320"/>
      <point x="432" y="340" type="curve" smooth="yes"/>
      <point x="432" y="356"/>
      <point x="432" y="390"/>
      <point x="435" y="413" type="curve" smooth="yes"/>
      <point x="437" y="429"/>
      <point x="424" y="441"/>
      <point x="411" y="441" type="curve" smooth="yes"/>
      <point x="397" y="441"/>
      <point x="384" y="428"/>
      <point x="378" y="412" type="curve" smooth="yes"/>
      <point x="370" y="391"/>
      <point x="354" y="371"/>
      <point x="338" y="371" type="curve" smooth="yes"/>
      <point x="328" y="371"/>
      <point x="315" y="370"/>
      <point x="302" y="370" type="curve" smooth="yes"/>
      <point x="295" y="370"/>
      <point x="294" y="381"/>
      <point x="294" y="392" type="curve"/>
      <point x="293" y="416"/>
      <point x="293" y="433"/>
      <point x="293" y="467" type="curve" smooth="yes"/>
      <point x="293" y="502"/>
      <point x="293" y="507"/>
      <point x="294" y="532" type="curve" smooth="yes"/>
      <point x="295" y="558"/>
      <point x="297" y="582"/>
      <point x="328" y="582" type="curve" smooth="yes"/>
      <point x="378" y="582" type="line" smooth="yes"/>
      <point x="403" y="582"/>
      <point x="427" y="576"/>
      <point x="443" y="553" type="curve" smooth="yes"/>
      <point x="451" y="542"/>
      <point x="455" y="532"/>
      <point x="464" y="495" type="curve" smooth="yes"/>
      <point x="467" y="483"/>
      <point x="477" y="476"/>
      <point x="489" y="476" type="curve" smooth="yes"/>
      <point x="499" y="476"/>
      <point x="504" y="486"/>
      <point x="504" y="506" type="curve" smooth="yes"/>
      <point x="504" y="529"/>
      <point x="490" y="628"/>
      <point x="487" y="651" type="curve" smooth="yes"/>
      <point x="486" y="658"/>
      <point x="476" y="660"/>
      <point x="469" y="660" type="curve" smooth="yes"/>
      <point x="445" y="660"/>
      <point x="413" y="650"/>
      <point x="370" y="650" type="curve"/>
      <point x="329" y="650"/>
      <point x="360" y="650"/>
      <point x="321" y="650" type="curve" smooth="yes"/>
      <point x="252" y="650"/>
      <point x="129" y="653"/>
      <point x="56" y="653" type="curve" smooth="yes"/>
      <point x="39" y="653"/>
      <point x="27" y="648"/>
      <point x="27" y="636" type="curve" smooth="yes"/>
      <point x="27" y="624"/>
      <point x="31" y="616"/>
      <point x="48" y="609" type="curve" smooth="yes"/>
      <point x="77" y="599"/>
      <point x="90" y="592"/>
      <point x="90" y="542" type="curve" smooth="yes"/>
      <point x="90" y="102" type="line" smooth="yes"/>
      <point x="90" y="56"/>
      <point x="79" y="48"/>
      <point x="49" y="39" type="curve" smooth="yes"/>
      <point x="33" y="34"/>
      <point x="27" y="28"/>
      <point x="27" y="14" type="curve" smooth="yes"/>
      <point x="27" y="0"/>
      <point x="39" y="-5"/>
    </contour>
  </outline>
</glyph>
<glyph name="G" format="1">
  <advance width="729"/>
  <unicode hex="0047"/>
  <outline>
    <contour>
      <point x="395" y="-14" type="curve" smooth="yes"/>
      <point x="521" y="-14"/>
      <point x="638" y="50"/>
      <point x="657" y="53" type="curve" smooth="yes"/>
      <point x="671" y="55"/>
      <point x="671" y="67"/>
      <point x="671" y="72" type="curve" smooth="yes"/>
      <point x="671" y="77"/>
      <point x="662" y="82"/>
      <point x="658" y="89" type="curve"/>
      <point x="655" y="95"/>
      <point x="652" y="98"/>
      <point x="652" y="105" type="curve" smooth="yes"/>
      <point x="652" y="132" type="line" smooth="yes"/>
      <point x="652" y="157"/>
      <point x="652" y="180"/>
      <point x="656" y="209" type="curve" smooth="yes"/>
      <point x="660" y="236"/>
      <point x="664" y="241"/>
      <point x="693" y="252" type="curve" smooth="yes"/>
      <point x="709" y="258"/>
      <point x="716" y="264"/>
      <point x="716" y="274" type="curve" smooth="yes"/>
      <point x="716" y="287"/>
      <point x="705" y="295"/>
      <point x="695" y="295" type="curve" smooth="yes"/>
      <point x="659" y="295"/>
      <point x="618" y="291"/>
      <point x="583" y="291" type="curve" smooth="yes"/>
      <point x="528" y="291"/>
      <point x="461" y="295"/>
      <point x="429" y="295" type="curve" smooth="yes"/>
      <point x="416" y="295"/>
      <point x="406" y="286"/>
      <point x="406" y="273" type="curve" smooth="yes"/>
      <point x="406" y="260"/>
      <point x="415" y="251"/>
      <point x="426" y="250" type="curve" smooth="yes"/>
      <point x="438" y="249"/>
      <point x="454" y="242"/>
      <point x="462" y="223" type="curve" smooth="yes"/>
      <point x="464" y="218"/>
      <point x="464" y="207"/>
      <point x="464" y="193" type="curve" smooth="yes"/>
      <point x="464" y="183"/>
      <point x="464" y="169"/>
      <point x="464" y="160" type="curve" smooth="yes"/>
      <point x="464" y="125"/>
      <point x="457" y="98"/>
      <point x="451" y="83" type="curve" smooth="yes"/>
      <point x="445" y="69"/>
      <point x="423" y="48"/>
      <point x="391" y="48" type="curve" smooth="yes"/>
      <point x="315" y="48"/>
      <point x="247" y="132"/>
      <point x="247" y="324" type="curve" smooth="yes"/>
      <point x="247" y="482"/>
      <point x="308" y="601"/>
      <point x="426" y="601" type="curve" smooth="yes"/>
      <point x="496" y="601"/>
      <point x="534" y="565"/>
      <point x="547" y="549" type="curve" smooth="yes"/>
      <point x="570" y="523"/>
      <point x="585" y="490"/>
      <point x="592" y="461" type="curve" smooth="yes"/>
      <point x="597" y="439"/>
      <point x="604" y="422"/>
      <point x="620" y="422" type="curve" smooth="yes"/>
      <point x="639" y="422"/>
      <point x="646" y="435"/>
      <point x="646" y="450" type="curve" smooth="yes"/>
      <point x="646" y="476"/>
      <point x="639" y="577"/>
      <point x="634" y="616" type="curve" smooth="yes"/>
      <point x="633" y="623"/>
      <point x="631" y="625"/>
      <point x="625" y="628" type="curve" smooth="yes"/>
      <point x="598" y="641"/>
      <point x="509" y="663"/>
      <point x="447" y="663" type="curve" smooth="yes"/>
      <point x="220" y="663"/>
      <point x="43" y="517"/>
      <point x="43" y="311" type="curve" smooth="yes"/>
      <point x="43" y="126"/>
      <point x="207" y="-14"/>
    </contour>
  </outline>
</glyph>
<glyph name="H" format="1">
  <advance width="810"/>
  <unicode hex="0048"/>
  <outline>
    <contour>
      <point x="77" y="-6" type="curve" smooth="yes"/>
      <point x="145" y="-6"/>
      <point x="147" y="0"/>
      <point x="198" y="0" type="curve" smooth="yes"/>
      <point x="251" y="0"/>
      <point x="255" y="-6"/>
      <point x="323" y="-6" type="curve" smooth="yes"/>
      <point x="349" y="-6"/>
      <point x="361" y="4"/>
      <point x="361" y="20" type="curve" smooth="yes"/>
      <point x="361" y="29"/>
      <point x="354" y="34"/>
      <point x="333" y="39" type="curve" smooth="yes"/>
      <point x="293" y="48"/>
      <point x="291" y="66"/>
      <point x="291" y="115" type="curve" smooth="yes"/>
      <point x="291" y="281" type="line" smooth="yes"/>
      <point x="291" y="289"/>
      <point x="291" y="292"/>
      <point x="296" y="292" type="curve" smooth="yes"/>
      <point x="514" y="292" type="line" smooth="yes"/>
      <point x="519" y="292"/>
      <point x="519" y="289"/>
      <point x="519" y="281" type="curve" smooth="yes"/>
      <point x="519" y="115" type="line" smooth="yes"/>
      <point x="519" y="66"/>
      <point x="517" y="48"/>
      <point x="477" y="39" type="curve" smooth="yes"/>
      <point x="456" y="34"/>
      <point x="449" y="29"/>
      <point x="449" y="20" type="curve" smooth="yes"/>
      <point x="449" y="4"/>
      <point x="461" y="-6"/>
      <point x="487" y="-6" type="curve" smooth="yes"/>
      <point x="555" y="-6"/>
      <point x="559" y="0"/>
      <point x="612" y="0" type="curve" smooth="yes"/>
      <point x="663" y="0"/>
      <point x="665" y="-6"/>
      <point x="733" y="-6" type="curve" smooth="yes"/>
      <point x="759" y="-6"/>
      <point x="773" y="4"/>
      <point x="773" y="16" type="curve" smooth="yes"/>
      <point x="773" y="30"/>
      <point x="764" y="35"/>
      <point x="745" y="39" type="curve" smooth="yes"/>
      <point x="705" y="47"/>
      <point x="703" y="66"/>
      <point x="703" y="115" type="curve" smooth="yes"/>
      <point x="703" y="532" type="line" smooth="yes"/>
      <point x="703" y="581"/>
      <point x="705" y="600"/>
      <point x="745" y="608" type="curve" smooth="yes"/>
      <point x="764" y="612"/>
      <point x="773" y="617"/>
      <point x="773" y="631" type="curve" smooth="yes"/>
      <point x="773" y="643"/>
      <point x="759" y="653"/>
      <point x="733" y="653" type="curve" smooth="yes"/>
      <point x="665" y="653"/>
      <point x="663" y="647"/>
      <point x="612" y="647" type="curve" smooth="yes"/>
      <point x="559" y="647"/>
      <point x="555" y="653"/>
      <point x="487" y="653" type="curve" smooth="yes"/>
      <point x="461" y="653"/>
      <point x="449" y="643"/>
      <point x="449" y="627" type="curve" smooth="yes"/>
      <point x="449" y="618"/>
      <point x="456" y="613"/>
      <point x="477" y="608" type="curve" smooth="yes"/>
      <point x="517" y="599"/>
      <point x="519" y="581"/>
      <point x="519" y="532" type="curve" smooth="yes"/>
      <point x="519" y="369" type="line" smooth="yes"/>
      <point x="519" y="361"/>
      <point x="511" y="360"/>
      <point x="505" y="360" type="curve" smooth="yes"/>
      <point x="305" y="360" type="line" smooth="yes"/>
      <point x="299" y="360"/>
      <point x="291" y="361"/>
      <point x="291" y="369" type="curve" smooth="yes"/>
      <point x="291" y="532" type="line" smooth="yes"/>
      <point x="291" y="581"/>
      <point x="293" y="599"/>
      <point x="333" y="608" type="curve" smooth="yes"/>
      <point x="354" y="613"/>
      <point x="361" y="618"/>
      <point x="361" y="627" type="curve" smooth="yes"/>
      <point x="361" y="643"/>
      <point x="349" y="653"/>
      <point x="323" y="653" type="curve" smooth="yes"/>
      <point x="255" y="653"/>
      <point x="251" y="647"/>
      <point x="198" y="647" type="curve" smooth="yes"/>
      <point x="147" y="647"/>
      <point x="145" y="653"/>
      <point x="77" y="653" type="curve" smooth="yes"/>
      <point x="51" y="653"/>
      <point x="37" y="643"/>
      <point x="37" y="631" type="curve" smooth="yes"/>
      <point x="37" y="617"/>
      <point x="46" y="612"/>
      <point x="65" y="608" type="curve" smooth="yes"/>
      <point x="105" y="600"/>
      <point x="107" y="581"/>
      <point x="107" y="532" type="curve" smooth="yes"/>
      <point x="107" y="115" type="line" smooth="yes"/>
      <point x="107" y="66"/>
      <point x="105" y="47"/>
      <point x="65" y="39" type="curve" smooth="yes"/>
      <point x="46" y="35"/>
      <point x="37" y="30"/>
      <point x="37" y="16" type="curve" smooth="yes"/>
      <point x="37" y="4"/>
      <point x="51" y="-6"/>
    </contour>
  </outline>
</glyph>
<glyph name="I" format="1">
  <advance width="340"/>
  <unicode hex="0049"/>
  <outline>
    <contour>
      <point x="53" y="-6" type="curve" smooth="yes"/>
      <point x="118" y="-6"/>
      <point x="120" y="0"/>
      <point x="171" y="0" type="curve" smooth="yes"/>
      <point x="224" y="0"/>
      <point x="228" y="-6"/>
      <point x="291" y="-6" type="curve" smooth="yes"/>
      <point x="313" y="-6"/>
      <point x="323" y="4"/>
      <point x="323" y="20" type="curve" smooth="yes"/>
      <point x="323" y="29"/>
      <point x="317" y="34"/>
      <point x="299" y="39" type="curve" smooth="yes"/>
      <point x="266" y="48"/>
      <point x="264" y="66"/>
      <point x="264" y="115" type="curve" smooth="yes"/>
      <point x="264" y="532" type="line" smooth="yes"/>
      <point x="264" y="581"/>
      <point x="266" y="599"/>
      <point x="299" y="608" type="curve" smooth="yes"/>
      <point x="317" y="613"/>
      <point x="323" y="618"/>
      <point x="323" y="627" type="curve" smooth="yes"/>
      <point x="323" y="643"/>
      <point x="313" y="653"/>
      <point x="291" y="653" type="curve" smooth="yes"/>
      <point x="228" y="653"/>
      <point x="224" y="647"/>
      <point x="171" y="647" type="curve" smooth="yes"/>
      <point x="120" y="647"/>
      <point x="118" y="653"/>
      <point x="53" y="653" type="curve" smooth="yes"/>
      <point x="29" y="653"/>
      <point x="17" y="643"/>
      <point x="17" y="631" type="curve" smooth="yes"/>
      <point x="17" y="617"/>
      <point x="25" y="612"/>
      <point x="42" y="608" type="curve" smooth="yes"/>
      <point x="78" y="600"/>
      <point x="80" y="581"/>
      <point x="80" y="532" type="curve" smooth="yes"/>
      <point x="80" y="115" type="line" smooth="yes"/>
      <point x="80" y="66"/>
      <point x="78" y="47"/>
      <point x="42" y="39" type="curve" smooth="yes"/>
      <point x="25" y="35"/>
      <point x="17" y="30"/>
      <point x="17" y="16" type="curve" smooth="yes"/>
      <point x="17" y="4"/>
      <point x="29" y="-6"/>
    </contour>
  </outline>
</glyph>
<glyph name="J" format="1">
  <advance width="340"/>
  <unicode hex="004A"/>
  <outline>
    <contour>
      <point x="32" y="-201" type="curve" smooth="yes"/>
      <point x="86" y="-201"/>
      <point x="127" y="-173"/>
      <point x="165" y="-132" type="curve" smooth="yes"/>
      <point x="209" y="-83"/>
      <point x="264" y="8"/>
      <point x="264" y="115" type="curve" smooth="yes"/>
      <point x="264" y="532" type="line" smooth="yes"/>
      <point x="264" y="581"/>
      <point x="266" y="599"/>
      <point x="299" y="608" type="curve" smooth="yes"/>
      <point x="317" y="613"/>
      <point x="323" y="618"/>
      <point x="323" y="627" type="curve" smooth="yes"/>
      <point x="323" y="643"/>
      <point x="313" y="653"/>
      <point x="291" y="653" type="curve" smooth="yes"/>
      <point x="228" y="653"/>
      <point x="224" y="647"/>
      <point x="171" y="647" type="curve" smooth="yes"/>
      <point x="120" y="647"/>
      <point x="118" y="653"/>
      <point x="53" y="653" type="curve" smooth="yes"/>
      <point x="29" y="653"/>
      <point x="17" y="643"/>
      <point x="17" y="631" type="curve" smooth="yes"/>
      <point x="17" y="617"/>
      <point x="25" y="612"/>
      <point x="42" y="608" type="curve" smooth="yes"/>
      <point x="78" y="600"/>
      <point x="80" y="581"/>
      <point x="80" y="532" type="curve" smooth="yes"/>
      <point x="80" y="13" type="line" smooth="yes"/>
      <point x="80" y="-84"/>
      <point x="58" y="-145"/>
      <point x="30" y="-145" type="curve" smooth="yes"/>
      <point x="16" y="-145"/>
      <point x="5" y="-134"/>
      <point x="-9" y="-110" type="curve" smooth="yes"/>
      <point x="-26" y="-79"/>
      <point x="-41" y="-69"/>
      <point x="-64" y="-69" type="curve" smooth="yes"/>
      <point x="-88" y="-69"/>
      <point x="-109" y="-100"/>
      <point x="-109" y="-134" type="curve" smooth="yes"/>
      <point x="-109" y="-176"/>
      <point x="-55" y="-201"/>
    </contour>
  </outline>
</glyph>
<glyph name="K" format="1">
  <advance width="681"/>
  <unicode hex="004B"/>
  <outline>
    <contour>
      <point x="48" y="-5" type="curve" smooth="yes"/>
      <point x="112" y="-5"/>
      <point x="149" y="2"/>
      <point x="198" y="2" type="curve" smooth="yes"/>
      <point x="236" y="2"/>
      <point x="268" y="-5"/>
      <point x="330" y="-5" type="curve" smooth="yes"/>
      <point x="342" y="-5"/>
      <point x="351" y="0"/>
      <point x="351" y="13" type="curve" smooth="yes"/>
      <point x="351" y="27"/>
      <point x="344" y="35"/>
      <point x="327" y="41" type="curve" smooth="yes"/>
      <point x="292" y="53"/>
      <point x="282" y="93"/>
      <point x="282" y="144" type="curve" smooth="yes"/>
      <point x="282" y="153"/>
      <point x="278" y="185"/>
      <point x="278" y="248" type="curve" smooth="yes"/>
      <point x="278" y="259"/>
      <point x="281" y="271"/>
      <point x="290" y="271" type="curve" smooth="yes"/>
      <point x="306" y="271"/>
      <point x="313" y="267"/>
      <point x="327" y="244" type="curve" smooth="yes"/>
      <point x="426" y="83" type="line" smooth="yes"/>
      <point x="431" y="74"/>
      <point x="436" y="67"/>
      <point x="436" y="59" type="curve" smooth="yes"/>
      <point x="436" y="52"/>
      <point x="431" y="45"/>
      <point x="421" y="40" type="curve" smooth="yes"/>
      <point x="415" y="37"/>
      <point x="410" y="28"/>
      <point x="410" y="19" type="curve" smooth="yes"/>
      <point x="410" y="7"/>
      <point x="424" y="-1"/>
      <point x="441" y="-1" type="curve" smooth="yes"/>
      <point x="486" y="-1"/>
      <point x="487" y="0"/>
      <point x="512" y="0" type="curve" smooth="yes"/>
      <point x="567" y="0"/>
      <point x="632" y="-5"/>
      <point x="691" y="-5" type="curve" smooth="yes"/>
      <point x="708" y="-5"/>
      <point x="720" y="0"/>
      <point x="720" y="13" type="curve" smooth="yes"/>
      <point x="720" y="28"/>
      <point x="715" y="31"/>
      <point x="697" y="43" type="curve" smooth="yes"/>
      <point x="682" y="53"/>
      <point x="673" y="59"/>
      <point x="657" y="80" type="curve" smooth="yes"/>
      <point x="414" y="414" type="line" smooth="yes"/>
      <point x="408" y="422"/>
      <point x="409" y="434"/>
      <point x="418" y="443" type="curve"/>
      <point x="429" y="456"/>
      <point x="468" y="494"/>
      <point x="519" y="542" type="curve" smooth="yes"/>
      <point x="563" y="583"/>
      <point x="600" y="597"/>
      <point x="654" y="606" type="curve" smooth="yes"/>
      <point x="678" y="610"/>
      <point x="687" y="623"/>
      <point x="687" y="638" type="curve" smooth="yes"/>
      <point x="687" y="649"/>
      <point x="678" y="655"/>
      <point x="665" y="655" type="curve" smooth="yes"/>
      <point x="652" y="655"/>
      <point x="560" y="651"/>
      <point x="503" y="651" type="curve" smooth="yes"/>
      <point x="449" y="651" type="line" smooth="yes"/>
      <point x="432" y="651"/>
      <point x="420" y="647"/>
      <point x="420" y="635" type="curve" smooth="yes"/>
      <point x="420" y="622"/>
      <point x="428" y="615"/>
      <point x="451" y="606" type="curve"/>
      <point x="460" y="604"/>
      <point x="465" y="597"/>
      <point x="465" y="589" type="curve" smooth="yes"/>
      <point x="465" y="583"/>
      <point x="461" y="575"/>
      <point x="454" y="567" type="curve" smooth="yes"/>
      <point x="321" y="429" type="line"/>
      <point x="314" y="421"/>
      <point x="291" y="401"/>
      <point x="284" y="401" type="curve" smooth="yes"/>
      <point x="280" y="401"/>
      <point x="278" y="415"/>
      <point x="278" y="420" type="curve" smooth="yes"/>
      <point x="278" y="522" type="line" smooth="yes"/>
      <point x="278" y="567"/>
      <point x="281" y="593"/>
      <point x="317" y="606" type="curve" smooth="yes"/>
      <point x="333" y="612"/>
      <point x="340" y="623"/>
      <point x="340" y="636" type="curve" smooth="yes"/>
      <point x="340" y="648"/>
      <point x="332" y="653"/>
      <point x="320" y="653" type="curve" smooth="yes"/>
      <point x="253" y="653"/>
      <point x="224" y="647"/>
      <point x="186" y="647" type="curve" smooth="yes"/>
      <point x="142" y="647"/>
      <point x="112" y="653"/>
      <point x="48" y="653" type="curve" smooth="yes"/>
      <point x="37" y="653"/>
      <point x="29" y="648"/>
      <point x="29" y="636" type="curve" smooth="yes"/>
      <point x="29" y="623"/>
      <point x="36" y="612"/>
      <point x="51" y="606" type="curve" smooth="yes"/>
      <point x="84" y="593"/>
      <point x="95" y="574"/>
      <point x="95" y="522" type="curve" smooth="yes"/>
      <point x="95" y="134" type="line" smooth="yes"/>
      <point x="95" y="74"/>
      <point x="84" y="52"/>
      <point x="51" y="41" type="curve" smooth="yes"/>
      <point x="36" y="36"/>
      <point x="29" y="27"/>
      <point x="29" y="13" type="curve" smooth="yes"/>
      <point x="29" y="0"/>
      <point x="37" y="-5"/>
    </contour>
  </outline>
</glyph>
<glyph name="L" format="1">
  <advance width="594"/>
  <unicode hex="004C"/>
  <outline>
    <contour>
      <point x="65" y="-5" type="curve"/>
      <point x="65" y="-5"/>
      <point x="150" y="0"/>
      <point x="200" y="0" type="curve" smooth="yes"/>
      <point x="300" y="0"/>
      <point x="409" y="-5"/>
      <point x="543" y="-5" type="curve" smooth="yes"/>
      <point x="553" y="-5"/>
      <point x="556" y="3"/>
      <point x="557" y="12" type="curve" smooth="yes"/>
      <point x="561" y="54"/>
      <point x="569" y="92"/>
      <point x="583" y="144" type="curve"/>
      <point x="583" y="146"/>
      <point x="585" y="149"/>
      <point x="585" y="153" type="curve" smooth="yes"/>
      <point x="585" y="166"/>
      <point x="578" y="184"/>
      <point x="564" y="184" type="curve" smooth="yes"/>
      <point x="550" y="184"/>
      <point x="537" y="167"/>
      <point x="529" y="148" type="curve" smooth="yes"/>
      <point x="518" y="123"/>
      <point x="504" y="99"/>
      <point x="481" y="83" type="curve" smooth="yes"/>
      <point x="470" y="75"/>
      <point x="444" y="65"/>
      <point x="412" y="65" type="curve" smooth="yes"/>
      <point x="353" y="65" type="line" smooth="yes"/>
      <point x="292" y="65"/>
      <point x="281" y="82"/>
      <point x="281" y="116" type="curve" smooth="yes"/>
      <point x="281" y="537" type="line" smooth="yes"/>
      <point x="281" y="577"/>
      <point x="296" y="601"/>
      <point x="355" y="608" type="curve" smooth="yes"/>
      <point x="379" y="611"/>
      <point x="388" y="624"/>
      <point x="388" y="637" type="curve" smooth="yes"/>
      <point x="388" y="649"/>
      <point x="376" y="653"/>
      <point x="359" y="653" type="curve" smooth="yes"/>
      <point x="305" y="653"/>
      <point x="236" y="650"/>
      <point x="187" y="650" type="curve" smooth="yes"/>
      <point x="143" y="650"/>
      <point x="120" y="653"/>
      <point x="66" y="653" type="curve" smooth="yes"/>
      <point x="49" y="653"/>
      <point x="37" y="646"/>
      <point x="37" y="634" type="curve" smooth="yes"/>
      <point x="37" y="621"/>
      <point x="43" y="613"/>
      <point x="58" y="608" type="curve" smooth="yes"/>
      <point x="92" y="597"/>
      <point x="101" y="590"/>
      <point x="101" y="548" type="curve" smooth="yes"/>
      <point x="101" y="96" type="line" smooth="yes"/>
      <point x="101" y="59"/>
      <point x="84" y="50"/>
      <point x="63" y="42" type="curve" smooth="yes"/>
      <point x="43" y="34"/>
      <point x="37" y="31"/>
      <point x="37" y="13" type="curve" smooth="yes"/>
      <point x="37" y="3"/>
      <point x="47" y="-5"/>
    </contour>
  </outline>
</glyph>
<glyph name="M" format="1">
  <advance width="901"/>
  <unicode hex="004D"/>
  <outline>
    <contour>
      <point x="45" y="-5" type="curve" smooth="yes"/>
      <point x="99" y="-5"/>
      <point x="103" y="0"/>
      <point x="139" y="0" type="curve" smooth="yes"/>
      <point x="176" y="0"/>
      <point x="185" y="-5"/>
      <point x="239" y="-5" type="curve" smooth="yes"/>
      <point x="252" y="-5"/>
      <point x="262" y="0"/>
      <point x="262" y="12" type="curve" smooth="yes"/>
      <point x="262" y="26"/>
      <point x="254" y="35"/>
      <point x="235" y="40" type="curve" smooth="yes"/>
      <point x="202" y="53"/>
      <point x="177" y="85"/>
      <point x="180" y="142" type="curve" smooth="yes"/>
      <point x="185" y="249"/>
      <point x="194" y="315"/>
      <point x="203" y="426" type="curve" smooth="yes"/>
      <point x="203" y="432"/>
      <point x="214" y="432"/>
      <point x="216" y="426" type="curve" smooth="yes"/>
      <point x="280" y="260"/>
      <point x="325" y="152"/>
      <point x="393" y="-4" type="curve" smooth="yes"/>
      <point x="397" y="-13"/>
      <point x="418" y="-12"/>
      <point x="421" y="-5" type="curve" smooth="yes"/>
      <point x="581" y="435" type="line" smooth="yes"/>
      <point x="586" y="448"/>
      <point x="596" y="449"/>
      <point x="597" y="435" type="curve" smooth="yes"/>
      <point x="602" y="310"/>
      <point x="604" y="229"/>
      <point x="604" y="96" type="curve" smooth="yes"/>
      <point x="604" y="60"/>
      <point x="597" y="45"/>
      <point x="575" y="41" type="curve" smooth="yes"/>
      <point x="552" y="36"/>
      <point x="542" y="27"/>
      <point x="542" y="12" type="curve" smooth="yes"/>
      <point x="542" y="0"/>
      <point x="554" y="-5"/>
      <point x="571" y="-5" type="curve" smooth="yes"/>
      <point x="634" y="-5"/>
      <point x="646" y="0"/>
      <point x="694" y="0" type="curve" smooth="yes"/>
      <point x="748" y="0"/>
      <point x="768" y="-5"/>
      <point x="831" y="-5" type="curve" smooth="yes"/>
      <point x="851" y="-5"/>
      <point x="865" y="2"/>
      <point x="865" y="14" type="curve" smooth="yes"/>
      <point x="865" y="27"/>
      <point x="858" y="34"/>
      <point x="842" y="39" type="curve" smooth="yes"/>
      <point x="821" y="45"/>
      <point x="812" y="62"/>
      <point x="811" y="95" type="curve" smooth="yes"/>
      <point x="803" y="246"/>
      <point x="789" y="382"/>
      <point x="789" y="568" type="curve" smooth="yes"/>
      <point x="789" y="579"/>
      <point x="794" y="588"/>
      <point x="801" y="593" type="curve" smooth="yes"/>
      <point x="810" y="598"/>
      <point x="822" y="604"/>
      <point x="831" y="609" type="curve" smooth="yes"/>
      <point x="851" y="621"/>
      <point x="857" y="627"/>
      <point x="857" y="641" type="curve" smooth="yes"/>
      <point x="857" y="655"/>
      <point x="836" y="656"/>
      <point x="827" y="656" type="curve" smooth="yes"/>
      <point x="795" y="656"/>
      <point x="704" y="648"/>
      <point x="647" y="648" type="curve" smooth="yes"/>
      <point x="596" y="648" type="line" smooth="yes"/>
      <point x="589" y="648"/>
      <point x="584" y="643"/>
      <point x="582" y="635" type="curve" smooth="yes"/>
      <point x="576" y="614"/>
      <point x="565" y="582"/>
      <point x="556" y="560" type="curve"/>
      <point x="473" y="332" type="line" smooth="yes"/>
      <point x="469" y="322"/>
      <point x="466" y="320"/>
      <point x="462" y="330" type="curve" smooth="yes"/>
      <point x="372" y="554" type="line" smooth="yes"/>
      <point x="362" y="579"/>
      <point x="357" y="607"/>
      <point x="350" y="631" type="curve" smooth="yes"/>
      <point x="347" y="641"/>
      <point x="340" y="647"/>
      <point x="331" y="647" type="curve" smooth="yes"/>
      <point x="305" y="647"/>
      <point x="102" y="655"/>
      <point x="76" y="655" type="curve" smooth="yes"/>
      <point x="56" y="655"/>
      <point x="42" y="654"/>
      <point x="42" y="639" type="curve" smooth="yes"/>
      <point x="42" y="626"/>
      <point x="50" y="614"/>
      <point x="61" y="609" type="curve" smooth="yes"/>
      <point x="87" y="601"/>
      <point x="105" y="595"/>
      <point x="126" y="565" type="curve" smooth="yes"/>
      <point x="137" y="549"/>
      <point x="138" y="533"/>
      <point x="139" y="517" type="curve" smooth="yes"/>
      <point x="140" y="502"/>
      <point x="140" y="483"/>
      <point x="140" y="469" type="curve" smooth="yes"/>
      <point x="140" y="444"/>
      <point x="129" y="299"/>
      <point x="110" y="119" type="curve" smooth="yes"/>
      <point x="105" y="72"/>
      <point x="82" y="47"/>
      <point x="49" y="41" type="curve" smooth="yes"/>
      <point x="28" y="35"/>
      <point x="19" y="27"/>
      <point x="19" y="13" type="curve" smooth="yes"/>
      <point x="19" y="0"/>
      <point x="30" y="-5"/>
    </contour>
  </outline>
</glyph>
<glyph name="N" format="1">
  <advance width="792"/>
  <unicode hex="004E"/>
  <outline>
    <contour>
      <point x="664" y="-17" type="curve" smooth="yes"/>
      <point x="676" y="-17"/>
      <point x="689" y="-13"/>
      <point x="689" y="8" type="curve" smooth="yes"/>
      <point x="689" y="21"/>
      <point x="684" y="57"/>
      <point x="684" y="105" type="curve" smooth="yes"/>
      <point x="684" y="263"/>
      <point x="685" y="550"/>
      <point x="685" y="532" type="curve"/>
      <point x="685" y="581"/>
      <point x="689" y="599"/>
      <point x="742" y="608" type="curve" smooth="yes"/>
      <point x="772" y="613"/>
      <point x="782" y="618"/>
      <point x="782" y="627" type="curve" smooth="yes"/>
      <point x="782" y="643"/>
      <point x="774" y="653"/>
      <point x="756" y="653" type="curve" smooth="yes"/>
      <point x="704" y="653"/>
      <point x="692" y="647"/>
      <point x="648" y="647" type="curve" smooth="yes"/>
      <point x="606" y="647"/>
      <point x="596" y="653"/>
      <point x="543" y="653" type="curve" smooth="yes"/>
      <point x="523" y="653"/>
      <point x="513" y="643"/>
      <point x="513" y="631" type="curve" smooth="yes"/>
      <point x="513" y="617"/>
      <point x="527" y="612"/>
      <point x="555" y="608" type="curve" smooth="yes"/>
      <point x="613" y="600"/>
      <point x="617" y="581"/>
      <point x="617" y="532" type="curve" smooth="yes"/>
      <point x="617" y="381"/>
      <point x="615" y="319"/>
      <point x="615" y="281" type="curve" smooth="yes"/>
      <point x="615" y="266"/>
      <point x="610" y="260"/>
      <point x="605" y="260" type="curve" smooth="yes"/>
      <point x="597" y="260"/>
      <point x="585" y="274"/>
      <point x="580" y="280" type="curve" smooth="yes"/>
      <point x="560" y="304"/>
      <point x="292" y="609"/>
      <point x="273" y="636" type="curve"/>
      <point x="266" y="645"/>
      <point x="261" y="653"/>
      <point x="249" y="653" type="curve" smooth="yes"/>
      <point x="177" y="653"/>
      <point x="113" y="656"/>
      <point x="42" y="658" type="curve" smooth="yes"/>
      <point x="33" y="658"/>
      <point x="12" y="657"/>
      <point x="12" y="636" type="curve" smooth="yes"/>
      <point x="12" y="613"/>
      <point x="19" y="607"/>
      <point x="54" y="582" type="curve" smooth="yes"/>
      <point x="99" y="551"/>
      <point x="130" y="538"/>
      <point x="130" y="481" type="curve" smooth="yes"/>
      <point x="130" y="447"/>
      <point x="118" y="209"/>
      <point x="118" y="144" type="curve" smooth="yes"/>
      <point x="118" y="80"/>
      <point x="108" y="55"/>
      <point x="56" y="46" type="curve" smooth="yes"/>
      <point x="28" y="41"/>
      <point x="14" y="34"/>
      <point x="14" y="16" type="curve" smooth="yes"/>
      <point x="14" y="4"/>
      <point x="24" y="-6"/>
      <point x="44" y="-6" type="curve" smooth="yes"/>
      <point x="97" y="-6"/>
      <point x="107" y="0"/>
      <point x="149" y="0" type="curve" smooth="yes"/>
      <point x="193" y="0"/>
      <point x="205" y="-6"/>
      <point x="257" y="-6" type="curve" smooth="yes"/>
      <point x="275" y="-6"/>
      <point x="283" y="4"/>
      <point x="283" y="21" type="curve" smooth="yes"/>
      <point x="283" y="33"/>
      <point x="273" y="39"/>
      <point x="243" y="46" type="curve" smooth="yes"/>
      <point x="201" y="55"/>
      <point x="186" y="74"/>
      <point x="186" y="144" type="curve" smooth="yes"/>
      <point x="186" y="129"/>
      <point x="193" y="309"/>
      <point x="193" y="407" type="curve" smooth="yes"/>
      <point x="193" y="415"/>
      <point x="195" y="428"/>
      <point x="202" y="428" type="curve" smooth="yes"/>
      <point x="207" y="428"/>
      <point x="213" y="424"/>
      <point x="223" y="412" type="curve" smooth="yes"/>
      <point x="245" y="385"/>
      <point x="545" y="66"/>
      <point x="562" y="41" type="curve" smooth="yes"/>
      <point x="595" y="-8"/>
      <point x="649" y="-17"/>
    </contour>
  </outline>
</glyph>
<glyph name="O" format="1">
  <advance width="763"/>
  <unicode hex="004F"/>
  <outline>
    <contour>
      <point x="377" y="-14" type="curve" smooth="yes"/>
      <point x="601" y="-14"/>
      <point x="720" y="155"/>
      <point x="720" y="335" type="curve" smooth="yes"/>
      <point x="720" y="532"/>
      <point x="563" y="664"/>
      <point x="386" y="664" type="curve" smooth="yes"/>
      <point x="162" y="664"/>
      <point x="43" y="495"/>
      <point x="43" y="315" type="curve" smooth="yes"/>
      <point x="43" y="118"/>
      <point x="200" y="-14"/>
    </contour>
    <contour>
      <point x="387" y="49" type="curve" smooth="yes"/>
      <point x="294" y="49"/>
      <point x="246" y="188"/>
      <point x="246" y="362" type="curve" smooth="yes"/>
      <point x="246" y="508"/>
      <point x="290" y="599"/>
      <point x="374" y="599" type="curve" smooth="yes"/>
      <point x="469" y="599"/>
      <point x="517" y="462"/>
      <point x="517" y="288" type="curve" smooth="yes"/>
      <point x="517" y="142"/>
      <point x="474" y="49"/>
    </contour>
  </outline>
</glyph>
<glyph name="P" format="1">
  <advance width="552"/>
  <unicode hex="0050"/>
  <outline>
    <contour>
      <point x="35" y="-5" type="curve" smooth="yes"/>
      <point x="89" y="-5"/>
      <point x="122" y="2"/>
      <point x="173" y="2" type="curve" smooth="yes"/>
      <point x="262" y="2"/>
      <point x="266" y="-5"/>
      <point x="305" y="-5" type="curve" smooth="yes"/>
      <point x="317" y="-5"/>
      <point x="326" y="-1"/>
      <point x="326" y="10" type="curve" smooth="yes"/>
      <point x="326" y="23"/>
      <point x="319" y="30"/>
      <point x="302" y="35" type="curve" smooth="yes"/>
      <point x="257" y="48"/>
      <point x="254" y="74"/>
      <point x="254" y="131" type="curve" smooth="yes"/>
      <point x="254" y="562" type="line" smooth="yes"/>
      <point x="254" y="590"/>
      <point x="267" y="600"/>
      <point x="288" y="600" type="curve" smooth="yes"/>
      <point x="339" y="600"/>
      <point x="371" y="555"/>
      <point x="371" y="461" type="curve" smooth="yes"/>
      <point x="371" y="356"/>
      <point x="348" y="303"/>
      <point x="315" y="303" type="curve" smooth="yes"/>
      <point x="301" y="303"/>
      <point x="295" y="305"/>
      <point x="289" y="305" type="curve" smooth="yes"/>
      <point x="276" y="305"/>
      <point x="272" y="292"/>
      <point x="272" y="284" type="curve" smooth="yes"/>
      <point x="272" y="265"/>
      <point x="288" y="254"/>
      <point x="318" y="254" type="curve" smooth="yes"/>
      <point x="481" y="254"/>
      <point x="551" y="357"/>
      <point x="551" y="461" type="curve" smooth="yes"/>
      <point x="551" y="592"/>
      <point x="448" y="658"/>
      <point x="287" y="658" type="curve" smooth="yes"/>
      <point x="256" y="658"/>
      <point x="214" y="652"/>
      <point x="171" y="652" type="curve" smooth="yes"/>
      <point x="125" y="652"/>
      <point x="100" y="653"/>
      <point x="40" y="653" type="curve" smooth="yes"/>
      <point x="21" y="653"/>
      <point x="8" y="649"/>
      <point x="7" y="638" type="curve" smooth="yes"/>
      <point x="6" y="625"/>
      <point x="13" y="616"/>
      <point x="27" y="610" type="curve" smooth="yes"/>
      <point x="65" y="594"/>
      <point x="70" y="590"/>
      <point x="70" y="472" type="curve" smooth="yes"/>
      <point x="70" y="129" type="line" smooth="yes"/>
      <point x="70" y="63"/>
      <point x="66" y="52"/>
      <point x="26" y="38" type="curve" smooth="yes"/>
      <point x="12" y="33"/>
      <point x="6" y="25"/>
      <point x="6" y="12" type="curve" smooth="yes"/>
      <point x="6" y="0"/>
      <point x="18" y="-5"/>
    </contour>
  </outline>
</glyph>
<glyph name="Q" format="1">
  <advance width="763"/>
  <unicode hex="0051"/>
  <outline>
    <contour>
      <point x="726" y="-248" type="curve" smooth="yes"/>
      <point x="771" y="-248"/>
      <point x="821" y="-237"/>
      <point x="869" y="-212" type="curve" smooth="yes"/>
      <point x="886" y="-202"/>
      <point x="889" y="-187"/>
      <point x="889" y="-174" type="curve" smooth="yes"/>
      <point x="889" y="-160"/>
      <point x="877" y="-155"/>
      <point x="871" y="-155" type="curve" smooth="yes"/>
      <point x="866" y="-155"/>
      <point x="858" y="-158"/>
      <point x="852" y="-160" type="curve"/>
      <point x="844" y="-164"/>
      <point x="823" y="-167"/>
      <point x="799" y="-167" type="curve" smooth="yes"/>
      <point x="730" y="-167"/>
      <point x="702" y="-151"/>
      <point x="635" y="-99" type="curve" smooth="yes"/>
      <point x="585" y="-60"/>
      <point x="551" y="-31"/>
      <point x="523" y="-3" type="curve" smooth="yes"/>
      <point x="520" y="0"/>
      <point x="519" y="3"/>
      <point x="519" y="6" type="curve" smooth="yes"/>
      <point x="519" y="8"/>
      <point x="520" y="12"/>
      <point x="528" y="14" type="curve"/>
      <point x="659" y="70"/>
      <point x="730" y="200"/>
      <point x="730" y="335" type="curve" smooth="yes"/>
      <point x="730" y="532"/>
      <point x="568" y="664"/>
      <point x="386" y="664" type="curve" smooth="yes"/>
      <point x="156" y="664"/>
      <point x="33" y="495"/>
      <point x="33" y="315" type="curve" smooth="yes"/>
      <point x="33" y="181"/>
      <point x="107" y="78"/>
      <point x="212" y="25" type="curve" smooth="yes"/>
      <point x="231" y="16"/>
      <point x="232" y="14"/>
      <point x="268" y="-13" type="curve" smooth="yes"/>
      <point x="346" y="-71"/>
      <point x="396" y="-126"/>
      <point x="460" y="-166" type="curve" smooth="yes"/>
      <point x="537" y="-216"/>
      <point x="610" y="-248"/>
    </contour>
    <contour>
      <point x="387" y="49" type="curve" smooth="yes"/>
      <point x="300" y="49"/>
      <point x="256" y="188"/>
      <point x="256" y="362" type="curve" smooth="yes"/>
      <point x="256" y="508"/>
      <point x="297" y="599"/>
      <point x="375" y="599" type="curve" smooth="yes"/>
      <point x="463" y="599"/>
      <point x="507" y="462"/>
      <point x="507" y="288" type="curve" smooth="yes"/>
      <point x="507" y="142"/>
      <point x="467" y="49"/>
    </contour>
  </outline>
</glyph>
<glyph name="R" format="1">
  <advance width="713"/>
  <unicode hex="0052"/>
  <outline>
    <contour>
      <point x="617" y="-21" type="curve" smooth="yes"/>
      <point x="648" y="-21"/>
      <point x="708" y="-15"/>
      <point x="708" y="49" type="curve" smooth="yes"/>
      <point x="708" y="67"/>
      <point x="700" y="82"/>
      <point x="683" y="82" type="curve" smooth="yes"/>
      <point x="658" y="82"/>
      <point x="634" y="80"/>
      <point x="612" y="109" type="curve" smooth="yes"/>
      <point x="561" y="176"/>
      <point x="541" y="239"/>
      <point x="504" y="312" type="curve" smooth="yes"/>
      <point x="501" y="318"/>
      <point x="500" y="323"/>
      <point x="504" y="325" type="curve"/>
      <point x="540" y="353"/>
      <point x="581" y="403"/>
      <point x="581" y="483" type="curve" smooth="yes"/>
      <point x="581" y="602"/>
      <point x="471" y="657"/>
      <point x="268" y="657" type="curve" smooth="yes"/>
      <point x="210" y="657"/>
      <point x="201" y="652"/>
      <point x="163" y="652" type="curve" smooth="yes"/>
      <point x="122" y="652"/>
      <point x="129" y="653"/>
      <point x="62" y="653" type="curve" smooth="yes"/>
      <point x="51" y="653"/>
      <point x="37" y="647"/>
      <point x="37" y="635" type="curve" smooth="yes"/>
      <point x="37" y="621"/>
      <point x="47" y="611"/>
      <point x="65" y="608" type="curve" smooth="yes"/>
      <point x="104" y="601"/>
      <point x="107" y="579"/>
      <point x="107" y="526" type="curve" smooth="yes"/>
      <point x="107" y="118" type="line" smooth="yes"/>
      <point x="107" y="57"/>
      <point x="101" y="50"/>
      <point x="57" y="36" type="curve" smooth="yes"/>
      <point x="41" y="31"/>
      <point x="35" y="26"/>
      <point x="35" y="14" type="curve" smooth="yes"/>
      <point x="35" y="2"/>
      <point x="42" y="-5"/>
      <point x="54" y="-5" type="curve" smooth="yes"/>
      <point x="117" y="-5"/>
      <point x="132" y="2"/>
      <point x="183" y="2" type="curve" smooth="yes"/>
      <point x="221" y="2"/>
      <point x="208" y="-5"/>
      <point x="340" y="-5" type="curve" smooth="yes"/>
      <point x="354" y="-5"/>
      <point x="364" y="5"/>
      <point x="364" y="17" type="curve" smooth="yes"/>
      <point x="364" y="30"/>
      <point x="355" y="33"/>
      <point x="337" y="39" type="curve" smooth="yes"/>
      <point x="303" y="50"/>
      <point x="295" y="62"/>
      <point x="295" y="121" type="curve" smooth="yes"/>
      <point x="295" y="271" type="line" smooth="yes"/>
      <point x="295" y="282"/>
      <point x="297" y="291"/>
      <point x="302" y="290" type="curve" smooth="yes"/>
      <point x="317" y="288"/>
      <point x="340" y="281"/>
      <point x="349" y="270" type="curve" smooth="yes"/>
      <point x="357" y="260"/>
      <point x="363" y="249"/>
      <point x="369" y="233" type="curve" smooth="yes"/>
      <point x="395" y="163"/>
      <point x="415" y="116"/>
      <point x="433" y="76" type="curve" smooth="yes"/>
      <point x="462" y="11"/>
      <point x="518" y="-21"/>
    </contour>
    <contour>
      <point x="323" y="359" type="curve" smooth="yes"/>
      <point x="304" y="359"/>
      <point x="288" y="361"/>
      <point x="288" y="386" type="curve" smooth="yes"/>
      <point x="288" y="448"/>
      <point x="289" y="491"/>
      <point x="289" y="517" type="curve" smooth="yes"/>
      <point x="289" y="570"/>
      <point x="300" y="588"/>
      <point x="324" y="588" type="curve" smooth="yes"/>
      <point x="393" y="588"/>
      <point x="410" y="535"/>
      <point x="410" y="472" type="curve" smooth="yes"/>
      <point x="410" y="414"/>
      <point x="373" y="359"/>
    </contour>
  </outline>
</glyph>
<glyph name="S" format="1">
  <advance width="465"/>
  <unicode hex="0053"/>
  <outline>
    <contour>
      <point x="201" y="-16" type="curve" smooth="yes"/>
      <point x="345" y="-16"/>
      <point x="441" y="70"/>
      <point x="441" y="203" type="curve" smooth="yes"/>
      <point x="441" y="314"/>
      <point x="361" y="358"/>
      <point x="282" y="404" type="curve" smooth="yes"/>
      <point x="214" y="443"/>
      <point x="162" y="480"/>
      <point x="162" y="522" type="curve" smooth="yes"/>
      <point x="162" y="582"/>
      <point x="206" y="598"/>
      <point x="260" y="598" type="curve" smooth="yes"/>
      <point x="320" y="598"/>
      <point x="360" y="549"/>
      <point x="385" y="497" type="curve" smooth="yes"/>
      <point x="388" y="491"/>
      <point x="400" y="485"/>
      <point x="414" y="485" type="curve" smooth="yes"/>
      <point x="422" y="485"/>
      <point x="433" y="490"/>
      <point x="433" y="498" type="curve" smooth="yes"/>
      <point x="433" y="530"/>
      <point x="420" y="589"/>
      <point x="411" y="617" type="curve" smooth="yes"/>
      <point x="408" y="627"/>
      <point x="399" y="638"/>
      <point x="388" y="642" type="curve" smooth="yes"/>
      <point x="364" y="651"/>
      <point x="326" y="664"/>
      <point x="273" y="664" type="curve" smooth="yes"/>
      <point x="110" y="664"/>
      <point x="31" y="570"/>
      <point x="31" y="453" type="curve" smooth="yes"/>
      <point x="31" y="340"/>
      <point x="140" y="285"/>
      <point x="205" y="244" type="curve" smooth="yes"/>
      <point x="288" y="192"/>
      <point x="313" y="163"/>
      <point x="313" y="121" type="curve" smooth="yes"/>
      <point x="313" y="73"/>
      <point x="274" y="49"/>
      <point x="217" y="49" type="curve" smooth="yes"/>
      <point x="154" y="49"/>
      <point x="101" y="85"/>
      <point x="73" y="166" type="curve" smooth="yes"/>
      <point x="70" y="174"/>
      <point x="60" y="183"/>
      <point x="49" y="183" type="curve" smooth="yes"/>
      <point x="33" y="183"/>
      <point x="21" y="172"/>
      <point x="21" y="163" type="curve"/>
      <point x="23" y="135"/>
      <point x="24" y="79"/>
      <point x="32" y="52" type="curve" smooth="yes"/>
      <point x="34" y="44"/>
      <point x="41" y="37"/>
      <point x="46" y="32" type="curve"/>
      <point x="87" y="1"/>
      <point x="140" y="-16"/>
    </contour>
  </outline>
</glyph>
<glyph name="T" format="1">
  <advance width="670"/>
  <unicode hex="0054"/>
  <outline>
    <contour>
      <point x="225" y="-5" type="curve" smooth="yes"/>
      <point x="279" y="-5"/>
      <point x="309" y="0"/>
      <point x="359" y="0" type="curve" smooth="yes"/>
      <point x="405" y="0"/>
      <point x="426" y="-5"/>
      <point x="480" y="-5" type="curve" smooth="yes"/>
      <point x="497" y="-5"/>
      <point x="507" y="4"/>
      <point x="507" y="14" type="curve" smooth="yes"/>
      <point x="507" y="26"/>
      <point x="502" y="32"/>
      <point x="489" y="36" type="curve" smooth="yes"/>
      <point x="451" y="48"/>
      <point x="444" y="53"/>
      <point x="444" y="102" type="curve" smooth="yes"/>
      <point x="444" y="495" type="line" smooth="yes"/>
      <point x="444" y="570"/>
      <point x="446" y="575"/>
      <point x="469" y="575" type="curve" smooth="yes"/>
      <point x="527" y="575" type="line" smooth="yes"/>
      <point x="581" y="575"/>
      <point x="601" y="561"/>
      <point x="605" y="539" type="curve" smooth="yes"/>
      <point x="612" y="507"/>
      <point x="618" y="489"/>
      <point x="632" y="489" type="curve" smooth="yes"/>
      <point x="646" y="489"/>
      <point x="654" y="514"/>
      <point x="654" y="528" type="curve" smooth="yes"/>
      <point x="654" y="544" type="line" smooth="yes"/>
      <point x="654" y="576"/>
      <point x="658" y="571"/>
      <point x="664" y="619" type="curve" smooth="yes"/>
      <point x="665" y="626"/>
      <point x="668" y="645"/>
      <point x="668" y="654" type="curve" smooth="yes"/>
      <point x="668" y="667"/>
      <point x="663" y="677"/>
      <point x="654" y="677" type="curve" smooth="yes"/>
      <point x="638" y="677"/>
      <point x="624" y="665"/>
      <point x="608" y="657" type="curve" smooth="yes"/>
      <point x="586" y="646"/>
      <point x="559" y="642"/>
      <point x="513" y="642" type="curve" smooth="yes"/>
      <point x="186" y="642" type="line" smooth="yes"/>
      <point x="158" y="642"/>
      <point x="131" y="649"/>
      <point x="122" y="662" type="curve" smooth="yes"/>
      <point x="113" y="676"/>
      <point x="97" y="694"/>
      <point x="85" y="694" type="curve" smooth="yes"/>
      <point x="78" y="694"/>
      <point x="68" y="693"/>
      <point x="64" y="665" type="curve" smooth="yes"/>
      <point x="58" y="611"/>
      <point x="52" y="579"/>
      <point x="34" y="530" type="curve" smooth="yes"/>
      <point x="30" y="522"/>
      <point x="27" y="511"/>
      <point x="27" y="503" type="curve" smooth="yes"/>
      <point x="27" y="493"/>
      <point x="30" y="485"/>
      <point x="37" y="485" type="curve" smooth="yes"/>
      <point x="70" y="485"/>
      <point x="81" y="512"/>
      <point x="93" y="537" type="curve" smooth="yes"/>
      <point x="105" y="562"/>
      <point x="130" y="576"/>
      <point x="154" y="576" type="curve" smooth="yes"/>
      <point x="212" y="576" type="line" smooth="yes"/>
      <point x="230" y="576"/>
      <point x="239" y="576"/>
      <point x="250" y="572" type="curve" smooth="yes"/>
      <point x="258" y="569"/>
      <point x="260" y="547"/>
      <point x="260" y="519" type="curve" smooth="yes"/>
      <point x="260" y="102" type="line" smooth="yes"/>
      <point x="260" y="58"/>
      <point x="255" y="54"/>
      <point x="213" y="36" type="curve" smooth="yes"/>
      <point x="201" y="31"/>
      <point x="196" y="27"/>
      <point x="196" y="12" type="curve" smooth="yes"/>
      <point x="196" y="0"/>
      <point x="208" y="-5"/>
    </contour>
  </outline>
</glyph>
<glyph name="U" format="1">
  <advance width="738"/>
  <unicode hex="0055"/>
  <outline>
    <contour>
      <point x="361" y="-14" type="curve" smooth="yes"/>
      <point x="531" y="-14"/>
      <point x="640" y="86"/>
      <point x="645" y="250" type="curve" smooth="yes"/>
      <point x="648" y="342"/>
      <point x="648" y="432"/>
      <point x="655" y="547" type="curve" smooth="yes"/>
      <point x="657" y="582"/>
      <point x="667" y="606"/>
      <point x="695" y="612" type="curve" smooth="yes"/>
      <point x="718" y="619"/>
      <point x="728" y="627"/>
      <point x="728" y="639" type="curve" smooth="yes"/>
      <point x="728" y="649"/>
      <point x="716" y="653"/>
      <point x="699" y="653" type="curve" smooth="yes"/>
      <point x="676" y="653"/>
      <point x="650" y="649"/>
      <point x="618" y="649" type="curve" smooth="yes"/>
      <point x="589" y="649"/>
      <point x="573" y="650"/>
      <point x="543" y="650" type="curve" smooth="yes"/>
      <point x="526" y="650"/>
      <point x="514" y="646"/>
      <point x="514" y="636" type="curve" smooth="yes"/>
      <point x="514" y="624"/>
      <point x="530" y="613"/>
      <point x="544" y="608" type="curve" smooth="yes"/>
      <point x="571" y="598"/>
      <point x="577" y="573"/>
      <point x="578" y="511" type="curve" smooth="yes"/>
      <point x="580" y="434"/>
      <point x="582" y="340"/>
      <point x="582" y="296" type="curve" smooth="yes"/>
      <point x="582" y="176"/>
      <point x="529" y="82"/>
      <point x="432" y="82" type="curve" smooth="yes"/>
      <point x="340" y="82"/>
      <point x="274" y="142"/>
      <point x="274" y="273" type="curve" smooth="yes"/>
      <point x="274" y="549" type="line" smooth="yes"/>
      <point x="274" y="584"/>
      <point x="283" y="599"/>
      <point x="307" y="608" type="curve" smooth="yes"/>
      <point x="324" y="615"/>
      <point x="333" y="621"/>
      <point x="333" y="631" type="curve" smooth="yes"/>
      <point x="333" y="646"/>
      <point x="316" y="652"/>
      <point x="293" y="652" type="curve" smooth="yes"/>
      <point x="264" y="652"/>
      <point x="226" y="650"/>
      <point x="183" y="650" type="curve" smooth="yes"/>
      <point x="132" y="650"/>
      <point x="92" y="653"/>
      <point x="51" y="653" type="curve" smooth="yes"/>
      <point x="26" y="653"/>
      <point x="8" y="647"/>
      <point x="8" y="633" type="curve" smooth="yes"/>
      <point x="8" y="618"/>
      <point x="23" y="608"/>
      <point x="43" y="603" type="curve" smooth="yes"/>
      <point x="63" y="598"/>
      <point x="70" y="581"/>
      <point x="70" y="547" type="curve" smooth="yes"/>
      <point x="70" y="240" type="line" smooth="yes"/>
      <point x="70" y="87"/>
      <point x="168" y="-14"/>
    </contour>
  </outline>
</glyph>
<glyph name="V" format="1">
  <advance width="664"/>
  <unicode hex="0056"/>
  <outline>
    <contour>
      <point x="319" y="-10" type="curve" smooth="yes"/>
      <point x="327" y="-10"/>
      <point x="364" y="0"/>
      <point x="370" y="11" type="curve" smooth="yes"/>
      <point x="381" y="31"/>
      <point x="388" y="46"/>
      <point x="400" y="79" type="curve" smooth="yes"/>
      <point x="564" y="522" type="line" smooth="yes"/>
      <point x="582" y="570"/>
      <point x="600" y="602"/>
      <point x="649" y="614" type="curve" smooth="yes"/>
      <point x="670" y="619"/>
      <point x="678" y="628"/>
      <point x="678" y="640" type="curve" smooth="yes"/>
      <point x="678" y="650"/>
      <point x="666" y="654"/>
      <point x="649" y="654" type="curve" smooth="yes"/>
      <point x="623" y="654"/>
      <point x="574" y="650"/>
      <point x="535" y="650" type="curve" smooth="yes"/>
      <point x="497" y="650"/>
      <point x="460" y="651"/>
      <point x="434" y="651" type="curve" smooth="yes"/>
      <point x="417" y="651"/>
      <point x="405" y="645"/>
      <point x="405" y="634" type="curve" smooth="yes"/>
      <point x="405" y="623"/>
      <point x="418" y="609"/>
      <point x="438" y="605" type="curve" smooth="yes"/>
      <point x="497" y="593"/>
      <point x="511" y="573"/>
      <point x="486" y="503" type="curve" smooth="yes"/>
      <point x="391" y="236" type="line" smooth="yes"/>
      <point x="388" y="227"/>
      <point x="382" y="230"/>
      <point x="380" y="235" type="curve"/>
      <point x="288" y="515" type="line" smooth="yes"/>
      <point x="284" y="527"/>
      <point x="274" y="550"/>
      <point x="274" y="569" type="curve" smooth="yes"/>
      <point x="274" y="594"/>
      <point x="281" y="604"/>
      <point x="306" y="609" type="curve" smooth="yes"/>
      <point x="334" y="615"/>
      <point x="345" y="624"/>
      <point x="345" y="637" type="curve" smooth="yes"/>
      <point x="345" y="648"/>
      <point x="331" y="652"/>
      <point x="311" y="652" type="curve" smooth="yes"/>
      <point x="287" y="652"/>
      <point x="237" y="650"/>
      <point x="187" y="650" type="curve" smooth="yes"/>
      <point x="130" y="650"/>
      <point x="84" y="653"/>
      <point x="39" y="653" type="curve" smooth="yes"/>
      <point x="22" y="653"/>
      <point x="10" y="648"/>
      <point x="10" y="636" type="curve" smooth="yes"/>
      <point x="10" y="623"/>
      <point x="19" y="614"/>
      <point x="36" y="603" type="curve" smooth="yes"/>
      <point x="63" y="586"/>
      <point x="81" y="547"/>
      <point x="100" y="494" type="curve" smooth="yes"/>
      <point x="257" y="56" type="line" smooth="yes"/>
      <point x="265" y="35"/>
      <point x="271" y="27"/>
      <point x="280" y="12" type="curve" smooth="yes"/>
      <point x="290" y="-5"/>
      <point x="308" y="-10"/>
    </contour>
  </outline>
</glyph>
<glyph name="W" format="1">
  <advance width="916"/>
  <unicode hex="0057"/>
  <outline>
    <contour>
      <point x="338" y="-16"/>
      <point x="360" y="1"/>
      <point x="367" y="15" type="curve"/>
      <point x="398" y="81"/>
      <point x="429" y="146"/>
      <point x="460" y="212" type="curve"/>
      <point x="465" y="225"/>
      <point x="470" y="224"/>
      <point x="473" y="215" type="curve" smooth="yes"/>
      <point x="497" y="146"/>
      <point x="520" y="78"/>
      <point x="544" y="9" type="curve"/>
      <point x="550" y="-4"/>
      <point x="579" y="-12"/>
      <point x="593" y="-12" type="curve" smooth="yes"/>
      <point x="613" y="-12"/>
      <point x="632" y="5"/>
      <point x="638" y="11" type="curve"/>
      <point x="830" y="522" type="line" smooth="yes"/>
      <point x="848" y="570"/>
      <point x="866" y="602"/>
      <point x="915" y="614" type="curve" smooth="yes"/>
      <point x="936" y="619"/>
      <point x="944" y="628"/>
      <point x="944" y="640" type="curve" smooth="yes"/>
      <point x="944" y="650"/>
      <point x="932" y="654"/>
      <point x="915" y="654" type="curve" smooth="yes"/>
      <point x="889" y="654"/>
      <point x="840" y="650"/>
      <point x="801" y="650" type="curve" smooth="yes"/>
      <point x="763" y="650"/>
      <point x="726" y="651"/>
      <point x="700" y="651" type="curve" smooth="yes"/>
      <point x="683" y="651"/>
      <point x="671" y="645"/>
      <point x="671" y="634" type="curve" smooth="yes"/>
      <point x="671" y="623"/>
      <point x="684" y="609"/>
      <point x="704" y="605" type="curve" smooth="yes"/>
      <point x="745" y="597"/>
      <point x="764" y="585"/>
      <point x="764" y="556" type="curve" smooth="yes"/>
      <point x="764" y="542"/>
      <point x="760" y="525"/>
      <point x="752" y="503" type="curve" smooth="yes"/>
      <point x="726" y="426"/>
      <point x="694" y="336"/>
      <point x="661" y="248" type="curve"/>
      <point x="657" y="239"/>
      <point x="652" y="236"/>
      <point x="650" y="242" type="curve"/>
      <point x="618" y="352" type="line" smooth="yes"/>
      <point x="610" y="379"/>
      <point x="615" y="400"/>
      <point x="619" y="410" type="curve" smooth="yes"/>
      <point x="632" y="443"/>
      <point x="661" y="506"/>
      <point x="667" y="522" type="curve" smooth="yes"/>
      <point x="685" y="570"/>
      <point x="703" y="602"/>
      <point x="752" y="614" type="curve" smooth="yes"/>
      <point x="773" y="619"/>
      <point x="781" y="628"/>
      <point x="781" y="640" type="curve" smooth="yes"/>
      <point x="781" y="650"/>
      <point x="769" y="654"/>
      <point x="752" y="654" type="curve" smooth="yes"/>
      <point x="726" y="654"/>
      <point x="683" y="650"/>
      <point x="644" y="650" type="curve" smooth="yes"/>
      <point x="606" y="650"/>
      <point x="569" y="651"/>
      <point x="543" y="651" type="curve" smooth="yes"/>
      <point x="526" y="651"/>
      <point x="514" y="645"/>
      <point x="514" y="634" type="curve" smooth="yes"/>
      <point x="514" y="623"/>
      <point x="527" y="609"/>
      <point x="547" y="605" type="curve" smooth="yes"/>
      <point x="606" y="593"/>
      <point x="620" y="574"/>
      <point x="595" y="503" type="curve"/>
      <point x="590" y="486"/>
      <point x="603" y="518"/>
      <point x="587" y="482" type="curve" smooth="yes"/>
      <point x="579" y="464"/>
      <point x="576" y="466"/>
      <point x="569" y="482" type="curve" smooth="yes"/>
      <point x="561" y="501"/>
      <point x="540" y="556"/>
      <point x="536" y="568" type="curve"/>
      <point x="534" y="572"/>
      <point x="533" y="575"/>
      <point x="533" y="579" type="curve" smooth="yes"/>
      <point x="533" y="611"/>
      <point x="589" y="613"/>
      <point x="589" y="637" type="curve" smooth="yes"/>
      <point x="589" y="645"/>
      <point x="566" y="652"/>
      <point x="534" y="652" type="curve" smooth="yes"/>
      <point x="504" y="652"/>
      <point x="488" y="650"/>
      <point x="431" y="650" type="curve" smooth="yes"/>
      <point x="395" y="650"/>
      <point x="345" y="653"/>
      <point x="314" y="653" type="curve" smooth="yes"/>
      <point x="297" y="653"/>
      <point x="285" y="645"/>
      <point x="285" y="634" type="curve" smooth="yes"/>
      <point x="285" y="622"/>
      <point x="292" y="609"/>
      <point x="309" y="607" type="curve" smooth="yes"/>
      <point x="330" y="604"/>
      <point x="349" y="555"/>
      <point x="364" y="514" type="curve" smooth="yes"/>
      <point x="427" y="347" type="line" smooth="yes"/>
      <point x="432" y="334"/>
      <point x="435" y="326"/>
      <point x="435" y="318" type="curve" smooth="yes"/>
      <point x="435" y="312"/>
      <point x="433" y="305"/>
      <point x="429" y="295" type="curve"/>
      <point x="395" y="217" type="line"/>
      <point x="391" y="206"/>
      <point x="387" y="203"/>
      <point x="380" y="218" type="curve"/>
      <point x="355" y="305"/>
      <point x="329" y="392"/>
      <point x="304" y="479" type="curve" smooth="yes"/>
      <point x="297" y="503"/>
      <point x="289" y="526"/>
      <point x="289" y="548" type="curve" smooth="yes"/>
      <point x="289" y="572"/>
      <point x="295" y="595"/>
      <point x="316" y="601" type="curve" smooth="yes"/>
      <point x="348" y="611"/>
      <point x="361" y="619"/>
      <point x="361" y="634" type="curve" smooth="yes"/>
      <point x="361" y="646"/>
      <point x="343" y="652"/>
      <point x="317" y="652" type="curve" smooth="yes"/>
      <point x="287" y="652"/>
      <point x="233" y="649"/>
      <point x="177" y="649" type="curve" smooth="yes"/>
      <point x="126" y="649"/>
      <point x="90" y="653"/>
      <point x="40" y="653" type="curve" smooth="yes"/>
      <point x="16" y="653"/>
      <point x="0" y="648"/>
      <point x="0" y="634" type="curve" smooth="yes"/>
      <point x="0" y="618"/>
      <point x="10" y="607"/>
      <point x="29" y="596" type="curve" smooth="yes"/>
      <point x="60" y="578"/>
      <point x="74" y="538"/>
      <point x="94" y="481" type="curve" smooth="yes"/>
      <point x="254" y="19" type="line" smooth="yes"/>
      <point x="262" y="-1"/>
      <point x="307" y="-16"/>
      <point x="327" y="-16" type="curve" smooth="yes"/>
    </contour>
  </outline>
</glyph>
<glyph name="X" format="1">
  <advance width="707"/>
  <unicode hex="0058"/>
  <outline>
    <contour>
      <point x="24" y="-6" type="curve" smooth="yes"/>
      <point x="57" y="-6"/>
      <point x="105" y="3"/>
      <point x="150" y="3" type="curve" smooth="yes"/>
      <point x="186" y="3"/>
      <point x="221" y="0"/>
      <point x="239" y="0" type="curve" smooth="yes"/>
      <point x="256" y="0"/>
      <point x="268" y="5"/>
      <point x="268" y="17" type="curve" smooth="yes"/>
      <point x="268" y="30"/>
      <point x="258" y="37"/>
      <point x="235" y="47" type="curve" smooth="yes"/>
      <point x="221" y="53"/>
      <point x="211" y="65"/>
      <point x="211" y="77" type="curve" smooth="yes"/>
      <point x="211" y="84"/>
      <point x="214" y="91"/>
      <point x="220" y="98" type="curve" smooth="yes"/>
      <point x="310" y="213" type="line" smooth="yes"/>
      <point x="317" y="221"/>
      <point x="322" y="222"/>
      <point x="330" y="208" type="curve" smooth="yes"/>
      <point x="395" y="92" type="line"/>
      <point x="399" y="84"/>
      <point x="400" y="77"/>
      <point x="400" y="70" type="curve" smooth="yes"/>
      <point x="400" y="54"/>
      <point x="390" y="42"/>
      <point x="382" y="39" type="curve" smooth="yes"/>
      <point x="366" y="33"/>
      <point x="360" y="30"/>
      <point x="360" y="17" type="curve" smooth="yes"/>
      <point x="360" y="6"/>
      <point x="374" y="2"/>
      <point x="393" y="2" type="curve" smooth="yes"/>
      <point x="421" y="2"/>
      <point x="454" y="3"/>
      <point x="502" y="3" type="curve" smooth="yes"/>
      <point x="555" y="3"/>
      <point x="624" y="-5"/>
      <point x="656" y="-5" type="curve" smooth="yes"/>
      <point x="675" y="-5"/>
      <point x="689" y="-1"/>
      <point x="689" y="10" type="curve" smooth="yes"/>
      <point x="689" y="23"/>
      <point x="678" y="30"/>
      <point x="651" y="38" type="curve" smooth="yes"/>
      <point x="620" y="47"/>
      <point x="599" y="85"/>
      <point x="574" y="129" type="curve" smooth="yes"/>
      <point x="450" y="347" type="line"/>
      <point x="443" y="362"/>
      <point x="447" y="365"/>
      <point x="464" y="387" type="curve" smooth="yes"/>
      <point x="561" y="513" type="line" smooth="yes"/>
      <point x="596" y="559"/>
      <point x="639" y="605"/>
      <point x="664" y="613" type="curve" smooth="yes"/>
      <point x="686" y="620"/>
      <point x="696" y="629"/>
      <point x="696" y="642" type="curve" smooth="yes"/>
      <point x="696" y="654"/>
      <point x="684" y="658"/>
      <point x="667" y="658" type="curve" smooth="yes"/>
      <point x="640" y="658"/>
      <point x="592" y="649"/>
      <point x="553" y="649" type="curve" smooth="yes"/>
      <point x="523" y="649"/>
      <point x="496" y="651"/>
      <point x="472" y="651" type="curve" smooth="yes"/>
      <point x="455" y="651"/>
      <point x="443" y="646"/>
      <point x="443" y="635" type="curve" smooth="yes"/>
      <point x="443" y="621"/>
      <point x="461" y="609"/>
      <point x="476" y="605" type="curve" smooth="yes"/>
      <point x="501" y="599"/>
      <point x="510" y="593"/>
      <point x="510" y="582" type="curve" smooth="yes"/>
      <point x="510" y="570"/>
      <point x="501" y="556"/>
      <point x="494" y="547" type="curve" smooth="yes"/>
      <point x="415" y="436" type="line"/>
      <point x="407" y="423"/>
      <point x="405" y="420"/>
      <point x="394" y="438" type="curve" smooth="yes"/>
      <point x="341" y="529" type="line" smooth="yes"/>
      <point x="325" y="556"/>
      <point x="317" y="572"/>
      <point x="317" y="582" type="curve" smooth="yes"/>
      <point x="317" y="596"/>
      <point x="329" y="603"/>
      <point x="347" y="608" type="curve" smooth="yes"/>
      <point x="363" y="612"/>
      <point x="380" y="622"/>
      <point x="380" y="635" type="curve" smooth="yes"/>
      <point x="380" y="646"/>
      <point x="361" y="651"/>
      <point x="335" y="651" type="curve" smooth="yes"/>
      <point x="306" y="651"/>
      <point x="253" y="648"/>
      <point x="192" y="648" type="curve" smooth="yes"/>
      <point x="138" y="648"/>
      <point x="84" y="655"/>
      <point x="49" y="655" type="curve" smooth="yes"/>
      <point x="30" y="655"/>
      <point x="18" y="651"/>
      <point x="18" y="639" type="curve" smooth="yes"/>
      <point x="18" y="629"/>
      <point x="26" y="613"/>
      <point x="48" y="603" type="curve" smooth="yes"/>
      <point x="74" y="591"/>
      <point x="94" y="575"/>
      <point x="132" y="515" type="curve" smooth="yes"/>
      <point x="261" y="309" type="line" smooth="yes"/>
      <point x="276" y="286"/>
      <point x="268" y="273"/>
      <point x="257" y="259" type="curve" smooth="yes"/>
      <point x="147" y="123" type="line" smooth="yes"/>
      <point x="113" y="81"/>
      <point x="56" y="52"/>
      <point x="35" y="44" type="curve" smooth="yes"/>
      <point x="6" y="33"/>
      <point x="-5" y="24"/>
      <point x="-5" y="11" type="curve" smooth="yes"/>
      <point x="-5" y="-1"/>
      <point x="7" y="-6"/>
    </contour>
  </outline>
</glyph>
<glyph name="Y" format="1">
  <advance width="578"/>
  <unicode hex="0059"/>
  <outline>
    <contour>
      <point x="170" y="-5" type="curve" smooth="yes"/>
      <point x="224" y="-5"/>
      <point x="260" y="0"/>
      <point x="310" y="0" type="curve" smooth="yes"/>
      <point x="366" y="0"/>
      <point x="386" y="-5"/>
      <point x="440" y="-5" type="curve" smooth="yes"/>
      <point x="460" y="-5"/>
      <point x="467" y="6"/>
      <point x="467" y="15" type="curve" smooth="yes"/>
      <point x="467" y="26"/>
      <point x="462" y="32"/>
      <point x="450" y="37" type="curve" smooth="yes"/>
      <point x="413" y="53"/>
      <point x="408" y="58"/>
      <point x="408" y="130" type="curve" smooth="yes"/>
      <point x="408" y="260" type="line" smooth="yes"/>
      <point x="408" y="297"/>
      <point x="407" y="304"/>
      <point x="426" y="345" type="curve" smooth="yes"/>
      <point x="459" y="415"/>
      <point x="467" y="432"/>
      <point x="505" y="510" type="curve" smooth="yes"/>
      <point x="531" y="562"/>
      <point x="543" y="587"/>
      <point x="568" y="596" type="curve" smooth="yes"/>
      <point x="596" y="608"/>
      <point x="621" y="621"/>
      <point x="621" y="636" type="curve" smooth="yes"/>
      <point x="621" y="648"/>
      <point x="609" y="653"/>
      <point x="592" y="653" type="curve" smooth="yes"/>
      <point x="569" y="653"/>
      <point x="529" y="648"/>
      <point x="488" y="648" type="curve" smooth="yes"/>
      <point x="459" y="648"/>
      <point x="443" y="649"/>
      <point x="413" y="649" type="curve" smooth="yes"/>
      <point x="396" y="649"/>
      <point x="384" y="642"/>
      <point x="384" y="629" type="curve" smooth="yes"/>
      <point x="384" y="615"/>
      <point x="400" y="604"/>
      <point x="414" y="602" type="curve" smooth="yes"/>
      <point x="431" y="599"/>
      <point x="450" y="593"/>
      <point x="450" y="571" type="curve" smooth="yes"/>
      <point x="450" y="561"/>
      <point x="443" y="542"/>
      <point x="435" y="523" type="curve" smooth="yes"/>
      <point x="422" y="493"/>
      <point x="410" y="464"/>
      <point x="397" y="434" type="curve" smooth="yes"/>
      <point x="386" y="408"/>
      <point x="375" y="401"/>
      <point x="368" y="401" type="curve" smooth="yes"/>
      <point x="363" y="401"/>
      <point x="358" y="412"/>
      <point x="347" y="434" type="curve" smooth="yes"/>
      <point x="291" y="552" type="line" smooth="yes"/>
      <point x="284" y="566"/>
      <point x="278" y="578"/>
      <point x="278" y="585" type="curve" smooth="yes"/>
      <point x="278" y="598"/>
      <point x="284" y="602"/>
      <point x="295" y="606" type="curve" smooth="yes"/>
      <point x="312" y="612"/>
      <point x="318" y="623"/>
      <point x="318" y="633" type="curve" smooth="yes"/>
      <point x="318" y="646"/>
      <point x="304" y="651"/>
      <point x="283" y="651" type="curve" smooth="yes"/>
      <point x="257" y="651"/>
      <point x="214" y="648"/>
      <point x="176" y="648" type="curve" smooth="yes"/>
      <point x="119" y="648"/>
      <point x="56" y="653"/>
      <point x="19" y="653" type="curve" smooth="yes"/>
      <point x="2" y="653"/>
      <point x="-10" y="648"/>
      <point x="-10" y="635" type="curve" smooth="yes"/>
      <point x="-10" y="620"/>
      <point x="0" y="609"/>
      <point x="23" y="599" type="curve" smooth="yes"/>
      <point x="48" y="588"/>
      <point x="78" y="530"/>
      <point x="89" y="508" type="curve" smooth="yes"/>
      <point x="185" y="312" type="line" smooth="yes"/>
      <point x="189" y="304"/>
      <point x="204" y="268"/>
      <point x="204" y="242" type="curve" smooth="yes"/>
      <point x="204" y="144" type="line" smooth="yes"/>
      <point x="204" y="63"/>
      <point x="199" y="51"/>
      <point x="158" y="34" type="curve" smooth="yes"/>
      <point x="147" y="29"/>
      <point x="141" y="25"/>
      <point x="141" y="13" type="curve" smooth="yes"/>
      <point x="141" y="2"/>
      <point x="157" y="-5"/>
    </contour>
  </outline>
</glyph>
<glyph name="bracketleft" format="1">
  <advance width="331"/>
  <unicode hex="005B"/>
  <outline>
    <contour>
      <point x="81" y="-200" type="curve" smooth="yes"/>
      <point x="282" y="-200" type="line" smooth="yes"/>
      <point x="294" y="-200"/>
      <point x="308" y="-195"/>
      <point x="308" y="-176" type="curve" smooth="yes"/>
      <point x="308" y="-158"/>
      <point x="295" y="-149"/>
      <point x="282" y="-148" type="curve" smooth="yes"/>
      <point x="203" y="-142" type="line" smooth="yes"/>
      <point x="187" y="-141"/>
      <point x="180" y="-130"/>
      <point x="180" y="-91" type="curve" smooth="yes"/>
      <point x="180" y="598" type="line" smooth="yes"/>
      <point x="180" y="631"/>
      <point x="188" y="644"/>
      <point x="203" y="645" type="curve" smooth="yes"/>
      <point x="269" y="649" type="line" smooth="yes"/>
      <point x="289" y="650"/>
      <point x="308" y="658"/>
      <point x="308" y="677" type="curve" smooth="yes"/>
      <point x="308" y="695"/>
      <point x="295" y="701"/>
      <point x="269" y="701" type="curve" smooth="yes"/>
      <point x="88" y="702" type="line" smooth="yes"/>
      <point x="56" y="702"/>
      <point x="50" y="702"/>
      <point x="50" y="668" type="curve" smooth="yes"/>
      <point x="50" y="-175" type="line" smooth="yes"/>
      <point x="50" y="-199"/>
      <point x="58" y="-200"/>
    </contour>
  </outline>
</glyph>
<glyph name="asciicircum" format="1">
  <advance width="500"/>
  <unicode hex="005E"/>
  <outline>
    <contour>
      <point x="84" y="284"/>
      <point x="116" y="295"/>
      <point x="129" y="313" type="curve" smooth="yes"/>
      <point x="244" y="467" type="line"/>
      <point x="251" y="476"/>
      <point x="252" y="476"/>
      <point x="260" y="467" type="curve"/>
      <point x="373" y="312" type="line" smooth="yes"/>
      <point x="383" y="298"/>
      <point x="412" y="284"/>
      <point x="435" y="284" type="curve" smooth="yes"/>
      <point x="449" y="284"/>
      <point x="452" y="304"/>
      <point x="445" y="316" type="curve"/>
      <point x="255" y="603" type="line"/>
      <point x="251" y="603" type="line"/>
      <point x="57" y="316" type="line"/>
      <point x="54" y="312"/>
      <point x="52" y="305"/>
      <point x="52" y="301" type="curve" smooth="yes"/>
      <point x="52" y="292"/>
      <point x="58" y="284"/>
      <point x="66" y="284" type="curve" smooth="yes"/>
    </contour>
  </outline>
</glyph>
<glyph name="b" format="1">
  <advance width="515"/>
  <unicode hex="0062"/>
  <outline>
    <contour>
      <point x="264" y="-14" type="curve" smooth="yes"/>
      <point x="401" y="-14"/>
      <point x="495" y="84"/>
      <point x="495" y="227" type="curve" smooth="yes"/>
      <point x="495" y="342"/>
      <point x="425" y="432"/>
      <point x="335" y="432" type="curve" smooth="yes"/>
      <point x="295" y="432"/>
      <point x="241" y="409"/>
      <point x="204" y="369" type="curve"/>
      <point x="197" y="370"/>
      <point x="195" y="374"/>
      <point x="195" y="395" type="curve" smooth="yes"/>
      <point x="195" y="593" type="line" smooth="yes"/>
      <point x="195" y="614"/>
      <point x="198" y="654"/>
      <point x="198" y="679" type="curve" smooth="yes"/>
      <point x="198" y="694"/>
      <point x="187" y="705"/>
      <point x="175" y="705" type="curve" smooth="yes"/>
      <point x="168" y="705"/>
      <point x="157" y="701"/>
      <point x="142" y="694" type="curve"/>
      <point x="129" y="687"/>
      <point x="54" y="653"/>
      <point x="28" y="648" type="curve" smooth="yes"/>
      <point x="23" y="646"/>
      <point x="16" y="643"/>
      <point x="16" y="634" type="curve" smooth="yes"/>
      <point x="16" y="624"/>
      <point x="21" y="618"/>
      <point x="25" y="615" type="curve" smooth="yes"/>
      <point x="42" y="600"/>
      <point x="55" y="572"/>
      <point x="55" y="532" type="curve" smooth="yes"/>
      <point x="55" y="81" type="line" smooth="yes"/>
      <point x="55" y="56"/>
      <point x="51" y="21"/>
      <point x="51" y="9" type="curve" smooth="yes"/>
      <point x="51" y="2"/>
      <point x="61" y="-3"/>
      <point x="68" y="-3" type="curve" smooth="yes"/>
      <point x="71" y="-3"/>
      <point x="76" y="-1"/>
      <point x="79" y="2" type="curve" smooth="yes"/>
      <point x="86" y="8"/>
      <point x="105" y="23"/>
      <point x="115" y="23" type="curve" smooth="yes"/>
      <point x="130" y="23"/>
      <point x="150" y="14"/>
      <point x="174" y="5" type="curve" smooth="yes"/>
      <point x="199" y="-5"/>
      <point x="229" y="-14"/>
    </contour>
    <contour>
      <point x="273" y="46" type="curve" smooth="yes"/>
      <point x="228" y="46"/>
      <point x="195" y="75"/>
      <point x="195" y="141" type="curve" smooth="yes"/>
      <point x="195" y="303" type="line"/>
      <point x="212" y="325"/>
      <point x="235" y="341"/>
      <point x="265" y="341" type="curve" smooth="yes"/>
      <point x="325" y="341"/>
      <point x="343" y="272"/>
      <point x="343" y="203" type="curve" smooth="yes"/>
      <point x="343" y="119"/>
      <point x="316" y="46"/>
    </contour>
  </outline>
</glyph>
<glyph name="e" format="1">
  <advance width="390"/>
  <unicode hex="0065"/>
  <outline>
    <contour>
      <point x="271" y="-15"/>
      <point x="328" y="9"/>
      <point x="361" y="50" type="curve" smooth="yes"/>
      <point x="373" y="71"/>
      <point x="380" y="89"/>
      <point x="380" y="118" type="curve" smooth="yes"/>
      <point x="380" y="127"/>
      <point x="378" y="132"/>
      <point x="366" y="132" type="curve" smooth="yes"/>
      <point x="362" y="132"/>
      <point x="353" y="130"/>
      <point x="347" y="119" type="curve" smooth="yes"/>
      <point x="333" y="96"/>
      <point x="307" y="87"/>
      <point x="278" y="87" type="curve" smooth="yes"/>
      <point x="214" y="87"/>
      <point x="165" y="153"/>
      <point x="165" y="234" type="curve" smooth="yes"/>
      <point x="165" y="251"/>
      <point x="171" y="259"/>
      <point x="185" y="259" type="curve" smooth="yes"/>
      <point x="341" y="259" type="line" smooth="yes"/>
      <point x="365" y="259"/>
      <point x="375" y="270"/>
      <point x="375" y="294" type="curve" smooth="yes"/>
      <point x="375" y="375"/>
      <point x="311" y="432"/>
      <point x="224" y="432" type="curve" smooth="yes"/>
      <point x="110" y="432"/>
      <point x="13" y="332"/>
      <point x="13" y="212" type="curve" smooth="yes"/>
      <point x="13" y="76"/>
      <point x="93" y="-15"/>
      <point x="214" y="-15" type="curve" smooth="yes"/>
    </contour>
    <contour>
      <point x="178" y="313"/>
      <point x="176" y="315"/>
      <point x="176" y="320" type="curve" smooth="yes"/>
      <point x="176" y="349"/>
      <point x="200" y="376"/>
      <point x="225" y="376" type="curve" smooth="yes"/>
      <point x="249" y="376"/>
      <point x="271" y="355"/>
      <point x="271" y="330" type="curve" smooth="yes"/>
      <point x="271" y="321"/>
      <point x="270" y="317"/>
      <point x="267" y="316" type="curve" smooth="yes"/>
      <point x="255" y="314"/>
      <point x="245" y="313"/>
      <point x="228" y="313" type="curve" smooth="yes"/>
      <point x="183" y="313" type="line" smooth="yes"/>
    </contour>
  </outline>
</glyph>
<glyph name="f" format="1">
  <advance width="318"/>
  <unicode hex="0066"/>
  <outline>
    <contour>
      <point x="44" y="-3" type="curve" smooth="yes"/>
      <point x="84" y="-3"/>
      <point x="92" y="2"/>
      <point x="127" y="2" type="curve" smooth="yes"/>
      <point x="162" y="2"/>
      <point x="189" y="-3"/>
      <point x="229" y="-3" type="curve" smooth="yes"/>
      <point x="252" y="-3"/>
      <point x="264" y="1"/>
      <point x="264" y="16" type="curve" smooth="yes"/>
      <point x="264" y="24"/>
      <point x="260" y="32"/>
      <point x="247" y="35" type="curve" smooth="yes"/>
      <point x="222" y="42"/>
      <point x="209" y="56"/>
      <point x="209" y="93" type="curve" smooth="yes"/>
      <point x="209" y="294" type="line" smooth="yes"/>
      <point x="209" y="311"/>
      <point x="212" y="321"/>
      <point x="228" y="321" type="curve" smooth="yes"/>
      <point x="294" y="321" type="line" smooth="yes"/>
      <point x="297" y="321"/>
      <point x="301" y="328"/>
      <point x="303" y="338" type="curve" smooth="yes"/>
      <point x="307" y="355"/>
      <point x="309" y="380"/>
      <point x="309" y="389" type="curve" smooth="yes"/>
      <point x="309" y="395"/>
      <point x="303" y="400"/>
      <point x="296" y="400" type="curve" smooth="yes"/>
      <point x="218" y="400" type="line" smooth="yes"/>
      <point x="213" y="400"/>
      <point x="209" y="402"/>
      <point x="209" y="409" type="curve" smooth="yes"/>
      <point x="209" y="492" type="line" smooth="yes"/>
      <point x="209" y="598"/>
      <point x="246" y="652"/>
      <point x="297" y="652" type="curve" smooth="yes"/>
      <point x="328" y="652"/>
      <point x="346" y="621"/>
      <point x="357" y="599" type="curve" smooth="yes"/>
      <point x="366" y="582"/>
      <point x="373" y="573"/>
      <point x="392" y="573" type="curve" smooth="yes"/>
      <point x="408" y="573"/>
      <point x="432" y="586"/>
      <point x="432" y="627" type="curve" smooth="yes"/>
      <point x="432" y="672"/>
      <point x="378" y="706"/>
      <point x="303" y="706" type="curve" smooth="yes"/>
      <point x="211" y="706"/>
      <point x="72" y="639"/>
      <point x="68" y="416" type="curve" smooth="yes"/>
      <point x="68" y="406" type="line"/>
      <point x="50" y="396"/>
      <point x="37" y="388"/>
      <point x="16" y="376" type="curve" smooth="yes"/>
      <point x="14" y="375"/>
      <point x="10" y="373"/>
      <point x="10" y="359" type="curve" smooth="yes"/>
      <point x="10" y="344"/>
      <point x="18" y="324"/>
      <point x="22" y="321" type="curve"/>
      <point x="41" y="317"/>
      <point x="56" y="317"/>
      <point x="68" y="317" type="curve"/>
      <point x="68" y="90" type="line" smooth="yes"/>
      <point x="68" y="55"/>
      <point x="63" y="47"/>
      <point x="40" y="36" type="curve" smooth="yes"/>
      <point x="28" y="31"/>
      <point x="21" y="24"/>
      <point x="21" y="14" type="curve" smooth="yes"/>
      <point x="21" y="5"/>
      <point x="26" y="-3"/>
    </contour>
  </outline>
</glyph>
<glyph name="g" format="1">
  <advance width="435"/>
  <unicode hex="0067"/>
  <outline>
    <contour>
      <point x="194" y="-290" type="curve" smooth="yes"/>
      <point x="302" y="-290"/>
      <point x="417" y="-178"/>
      <point x="417" y="-72" type="curve" smooth="yes"/>
      <point x="417" y="19"/>
      <point x="358" y="31"/>
      <point x="237" y="52" type="curve" smooth="yes"/>
      <point x="184" y="61"/>
      <point x="136" y="69"/>
      <point x="136" y="92" type="curve" smooth="yes"/>
      <point x="136" y="108"/>
      <point x="160" y="120"/>
      <point x="189" y="129" type="curve"/>
      <point x="109" y="151" type="line"/>
      <point x="100" y="132"/>
      <point x="97" y="129"/>
      <point x="59" y="91" type="curve" smooth="yes"/>
      <point x="46" y="77"/>
      <point x="40" y="66"/>
      <point x="40" y="51" type="curve" smooth="yes"/>
      <point x="40" y="-31"/>
      <point x="73" y="-45"/>
      <point x="197" y="-67" type="curve" smooth="yes"/>
      <point x="280" y="-82"/>
      <point x="303" y="-100"/>
      <point x="303" y="-133" type="curve" smooth="yes"/>
      <point x="303" y="-170"/>
      <point x="287" y="-195"/>
      <point x="265" y="-215" type="curve" smooth="yes"/>
      <point x="247" y="-229"/>
      <point x="226" y="-236"/>
      <point x="198" y="-236" type="curve" smooth="yes"/>
      <point x="150" y="-236"/>
      <point x="113" y="-203"/>
      <point x="113" y="-161" type="curve" smooth="yes"/>
      <point x="113" y="-102"/>
      <point x="129" y="-72"/>
      <point x="173" y="-35" type="curve"/>
      <point x="127" y="-20" type="line"/>
      <point x="94" y="-48"/>
      <point x="61" y="-75"/>
      <point x="41" y="-91" type="curve" smooth="yes"/>
      <point x="18" y="-109"/>
      <point x="8" y="-132"/>
      <point x="8" y="-167" type="curve" smooth="yes"/>
      <point x="8" y="-243"/>
      <point x="81" y="-290"/>
    </contour>
    <contour>
      <point x="204" y="172" type="curve" smooth="yes"/>
      <point x="175" y="172"/>
      <point x="150" y="210"/>
      <point x="150" y="281" type="curve" smooth="yes"/>
      <point x="150" y="346"/>
      <point x="172" y="379"/>
      <point x="200" y="379" type="curve" smooth="yes"/>
      <point x="230" y="379"/>
      <point x="254" y="347"/>
      <point x="254" y="285" type="curve" smooth="yes"/>
      <point x="254" y="213"/>
      <point x="237" y="172"/>
    </contour>
    <contour>
      <point x="199" y="116" type="curve" smooth="yes"/>
      <point x="319" y="116"/>
      <point x="374" y="204"/>
      <point x="374" y="308" type="curve" smooth="yes"/>
      <point x="374" y="319"/>
      <point x="374" y="321"/>
      <point x="377" y="329" type="curve" smooth="yes"/>
      <point x="379" y="333"/>
      <point x="388" y="336"/>
      <point x="401" y="336" type="curve" smooth="yes"/>
      <point x="422" y="336" type="line"/>
      <point x="423" y="336"/>
      <point x="426" y="340"/>
      <point x="429" y="344" type="curve" smooth="yes"/>
      <point x="435" y="352"/>
      <point x="439" y="373"/>
      <point x="439" y="381" type="curve" smooth="yes"/>
      <point x="439" y="394"/>
      <point x="433" y="403"/>
      <point x="426" y="403" type="curve" smooth="yes"/>
      <point x="417" y="403"/>
      <point x="387" y="400"/>
      <point x="372" y="400" type="curve" smooth="yes"/>
      <point x="351" y="400"/>
      <point x="337" y="401"/>
      <point x="305" y="410" type="curve" smooth="yes"/>
      <point x="277" y="418"/>
      <point x="251" y="432"/>
      <point x="212" y="432" type="curve" smooth="yes"/>
      <point x="115" y="432"/>
      <point x="28" y="366"/>
      <point x="28" y="271" type="curve" smooth="yes"/>
      <point x="28" y="187"/>
      <point x="112" y="116"/>
    </contour>
  </outline>
</glyph>
<glyph name="h" format="1">
  <advance width="515"/>
  <unicode hex="0068"/>
  <outline>
    <contour>
      <point x="19" y="-3" type="curve" smooth="yes"/>
      <point x="54" y="-3"/>
      <point x="73" y="4"/>
      <point x="126" y="4" type="curve" smooth="yes"/>
      <point x="163" y="4"/>
      <point x="177" y="-3"/>
      <point x="220" y="-3" type="curve" smooth="yes"/>
      <point x="233" y="-3"/>
      <point x="241" y="1"/>
      <point x="241" y="11" type="curve" smooth="yes"/>
      <point x="241" y="23"/>
      <point x="237" y="31"/>
      <point x="225" y="34" type="curve" smooth="yes"/>
      <point x="211" y="38"/>
      <point x="195" y="45"/>
      <point x="195" y="73" type="curve" smooth="yes"/>
      <point x="195" y="281" type="line" smooth="yes"/>
      <point x="195" y="289"/>
      <point x="196" y="297"/>
      <point x="199" y="301" type="curve" smooth="yes"/>
      <point x="212" y="319"/>
      <point x="229" y="338"/>
      <point x="261" y="337" type="curve" smooth="yes"/>
      <point x="297" y="336"/>
      <point x="321" y="306"/>
      <point x="321" y="254" type="curve" smooth="yes"/>
      <point x="321" y="74" type="line" smooth="yes"/>
      <point x="321" y="46"/>
      <point x="305" y="38"/>
      <point x="291" y="33" type="curve" smooth="yes"/>
      <point x="279" y="29"/>
      <point x="275" y="23"/>
      <point x="275" y="11" type="curve" smooth="yes"/>
      <point x="275" y="1"/>
      <point x="283" y="-3"/>
      <point x="296" y="-3" type="curve" smooth="yes"/>
      <point x="339" y="-3"/>
      <point x="353" y="4"/>
      <point x="390" y="4" type="curve" smooth="yes"/>
      <point x="443" y="4"/>
      <point x="462" y="-3"/>
      <point x="497" y="-3" type="curve" smooth="yes"/>
      <point x="508" y="-3"/>
      <point x="514" y="1"/>
      <point x="514" y="11" type="curve" smooth="yes"/>
      <point x="514" y="26"/>
      <point x="508" y="29"/>
      <point x="495" y="34" type="curve" smooth="yes"/>
      <point x="479" y="40"/>
      <point x="461" y="46"/>
      <point x="461" y="74" type="curve" smooth="yes"/>
      <point x="461" y="287" type="line" smooth="yes"/>
      <point x="461" y="369"/>
      <point x="412" y="432"/>
      <point x="345" y="432" type="curve" smooth="yes"/>
      <point x="270" y="432"/>
      <point x="211" y="400"/>
      <point x="179" y="335" type="curve"/>
      <point x="216" y="345" type="line"/>
      <point x="200" y="352"/>
      <point x="193" y="363"/>
      <point x="193" y="408" type="curve" smooth="yes"/>
      <point x="193" y="573" type="line" smooth="yes"/>
      <point x="193" y="624"/>
      <point x="199" y="686"/>
      <point x="199" y="696" type="curve" smooth="yes"/>
      <point x="199" y="700"/>
      <point x="195" y="705"/>
      <point x="189" y="705" type="curve" smooth="yes"/>
      <point x="181" y="705"/>
      <point x="176" y="701"/>
      <point x="172" y="698" type="curve" smooth="yes"/>
      <point x="142" y="675"/>
      <point x="80" y="663"/>
      <point x="26" y="645" type="curve" smooth="yes"/>
      <point x="20" y="643"/>
      <point x="17" y="639"/>
      <point x="17" y="632" type="curve" smooth="yes"/>
      <point x="17" y="624"/>
      <point x="21" y="621"/>
      <point x="25" y="618" type="curve" smooth="yes"/>
      <point x="49" y="600"/>
      <point x="55" y="581"/>
      <point x="55" y="543" type="curve" smooth="yes"/>
      <point x="55" y="73" type="line" smooth="yes"/>
      <point x="55" y="45"/>
      <point x="37" y="38"/>
      <point x="21" y="33" type="curve" smooth="yes"/>
      <point x="7" y="29"/>
      <point x="2" y="26"/>
      <point x="2" y="11" type="curve" smooth="yes"/>
      <point x="2" y="1"/>
      <point x="8" y="-3"/>
    </contour>
  </outline>
</glyph>
<glyph name="i" format="1">
  <advance width="245"/>
  <unicode hex="0069"/>
  <outline>
    <contour>
      <point x="31" y="-3" type="curve" smooth="yes"/>
      <point x="76" y="-3"/>
      <point x="84" y="2"/>
      <point x="125" y="2" type="curve" smooth="yes"/>
      <point x="203" y="2"/>
      <point x="175" y="-3"/>
      <point x="219" y="-3" type="curve" smooth="yes"/>
      <point x="234" y="-3"/>
      <point x="243" y="5"/>
      <point x="243" y="16" type="curve" smooth="yes"/>
      <point x="243" y="28"/>
      <point x="239" y="33"/>
      <point x="228" y="36" type="curve" smooth="yes"/>
      <point x="209" y="41"/>
      <point x="196" y="50"/>
      <point x="196" y="88" type="curve" smooth="yes"/>
      <point x="196" y="294" type="line" smooth="yes"/>
      <point x="196" y="339"/>
      <point x="208" y="391"/>
      <point x="208" y="407" type="curve" smooth="yes"/>
      <point x="208" y="423"/>
      <point x="199" y="434"/>
      <point x="186" y="434" type="curve" smooth="yes"/>
      <point x="168" y="434"/>
      <point x="151" y="424"/>
      <point x="143" y="420" type="curve" smooth="yes"/>
      <point x="128" y="413"/>
      <point x="99" y="399"/>
      <point x="41" y="388" type="curve" smooth="yes"/>
      <point x="26" y="385"/>
      <point x="17" y="375"/>
      <point x="17" y="365" type="curve" smooth="yes"/>
      <point x="17" y="357"/>
      <point x="19" y="351"/>
      <point x="30" y="346" type="curve" smooth="yes"/>
      <point x="49" y="338"/>
      <point x="55" y="310"/>
      <point x="55" y="274" type="curve" smooth="yes"/>
      <point x="55" y="71" type="line" smooth="yes"/>
      <point x="55" y="47"/>
      <point x="50" y="41"/>
      <point x="27" y="33" type="curve" smooth="yes"/>
      <point x="15" y="29"/>
      <point x="8" y="23"/>
      <point x="8" y="14" type="curve" smooth="yes"/>
      <point x="8" y="5"/>
      <point x="13" y="-3"/>
    </contour>
    <contour>
      <point x="124" y="480" type="curve" smooth="yes"/>
      <point x="173" y="480"/>
      <point x="211" y="518"/>
      <point x="211" y="566" type="curve" smooth="yes"/>
      <point x="211" y="615"/>
      <point x="173" y="653"/>
      <point x="124" y="653" type="curve" smooth="yes"/>
      <point x="76" y="653"/>
      <point x="38" y="615"/>
      <point x="38" y="566" type="curve" smooth="yes"/>
      <point x="38" y="518"/>
      <point x="76" y="480"/>
    </contour>
  </outline>
</glyph>
<glyph name="l" format="1">
  <advance width="240"/>
  <unicode hex="006C"/>
  <outline>
    <contour>
      <point x="64" y="-3"/>
      <point x="83" y="2"/>
      <point x="118" y="2" type="curve" smooth="yes"/>
      <point x="153" y="2"/>
      <point x="176" y="-3"/>
      <point x="222" y="-3" type="curve" smooth="yes"/>
      <point x="227" y="-3"/>
      <point x="235" y="4"/>
      <point x="235" y="12" type="curve" smooth="yes"/>
      <point x="235" y="26"/>
      <point x="227" y="31"/>
      <point x="218" y="37" type="curve" smooth="yes"/>
      <point x="206" y="45"/>
      <point x="194" y="48"/>
      <point x="194" y="75" type="curve" smooth="yes"/>
      <point x="194" y="562" type="line" smooth="yes"/>
      <point x="194" y="652"/>
      <point x="198" y="676"/>
      <point x="198" y="688" type="curve" smooth="yes"/>
      <point x="198" y="697"/>
      <point x="193" y="705"/>
      <point x="185" y="705" type="curve" smooth="yes"/>
      <point x="178" y="705"/>
      <point x="167" y="703"/>
      <point x="155" y="699" type="curve" smooth="yes"/>
      <point x="114" y="685"/>
      <point x="75" y="676"/>
      <point x="37" y="667" type="curve" smooth="yes"/>
      <point x="20" y="663"/>
      <point x="9" y="655"/>
      <point x="9" y="641" type="curve" smooth="yes"/>
      <point x="9" y="629"/>
      <point x="16" y="623"/>
      <point x="28" y="619" type="curve" smooth="yes"/>
      <point x="45" y="613"/>
      <point x="53" y="587"/>
      <point x="53" y="548" type="curve" smooth="yes"/>
      <point x="53" y="78" type="line" smooth="yes"/>
      <point x="53" y="43"/>
      <point x="42" y="37"/>
      <point x="22" y="32" type="curve" smooth="yes"/>
      <point x="14" y="30"/>
      <point x="5" y="26"/>
      <point x="5" y="13" type="curve" smooth="yes"/>
      <point x="5" y="2"/>
      <point x="18" y="-3"/>
      <point x="25" y="-3" type="curve" smooth="yes"/>
    </contour>
  </outline>
</glyph>
<glyph name="m" format="1">
  <advance width="778"/>
  <unicode hex="006D"/>
  <outline>
    <contour>
      <point x="30" y="-3" type="curve" smooth="yes"/>
      <point x="78" y="-3"/>
      <point x="85" y="2"/>
      <point x="126" y="2" type="curve" smooth="yes"/>
      <point x="168" y="2"/>
      <point x="174" y="-3"/>
      <point x="222" y="-3" type="curve" smooth="yes"/>
      <point x="236" y="-3"/>
      <point x="246" y="1"/>
      <point x="246" y="13" type="curve" smooth="yes"/>
      <point x="246" y="26"/>
      <point x="237" y="29"/>
      <point x="229" y="34" type="curve" smooth="yes"/>
      <point x="216" y="42"/>
      <point x="200" y="45"/>
      <point x="200" y="72" type="curve" smooth="yes"/>
      <point x="200" y="286" type="line" smooth="yes"/>
      <point x="200" y="303"/>
      <point x="205" y="316"/>
      <point x="217" y="323" type="curve" smooth="yes"/>
      <point x="234" y="333"/>
      <point x="246" y="337"/>
      <point x="268" y="337" type="curve" smooth="yes"/>
      <point x="295" y="337"/>
      <point x="315" y="313"/>
      <point x="315" y="288" type="curve" smooth="yes"/>
      <point x="315" y="62" type="line" smooth="yes"/>
      <point x="315" y="39"/>
      <point x="300" y="34"/>
      <point x="288" y="30" type="curve" smooth="yes"/>
      <point x="280" y="27"/>
      <point x="273" y="24"/>
      <point x="273" y="15" type="curve" smooth="yes"/>
      <point x="273" y="2"/>
      <point x="285" y="-3"/>
      <point x="300" y="-3" type="curve" smooth="yes"/>
      <point x="346" y="-3"/>
      <point x="355" y="2"/>
      <point x="395" y="2" type="curve" smooth="yes"/>
      <point x="435" y="2"/>
      <point x="443" y="-3"/>
      <point x="489" y="-3" type="curve" smooth="yes"/>
      <point x="504" y="-3"/>
      <point x="512" y="2"/>
      <point x="512" y="15" type="curve" smooth="yes"/>
      <point x="512" y="24"/>
      <point x="504" y="31"/>
      <point x="494" y="34" type="curve" smooth="yes"/>
      <point x="478" y="39"/>
      <point x="459" y="45"/>
      <point x="459" y="72" type="curve" smooth="yes"/>
      <point x="459" y="275" type="line" smooth="yes"/>
      <point x="459" y="297"/>
      <point x="466" y="312"/>
      <point x="478" y="320" type="curve" smooth="yes"/>
      <point x="495" y="331"/>
      <point x="509" y="337"/>
      <point x="531" y="337" type="curve" smooth="yes"/>
      <point x="559" y="337"/>
      <point x="580" y="308"/>
      <point x="580" y="277" type="curve" smooth="yes"/>
      <point x="580" y="70" type="line" smooth="yes"/>
      <point x="580" y="43"/>
      <point x="565" y="37"/>
      <point x="550" y="32" type="curve" smooth="yes"/>
      <point x="541" y="29"/>
      <point x="534" y="23"/>
      <point x="534" y="13" type="curve" smooth="yes"/>
      <point x="534" y="1"/>
      <point x="543" y="-3"/>
      <point x="557" y="-3" type="curve" smooth="yes"/>
      <point x="604" y="-3"/>
      <point x="613" y="2"/>
      <point x="654" y="2" type="curve" smooth="yes"/>
      <point x="695" y="2"/>
      <point x="700" y="-3"/>
      <point x="747" y="-3" type="curve" smooth="yes"/>
      <point x="766" y="-3"/>
      <point x="773" y="1"/>
      <point x="773" y="11" type="curve" smooth="yes"/>
      <point x="773" y="24"/>
      <point x="767" y="29"/>
      <point x="755" y="33" type="curve" smooth="yes"/>
      <point x="739" y="38"/>
      <point x="720" y="44"/>
      <point x="720" y="71" type="curve" smooth="yes"/>
      <point x="720" y="293" type="line" smooth="yes"/>
      <point x="720" y="363"/>
      <point x="688" y="432"/>
      <point x="622" y="432" type="curve" smooth="yes"/>
      <point x="556" y="432"/>
      <point x="500" y="401"/>
      <point x="460" y="363" type="curve"/>
      <point x="457" y="363" type="line"/>
      <point x="435" y="414"/>
      <point x="407" y="432"/>
      <point x="358" y="432" type="curve" smooth="yes"/>
      <point x="280" y="432"/>
      <point x="235" y="394"/>
      <point x="204" y="365" type="curve"/>
      <point x="202" y="365" type="line"/>
      <point x="201" y="366"/>
      <point x="200" y="371"/>
      <point x="200" y="377" type="curve" smooth="yes"/>
      <point x="200" y="396"/>
      <point x="205" y="414"/>
      <point x="205" y="423" type="curve" smooth="yes"/>
      <point x="205" y="441"/>
      <point x="201" y="448"/>
      <point x="186" y="448" type="curve" smooth="yes"/>
      <point x="172" y="448"/>
      <point x="165" y="438"/>
      <point x="141" y="428" type="curve" smooth="yes"/>
      <point x="114" y="417"/>
      <point x="81" y="405"/>
      <point x="46" y="394" type="curve" smooth="yes"/>
      <point x="27" y="388"/>
      <point x="23" y="388"/>
      <point x="23" y="380" type="curve" smooth="yes"/>
      <point x="23" y="372"/>
      <point x="25" y="366"/>
      <point x="38" y="361" type="curve" smooth="yes"/>
      <point x="57" y="354"/>
      <point x="60" y="331"/>
      <point x="60" y="295" type="curve" smooth="yes"/>
      <point x="60" y="83" type="line" smooth="yes"/>
      <point x="60" y="47"/>
      <point x="41" y="40"/>
      <point x="26" y="33" type="curve" smooth="yes"/>
      <point x="15" y="28"/>
      <point x="7" y="23"/>
      <point x="7" y="13" type="curve" smooth="yes"/>
      <point x="7" y="0"/>
      <point x="17" y="-3"/>
    </contour>
  </outline>
</glyph>
<glyph name="n" format="1">
  <advance width="528"/>
  <unicode hex="006E"/>
  <outline>
    <contour>
      <point x="27" y="-3" type="curve" smooth="yes"/>
      <point x="62" y="-3"/>
      <point x="81" y="4"/>
      <point x="134" y="4" type="curve" smooth="yes"/>
      <point x="171" y="4"/>
      <point x="185" y="-3"/>
      <point x="228" y="-3" type="curve" smooth="yes"/>
      <point x="241" y="-3"/>
      <point x="249" y="1"/>
      <point x="249" y="11" type="curve" smooth="yes"/>
      <point x="249" y="23"/>
      <point x="245" y="31"/>
      <point x="233" y="34" type="curve" smooth="yes"/>
      <point x="219" y="38"/>
      <point x="203" y="45"/>
      <point x="203" y="73" type="curve" smooth="yes"/>
      <point x="203" y="281" type="line" smooth="yes"/>
      <point x="203" y="289"/>
      <point x="204" y="297"/>
      <point x="207" y="301" type="curve" smooth="yes"/>
      <point x="220" y="319"/>
      <point x="237" y="338"/>
      <point x="269" y="337" type="curve" smooth="yes"/>
      <point x="305" y="336"/>
      <point x="329" y="306"/>
      <point x="329" y="254" type="curve" smooth="yes"/>
      <point x="329" y="74" type="line" smooth="yes"/>
      <point x="329" y="46"/>
      <point x="313" y="38"/>
      <point x="299" y="33" type="curve" smooth="yes"/>
      <point x="288" y="27"/>
      <point x="283" y="23"/>
      <point x="283" y="11" type="curve" smooth="yes"/>
      <point x="283" y="1"/>
      <point x="291" y="-3"/>
      <point x="304" y="-3" type="curve" smooth="yes"/>
      <point x="347" y="-3"/>
      <point x="361" y="4"/>
      <point x="398" y="4" type="curve" smooth="yes"/>
      <point x="451" y="4"/>
      <point x="470" y="-3"/>
      <point x="505" y="-3" type="curve" smooth="yes"/>
      <point x="516" y="-3"/>
      <point x="522" y="1"/>
      <point x="522" y="11" type="curve" smooth="yes"/>
      <point x="522" y="26"/>
      <point x="516" y="29"/>
      <point x="503" y="34" type="curve" smooth="yes"/>
      <point x="487" y="40"/>
      <point x="469" y="46"/>
      <point x="469" y="74" type="curve" smooth="yes"/>
      <point x="469" y="287" type="line" smooth="yes"/>
      <point x="469" y="369"/>
      <point x="420" y="432"/>
      <point x="353" y="432" type="curve" smooth="yes"/>
      <point x="289" y="432"/>
      <point x="237" y="409"/>
      <point x="203" y="362" type="curve"/>
      <point x="202" y="363"/>
      <point x="201" y="369"/>
      <point x="201" y="375" type="curve" smooth="yes"/>
      <point x="201" y="395"/>
      <point x="207" y="432"/>
      <point x="207" y="442" type="curve" smooth="yes"/>
      <point x="207" y="446"/>
      <point x="203" y="451"/>
      <point x="197" y="451" type="curve" smooth="yes"/>
      <point x="189" y="451"/>
      <point x="184" y="447"/>
      <point x="180" y="444" type="curve" smooth="yes"/>
      <point x="150" y="421"/>
      <point x="89" y="406"/>
      <point x="34" y="391" type="curve" smooth="yes"/>
      <point x="28" y="389"/>
      <point x="25" y="385"/>
      <point x="25" y="378" type="curve" smooth="yes"/>
      <point x="25" y="370"/>
      <point x="29" y="367"/>
      <point x="33" y="364" type="curve" smooth="yes"/>
      <point x="58" y="348"/>
      <point x="63" y="327"/>
      <point x="63" y="289" type="curve" smooth="yes"/>
      <point x="63" y="73" type="line" smooth="yes"/>
      <point x="63" y="45"/>
      <point x="45" y="38"/>
      <point x="29" y="33" type="curve" smooth="yes"/>
      <point x="16" y="27"/>
      <point x="10" y="26"/>
      <point x="10" y="11" type="curve" smooth="yes"/>
      <point x="10" y="1"/>
      <point x="16" y="-3"/>
    </contour>
  </outline>
</glyph>
<glyph name="o" format="1">
  <advance width="495"/>
  <unicode hex="006F"/>
  <outline>
    <contour>
      <point x="233" y="-14" type="curve" smooth="yes"/>
      <point x="375" y="-14"/>
      <point x="475" y="84"/>
      <point x="475" y="223" type="curve" smooth="yes"/>
      <point x="475" y="338"/>
      <point x="376" y="432"/>
      <point x="254" y="432" type="curve" smooth="yes"/>
      <point x="131" y="432"/>
      <point x="20" y="319"/>
      <point x="20" y="195" type="curve" smooth="yes"/>
      <point x="20" y="76"/>
      <point x="111" y="-14"/>
    </contour>
    <contour>
      <point x="252" y="46" type="curve" smooth="yes"/>
      <point x="208" y="46"/>
      <point x="171" y="124"/>
      <point x="171" y="217" type="curve" smooth="yes"/>
      <point x="171" y="319"/>
      <point x="195" y="371"/>
      <point x="241" y="371" type="curve" smooth="yes"/>
      <point x="287" y="371"/>
      <point x="325" y="293"/>
      <point x="325" y="200" type="curve" smooth="yes"/>
      <point x="325" y="97"/>
      <point x="301" y="46"/>
    </contour>
  </outline>
</glyph>
<glyph name="q" format="1">
  <advance width="522"/>
  <unicode hex="0071"/>
  <outline>
    <contour>
      <point x="304" y="-285" type="curve" smooth="yes"/>
      <point x="347" y="-285"/>
      <point x="361" y="-278"/>
      <point x="398" y="-278" type="curve" smooth="yes"/>
      <point x="451" y="-278"/>
      <point x="470" y="-285"/>
      <point x="505" y="-285" type="curve" smooth="yes"/>
      <point x="516" y="-285"/>
      <point x="522" y="-281"/>
      <point x="522" y="-271" type="curve" smooth="yes"/>
      <point x="522" y="-256"/>
      <point x="516" y="-253"/>
      <point x="503" y="-248" type="curve" smooth="yes"/>
      <point x="487" y="-242"/>
      <point x="469" y="-236"/>
      <point x="469" y="-208" type="curve" smooth="yes"/>
      <point x="469" y="295" type="line" smooth="yes"/>
      <point x="469" y="357"/>
      <point x="481" y="407"/>
      <point x="481" y="421" type="curve" smooth="yes"/>
      <point x="481" y="434"/>
      <point x="466" y="439"/>
      <point x="455" y="439" type="curve" smooth="yes"/>
      <point x="450" y="439"/>
      <point x="446" y="436"/>
      <point x="444" y="435" type="curve"/>
      <point x="436" y="420"/>
      <point x="431" y="410"/>
      <point x="416" y="410" type="curve" smooth="yes"/>
      <point x="411" y="410"/>
      <point x="353" y="432"/>
      <point x="281" y="432" type="curve" smooth="yes"/>
      <point x="126" y="432"/>
      <point x="20" y="337"/>
      <point x="20" y="196" type="curve" smooth="yes"/>
      <point x="20" y="60"/>
      <point x="106" y="-14"/>
      <point x="201" y="-14" type="curve" smooth="yes"/>
      <point x="249" y="-14"/>
      <point x="301" y="29"/>
      <point x="315" y="46" type="curve" smooth="yes"/>
      <point x="318" y="49"/>
      <point x="321" y="48"/>
      <point x="324" y="48" type="curve" smooth="yes"/>
      <point x="327" y="48"/>
      <point x="329" y="41"/>
      <point x="329" y="16" type="curve" smooth="yes"/>
      <point x="329" y="-208" type="line" smooth="yes"/>
      <point x="329" y="-236"/>
      <point x="313" y="-244"/>
      <point x="299" y="-249" type="curve" smooth="yes"/>
      <point x="287" y="-253"/>
      <point x="283" y="-259"/>
      <point x="283" y="-271" type="curve" smooth="yes"/>
      <point x="283" y="-281"/>
      <point x="291" y="-285"/>
    </contour>
    <contour>
      <point x="260" y="78" type="curve" smooth="yes"/>
      <point x="225" y="78"/>
      <point x="172" y="106"/>
      <point x="172" y="221" type="curve" smooth="yes"/>
      <point x="172" y="321"/>
      <point x="211" y="374"/>
      <point x="251" y="374" type="curve" smooth="yes"/>
      <point x="288" y="374"/>
      <point x="318" y="334"/>
      <point x="318" y="282" type="curve" smooth="yes"/>
      <point x="318" y="260"/>
      <point x="319" y="144"/>
      <point x="319" y="113" type="curve"/>
      <point x="309" y="97"/>
      <point x="284" y="78"/>
    </contour>
  </outline>
</glyph>
<glyph name="r" format="1">
  <advance width="334"/>
  <unicode hex="0072"/>
  <outline>
    <contour>
      <point x="25" y="-3" type="curve" smooth="yes"/>
      <point x="65" y="-3"/>
      <point x="95" y="2"/>
      <point x="130" y="2" type="curve" smooth="yes"/>
      <point x="189" y="2"/>
      <point x="211" y="-3"/>
      <point x="246" y="-3" type="curve" smooth="yes"/>
      <point x="258" y="-3"/>
      <point x="263" y="0"/>
      <point x="263" y="10" type="curve" smooth="yes"/>
      <point x="263" y="20"/>
      <point x="256" y="27"/>
      <point x="244" y="30" type="curve" smooth="yes"/>
      <point x="212" y="39"/>
      <point x="198" y="49"/>
      <point x="198" y="71" type="curve" smooth="yes"/>
      <point x="198" y="226" type="line" smooth="yes"/>
      <point x="198" y="314"/>
      <point x="213" y="330"/>
      <point x="230" y="330" type="curve" smooth="yes"/>
      <point x="244" y="330"/>
      <point x="251" y="320"/>
      <point x="259" y="310" type="curve" smooth="yes"/>
      <point x="267" y="300"/>
      <point x="276" y="291"/>
      <point x="295" y="291" type="curve" smooth="yes"/>
      <point x="314" y="291"/>
      <point x="333" y="344"/>
      <point x="333" y="374" type="curve" smooth="yes"/>
      <point x="333" y="414"/>
      <point x="309" y="432"/>
      <point x="282" y="432" type="curve" smooth="yes"/>
      <point x="250" y="432"/>
      <point x="213" y="404"/>
      <point x="197" y="360" type="curve"/>
      <point x="196" y="360"/>
      <point x="195" y="361"/>
      <point x="195" y="362" type="curve"/>
      <point x="197" y="394"/>
      <point x="198" y="436"/>
      <point x="198" y="443" type="curve"/>
      <point x="198" y="447"/>
      <point x="196" y="450"/>
      <point x="193" y="450" type="curve" smooth="yes"/>
      <point x="190" y="450"/>
      <point x="183" y="448"/>
      <point x="175" y="443" type="curve" smooth="yes"/>
      <point x="154" y="430"/>
      <point x="60" y="397"/>
      <point x="24" y="388" type="curve" smooth="yes"/>
      <point x="20" y="387"/>
      <point x="15" y="382"/>
      <point x="14" y="376" type="curve" smooth="yes"/>
      <point x="13" y="370"/>
      <point x="18" y="364"/>
      <point x="22" y="363" type="curve" smooth="yes"/>
      <point x="51" y="356"/>
      <point x="58" y="327"/>
      <point x="58" y="291" type="curve" smooth="yes"/>
      <point x="58" y="76" type="line" smooth="yes"/>
      <point x="58" y="50"/>
      <point x="46" y="43"/>
      <point x="25" y="34" type="curve" smooth="yes"/>
      <point x="12" y="28"/>
      <point x="5" y="26"/>
      <point x="5" y="12" type="curve" smooth="yes"/>
      <point x="5" y="1"/>
      <point x="11" y="-3"/>
    </contour>
  </outline>
</glyph>
<glyph name="s" format="1">
  <advance width="323"/>
  <unicode hex="0073"/>
  <outline>
    <contour>
      <point x="143" y="-14" type="curve" smooth="yes"/>
      <point x="238" y="-14"/>
      <point x="303" y="42"/>
      <point x="303" y="124" type="curve" smooth="yes"/>
      <point x="303" y="193"/>
      <point x="259" y="225"/>
      <point x="199" y="264" type="curve" smooth="yes"/>
      <point x="140" y="302"/>
      <point x="128" y="315"/>
      <point x="128" y="339" type="curve" smooth="yes"/>
      <point x="128" y="369"/>
      <point x="148" y="383"/>
      <point x="174" y="383" type="curve" smooth="yes"/>
      <point x="209" y="383"/>
      <point x="231" y="357"/>
      <point x="248" y="314" type="curve" smooth="yes"/>
      <point x="252" y="303"/>
      <point x="264" y="294"/>
      <point x="282" y="294" type="curve" smooth="yes"/>
      <point x="290" y="294"/>
      <point x="299" y="302"/>
      <point x="299" y="309" type="curve" smooth="yes"/>
      <point x="299" y="341"/>
      <point x="288" y="393"/>
      <point x="277" y="410" type="curve"/>
      <point x="262" y="420"/>
      <point x="231" y="432"/>
      <point x="185" y="432" type="curve" smooth="yes"/>
      <point x="81" y="432"/>
      <point x="29" y="369"/>
      <point x="29" y="291" type="curve" smooth="yes"/>
      <point x="29" y="229"/>
      <point x="64" y="193"/>
      <point x="125" y="152" type="curve" smooth="yes"/>
      <point x="181" y="114"/>
      <point x="192" y="100"/>
      <point x="192" y="78" type="curve" smooth="yes"/>
      <point x="192" y="54"/>
      <point x="174" y="37"/>
      <point x="145" y="37" type="curve" smooth="yes"/>
      <point x="114" y="37"/>
      <point x="81" y="55"/>
      <point x="65" y="113" type="curve"/>
      <point x="63" y="125"/>
      <point x="51" y="129"/>
      <point x="42" y="129" type="curve" smooth="yes"/>
      <point x="28" y="129"/>
      <point x="17" y="122"/>
      <point x="17" y="109" type="curve"/>
      <point x="19" y="85"/>
      <point x="22" y="39"/>
      <point x="30" y="25" type="curve"/>
      <point x="57" y="0"/>
      <point x="98" y="-14"/>
    </contour>
  </outline>
</glyph>
<glyph name="t" format="1">
  <advance width="314"/>
  <unicode hex="0074"/>
  <outline>
    <contour>
      <point x="189" y="-14" type="curve" smooth="yes"/>
      <point x="250" y="-14"/>
      <point x="306" y="36"/>
      <point x="306" y="47" type="curve" smooth="yes"/>
      <point x="306" y="59"/>
      <point x="297" y="79"/>
      <point x="288" y="79" type="curve" smooth="yes"/>
      <point x="286" y="79"/>
      <point x="283" y="78"/>
      <point x="280" y="76" type="curve" smooth="yes"/>
      <point x="273" y="71"/>
      <point x="262" y="64"/>
      <point x="248" y="64" type="curve" smooth="yes"/>
      <point x="223" y="64"/>
      <point x="213" y="88"/>
      <point x="213" y="129" type="curve" smooth="yes"/>
      <point x="213" y="296" type="line" smooth="yes"/>
      <point x="213" y="325"/>
      <point x="224" y="335"/>
      <point x="253" y="335" type="curve" smooth="yes"/>
      <point x="284" y="335" type="line" smooth="yes"/>
      <point x="298" y="335"/>
      <point x="304" y="354"/>
      <point x="304" y="370" type="curve" smooth="yes"/>
      <point x="304" y="386"/>
      <point x="298" y="400"/>
      <point x="284" y="400" type="curve" smooth="yes"/>
      <point x="244" y="400" type="line" smooth="yes"/>
      <point x="220" y="400"/>
      <point x="206" y="404"/>
      <point x="209" y="419" type="curve" smooth="yes"/>
      <point x="216" y="464" type="line" smooth="yes"/>
      <point x="218" y="473"/>
      <point x="201" y="475"/>
      <point x="193" y="475" type="curve" smooth="yes"/>
      <point x="183" y="475"/>
      <point x="170" y="470"/>
      <point x="161" y="463" type="curve" smooth="yes"/>
      <point x="134" y="442"/>
      <point x="111" y="423"/>
      <point x="55" y="396" type="curve" smooth="yes"/>
      <point x="41" y="391"/>
      <point x="28" y="381"/>
      <point x="28" y="365" type="curve" smooth="yes"/>
      <point x="28" y="349"/>
      <point x="32" y="335"/>
      <point x="43" y="335" type="curve" smooth="yes"/>
      <point x="55" y="335" type="line" smooth="yes"/>
      <point x="69" y="335"/>
      <point x="73" y="331"/>
      <point x="73" y="320" type="curve" smooth="yes"/>
      <point x="73" y="105" type="line" smooth="yes"/>
      <point x="73" y="14"/>
      <point x="114" y="-14"/>
    </contour>
  </outline>
</glyph>
<glyph name="u" format="1">
  <advance width="527"/>
  <unicode hex="0075"/>
  <outline>
    <contour>
      <point x="324" y="-19" type="curve" smooth="yes"/>
      <point x="332" y="-19"/>
      <point x="344" y="-15"/>
      <point x="350" y="-13" type="curve"/>
      <point x="387" y="-1"/>
      <point x="428" y="14"/>
      <point x="494" y="21" type="curve" smooth="yes"/>
      <point x="507" y="22"/>
      <point x="517" y="27"/>
      <point x="517" y="41" type="curve" smooth="yes"/>
      <point x="517" y="54"/>
      <point x="509" y="60"/>
      <point x="501" y="60" type="curve" smooth="yes"/>
      <point x="495" y="60"/>
      <point x="484" y="56"/>
      <point x="478" y="56" type="curve" smooth="yes"/>
      <point x="471" y="56"/>
      <point x="466" y="77"/>
      <point x="466" y="129" type="curve" smooth="yes"/>
      <point x="466" y="360" type="line" smooth="yes"/>
      <point x="466" y="376"/>
      <point x="471" y="422"/>
      <point x="473" y="429" type="curve" smooth="yes"/>
      <point x="474" y="433"/>
      <point x="475" y="436"/>
      <point x="475" y="438" type="curve" smooth="yes"/>
      <point x="475" y="445"/>
      <point x="469" y="449"/>
      <point x="462" y="449" type="curve" smooth="yes"/>
      <point x="457" y="449"/>
      <point x="453" y="448"/>
      <point x="448" y="446" type="curve"/>
      <point x="400" y="429"/>
      <point x="366" y="421"/>
      <point x="284" y="421" type="curve" smooth="yes"/>
      <point x="271" y="421"/>
      <point x="257" y="414"/>
      <point x="257" y="398" type="curve" smooth="yes"/>
      <point x="257" y="381"/>
      <point x="264" y="378"/>
      <point x="273" y="378" type="curve" smooth="yes"/>
      <point x="288" y="378"/>
      <point x="322" y="369"/>
      <point x="322" y="328" type="curve" smooth="yes"/>
      <point x="322" y="157" type="line" smooth="yes"/>
      <point x="322" y="124"/>
      <point x="304" y="105"/>
      <point x="296" y="96" type="curve" smooth="yes"/>
      <point x="282" y="81"/>
      <point x="268" y="80"/>
      <point x="248" y="80" type="curve" smooth="yes"/>
      <point x="223" y="80"/>
      <point x="200" y="115"/>
      <point x="200" y="154" type="curve" smooth="yes"/>
      <point x="200" y="358" type="line" smooth="yes"/>
      <point x="200" y="388"/>
      <point x="204" y="404"/>
      <point x="209" y="435" type="curve" smooth="yes"/>
      <point x="210" y="446"/>
      <point x="203" y="449"/>
      <point x="195" y="449" type="curve" smooth="yes"/>
      <point x="191" y="449"/>
      <point x="189" y="449"/>
      <point x="184" y="447" type="curve" smooth="yes"/>
      <point x="131" y="433"/>
      <point x="107" y="431"/>
      <point x="43" y="421" type="curve" smooth="yes"/>
      <point x="32" y="420"/>
      <point x="22" y="415"/>
      <point x="22" y="395" type="curve" smooth="yes"/>
      <point x="22" y="382"/>
      <point x="26" y="378"/>
      <point x="31" y="376" type="curve"/>
      <point x="51" y="362"/>
      <point x="60" y="343"/>
      <point x="60" y="308" type="curve" smooth="yes"/>
      <point x="60" y="105" type="line" smooth="yes"/>
      <point x="60" y="27"/>
      <point x="106" y="-14"/>
      <point x="167" y="-14" type="curve" smooth="yes"/>
      <point x="225" y="-14"/>
      <point x="273" y="6"/>
      <point x="322" y="57" type="curve"/>
      <point x="322" y="55"/>
      <point x="322" y="53"/>
      <point x="322" y="51" type="curve" smooth="yes"/>
      <point x="322" y="34"/>
      <point x="317" y="2"/>
      <point x="317" y="-11" type="curve" smooth="yes"/>
      <point x="317" y="-16"/>
      <point x="319" y="-19"/>
    </contour>
  </outline>
</glyph>
<glyph name="x" format="1">
  <advance width="430"/>
  <unicode hex="0078"/>
  <outline>
    <contour>
      <point x="32" y="-6" type="curve" smooth="yes"/>
      <point x="49" y="-6"/>
      <point x="59" y="1"/>
      <point x="97" y="1" type="curve" smooth="yes"/>
      <point x="113" y="1"/>
      <point x="138" y="-3"/>
      <point x="148" y="-3" type="curve" smooth="yes"/>
      <point x="154" y="-3"/>
      <point x="172" y="-5"/>
      <point x="172" y="11" type="curve" smooth="yes"/>
      <point x="172" y="25"/>
      <point x="159" y="33"/>
      <point x="153" y="36" type="curve" smooth="yes"/>
      <point x="147" y="39"/>
      <point x="145" y="43"/>
      <point x="145" y="48" type="curve" smooth="yes"/>
      <point x="145" y="55"/>
      <point x="148" y="61"/>
      <point x="152" y="66" type="curve" smooth="yes"/>
      <point x="191" y="135" type="line" smooth="yes"/>
      <point x="193" y="139"/>
      <point x="197" y="141"/>
      <point x="200" y="135" type="curve" smooth="yes"/>
      <point x="236" y="75" type="line" smooth="yes"/>
      <point x="239" y="69"/>
      <point x="239" y="65"/>
      <point x="239" y="61" type="curve" smooth="yes"/>
      <point x="239" y="49"/>
      <point x="232" y="44"/>
      <point x="226" y="41" type="curve" smooth="yes"/>
      <point x="216" y="35"/>
      <point x="210" y="30"/>
      <point x="210" y="13" type="curve" smooth="yes"/>
      <point x="210" y="5"/>
      <point x="216" y="-1"/>
      <point x="233" y="-1" type="curve" smooth="yes"/>
      <point x="256" y="-1"/>
      <point x="297" y="1"/>
      <point x="321" y="1" type="curve" smooth="yes"/>
      <point x="371" y="1"/>
      <point x="364" y="-4"/>
      <point x="405" y="-4" type="curve" smooth="yes"/>
      <point x="413" y="-4"/>
      <point x="425" y="-3"/>
      <point x="425" y="9" type="curve" smooth="yes"/>
      <point x="425" y="24"/>
      <point x="415" y="30"/>
      <point x="405" y="34" type="curve" smooth="yes"/>
      <point x="387" y="42"/>
      <point x="379" y="58"/>
      <point x="360" y="90" type="curve" smooth="yes"/>
      <point x="274" y="237" type="line" smooth="yes"/>
      <point x="271" y="242"/>
      <point x="271" y="247"/>
      <point x="273" y="250" type="curve" smooth="yes"/>
      <point x="324" y="332" type="line" smooth="yes"/>
      <point x="342" y="359"/>
      <point x="370" y="373"/>
      <point x="388" y="380" type="curve" smooth="yes"/>
      <point x="401" y="385"/>
      <point x="412" y="392"/>
      <point x="412" y="407" type="curve" smooth="yes"/>
      <point x="412" y="420"/>
      <point x="400" y="421"/>
      <point x="391" y="421" type="curve" smooth="yes"/>
      <point x="374" y="421"/>
      <point x="364" y="416"/>
      <point x="326" y="416" type="curve" smooth="yes"/>
      <point x="310" y="416"/>
      <point x="285" y="418"/>
      <point x="275" y="418" type="curve" smooth="yes"/>
      <point x="269" y="418"/>
      <point x="251" y="420"/>
      <point x="251" y="404" type="curve" smooth="yes"/>
      <point x="251" y="390"/>
      <point x="264" y="382"/>
      <point x="270" y="379" type="curve" smooth="yes"/>
      <point x="276" y="376"/>
      <point x="278" y="372"/>
      <point x="278" y="367" type="curve" smooth="yes"/>
      <point x="278" y="360"/>
      <point x="274" y="354"/>
      <point x="271" y="349" type="curve" smooth="yes"/>
      <point x="241" y="295" type="line" smooth="yes"/>
      <point x="238" y="291"/>
      <point x="235" y="290"/>
      <point x="232" y="295" type="curve" smooth="yes"/>
      <point x="202" y="344" type="line" smooth="yes"/>
      <point x="199" y="349"/>
      <point x="199" y="353"/>
      <point x="199" y="357" type="curve" smooth="yes"/>
      <point x="199" y="369"/>
      <point x="206" y="374"/>
      <point x="212" y="377" type="curve" smooth="yes"/>
      <point x="222" y="382"/>
      <point x="228" y="389"/>
      <point x="228" y="405" type="curve" smooth="yes"/>
      <point x="228" y="413"/>
      <point x="222" y="419"/>
      <point x="205" y="419" type="curve" smooth="yes"/>
      <point x="182" y="419"/>
      <point x="141" y="417"/>
      <point x="117" y="417" type="curve" smooth="yes"/>
      <point x="67" y="417"/>
      <point x="74" y="422"/>
      <point x="33" y="422" type="curve" smooth="yes"/>
      <point x="25" y="422"/>
      <point x="13" y="421"/>
      <point x="13" y="409" type="curve" smooth="yes"/>
      <point x="13" y="394"/>
      <point x="23" y="389"/>
      <point x="33" y="384" type="curve" smooth="yes"/>
      <point x="51" y="377"/>
      <point x="58" y="360"/>
      <point x="78" y="328" type="curve" smooth="yes"/>
      <point x="159" y="197" type="line" smooth="yes"/>
      <point x="162" y="192"/>
      <point x="162" y="187"/>
      <point x="160" y="183" type="curve" smooth="yes"/>
      <point x="99" y="83" type="line" smooth="yes"/>
      <point x="81" y="55"/>
      <point x="53" y="42"/>
      <point x="35" y="35" type="curve" smooth="yes"/>
      <point x="22" y="30"/>
      <point x="11" y="23"/>
      <point x="11" y="8" type="curve" smooth="yes"/>
      <point x="11" y="-5"/>
      <point x="23" y="-6"/>
    </contour>
  </outline>
</glyph>
<glyph name="y" format="1">
  <advance width="438"/>
  <unicode hex="0079"/>
  <outline>
    <contour>
      <point x="72" y="-285" type="curve" smooth="yes"/>
      <point x="105" y="-285"/>
      <point x="135" y="-271"/>
      <point x="149" y="-244" type="curve"/>
      <point x="382" y="325" type="line"/>
      <point x="400" y="374"/>
      <point x="408" y="381"/>
      <point x="424" y="387" type="curve" smooth="yes"/>
      <point x="437" y="392"/>
      <point x="450" y="395"/>
      <point x="450" y="410" type="curve" smooth="yes"/>
      <point x="450" y="420"/>
      <point x="439" y="424"/>
      <point x="432" y="424" type="curve" smooth="yes"/>
      <point x="409" y="424"/>
      <point x="396" y="417"/>
      <point x="360" y="417" type="curve" smooth="yes"/>
      <point x="336" y="417"/>
      <point x="326" y="424"/>
      <point x="298" y="424" type="curve" smooth="yes"/>
      <point x="289" y="424"/>
      <point x="275" y="420"/>
      <point x="275" y="410" type="curve" smooth="yes"/>
      <point x="275" y="398"/>
      <point x="289" y="392"/>
      <point x="305" y="388" type="curve" smooth="yes"/>
      <point x="318" y="384"/>
      <point x="336" y="379"/>
      <point x="336" y="356" type="curve" smooth="yes"/>
      <point x="336" y="346"/>
      <point x="330" y="334"/>
      <point x="324" y="317" type="curve" smooth="yes"/>
      <point x="269" y="163" type="line" smooth="yes"/>
      <point x="268" y="160"/>
      <point x="266" y="157"/>
      <point x="264" y="157" type="curve" smooth="yes"/>
      <point x="261" y="157"/>
      <point x="259" y="160"/>
      <point x="258" y="163" type="curve"/>
      <point x="205" y="347" type="line" smooth="yes"/>
      <point x="203" y="353"/>
      <point x="203" y="358"/>
      <point x="203" y="362" type="curve" smooth="yes"/>
      <point x="204" y="378"/>
      <point x="217" y="384"/>
      <point x="228" y="388" type="curve" smooth="yes"/>
      <point x="240" y="392"/>
      <point x="244" y="398"/>
      <point x="244" y="410" type="curve" smooth="yes"/>
      <point x="244" y="420"/>
      <point x="236" y="424"/>
      <point x="223" y="424" type="curve" smooth="yes"/>
      <point x="180" y="424"/>
      <point x="166" y="417"/>
      <point x="129" y="417" type="curve" smooth="yes"/>
      <point x="76" y="417"/>
      <point x="57" y="424"/>
      <point x="22" y="424" type="curve" smooth="yes"/>
      <point x="11" y="424"/>
      <point x="5" y="420"/>
      <point x="5" y="410" type="curve" smooth="yes"/>
      <point x="5" y="395"/>
      <point x="11" y="392"/>
      <point x="24" y="387" type="curve" smooth="yes"/>
      <point x="40" y="381"/>
      <point x="48" y="375"/>
      <point x="58" y="347" type="curve"/>
      <point x="178" y="8" type="line"/>
      <point x="181" y="1"/>
      <point x="182" y="-9"/>
      <point x="182" y="-19" type="curve" smooth="yes"/>
      <point x="182" y="-27"/>
      <point x="181" y="-35"/>
      <point x="175" y="-48" type="curve" smooth="yes"/>
      <point x="114" y="-175" type="line"/>
      <point x="106" y="-189"/>
      <point x="94" y="-193"/>
      <point x="86" y="-193" type="curve" smooth="yes"/>
      <point x="75" y="-193"/>
      <point x="61" y="-186"/>
      <point x="46" y="-186" type="curve" smooth="yes"/>
      <point x="25" y="-186"/>
      <point x="13" y="-210"/>
      <point x="13" y="-238" type="curve" smooth="yes"/>
      <point x="13" y="-272"/>
      <point x="42" y="-285"/>
    </contour>
  </outline>
</glyph>
<glyph name="z" format="1">
  <advance width="377"/>
  <unicode hex="007A"/>
  <outline>
    <contour>
      <point x="56" y="-5"/>
      <point x="91" y="0"/>
      <point x="119" y="0" type="curve" smooth="yes"/>
      <point x="229" y="0"/>
      <point x="299" y="-5"/>
      <point x="328" y="-5" type="curve" smooth="yes"/>
      <point x="336" y="-5"/>
      <point x="342" y="0"/>
      <point x="344" y="9" type="curve" smooth="yes"/>
      <point x="349" y="25"/>
      <point x="374" y="114"/>
      <point x="374" y="122" type="curve" smooth="yes"/>
      <point x="374" y="141"/>
      <point x="350" y="145"/>
      <point x="340" y="130" type="curve" smooth="yes"/>
      <point x="320" y="101"/>
      <point x="314" y="89"/>
      <point x="304" y="76" type="curve" smooth="yes"/>
      <point x="287" y="54"/>
      <point x="267" y="51"/>
      <point x="252" y="51" type="curve" smooth="yes"/>
      <point x="209" y="51" type="line" smooth="yes"/>
      <point x="203" y="51"/>
      <point x="198" y="56"/>
      <point x="203" y="66" type="curve" smooth="yes"/>
      <point x="328" y="326" type="line" smooth="yes"/>
      <point x="338" y="346"/>
      <point x="346" y="364"/>
      <point x="358" y="380" type="curve" smooth="yes"/>
      <point x="361" y="384"/>
      <point x="356" y="405"/>
      <point x="351" y="405" type="curve" smooth="yes"/>
      <point x="290" y="403"/>
      <point x="234" y="402"/>
      <point x="165" y="402" type="curve" smooth="yes"/>
      <point x="156" y="402"/>
      <point x="132" y="401"/>
      <point x="117" y="401" type="curve" smooth="yes"/>
      <point x="99" y="401"/>
      <point x="80" y="402"/>
      <point x="74" y="407" type="curve" smooth="yes"/>
      <point x="68" y="412"/>
      <point x="62" y="416"/>
      <point x="59" y="416" type="curve" smooth="yes"/>
      <point x="54" y="416"/>
      <point x="42" y="407"/>
      <point x="42" y="394" type="curve" smooth="yes"/>
      <point x="42" y="363"/>
      <point x="27" y="302"/>
      <point x="20" y="279" type="curve" smooth="yes"/>
      <point x="13" y="256"/>
      <point x="45" y="249"/>
      <point x="55" y="267" type="curve" smooth="yes"/>
      <point x="67" y="288"/>
      <point x="78" y="316"/>
      <point x="93" y="332" type="curve" smooth="yes"/>
      <point x="101" y="341"/>
      <point x="117" y="349"/>
      <point x="135" y="349" type="curve" smooth="yes"/>
      <point x="173" y="350" type="line" smooth="yes"/>
      <point x="183" y="350"/>
      <point x="181" y="344"/>
      <point x="179" y="340" type="curve"/>
      <point x="121" y="224"/>
      <point x="100" y="175"/>
      <point x="51" y="79" type="curve" smooth="yes"/>
      <point x="41" y="60"/>
      <point x="25" y="26"/>
      <point x="25" y="21" type="curve" smooth="yes"/>
      <point x="25" y="16"/>
      <point x="34" y="-5"/>
      <point x="39" y="-5" type="curve" smooth="yes"/>
    </contour>
  </outline>
</glyph>
<glyph name="bar" format="1">
  <advance width="260"/>
  <unicode hex="007C"/>
  <outline>
    <contour>
      <point x="113" y="-289"/>
      <point x="189" y="-286"/>
      <point x="189" y="-265" type="curve" smooth="yes"/>
      <point x="189" y="694" type="line" smooth="yes"/>
      <point x="189" y="701"/>
      <point x="176" y="707"/>
      <point x="162" y="707" type="curve" smooth="yes"/>
      <point x="149" y="707"/>
      <point x="71" y="698"/>
      <point x="71" y="676" type="curve" smooth="yes"/>
      <point x="71" y="-275" type="line" smooth="yes"/>
      <point x="71" y="-282"/>
      <point x="82" y="-289"/>
      <point x="94" y="-289" type="curve" smooth="yes"/>
    </contour>
  </outline>
</glyph>
<glyph name="asciitilde" format="1">
  <advance width="500"/>
  <unicode hex="007E"/>
  <outline>
    <contour>
      <point x="386" y="239"/>
      <point x="450" y="306"/>
      <point x="450" y="356" type="curve" smooth="yes"/>
      <point x="450" y="376"/>
      <point x="439" y="391"/>
      <point x="430" y="391" type="curve" smooth="yes"/>
      <point x="425" y="391"/>
      <point x="382" y="328"/>
      <point x="337" y="328" type="curve" smooth="yes"/>
      <point x="310" y="328"/>
      <point x="285" y="343"/>
      <point x="259" y="359" type="curve" smooth="yes"/>
      <point x="233" y="375"/>
      <point x="205" y="390"/>
      <point x="171" y="390" type="curve" smooth="yes"/>
      <point x="101" y="390"/>
      <point x="50" y="299"/>
      <point x="50" y="266" type="curve" smooth="yes"/>
      <point x="50" y="255"/>
      <point x="61" y="244"/>
      <point x="69" y="244" type="curve" smooth="yes"/>
      <point x="74" y="244"/>
      <point x="110" y="299"/>
      <point x="160" y="299" type="curve" smooth="yes"/>
      <point x="189" y="299"/>
      <point x="216" y="285"/>
      <point x="243" y="270" type="curve" smooth="yes"/>
      <point x="272" y="254"/>
      <point x="302" y="239"/>
      <point x="337" y="239" type="curve" smooth="yes"/>
    </contour>
  </outline>
</glyph>
